{
.appVersion = "3134";
.formatVersion = 3;
DisplayStrings = (
"Aa Bb Cc Dd Ee Ff Gg Hh Ii Jj Kk Ll Mm Nn Oo Pp Qq Rr Ss Tt Uu Vv Ww Xx Yy Zz
1234567890
!@&?.

For one thing, time is the very thing that we are least willing to allow.

The shining
Positive &
Negative
Proscacinate"
);
customParameters = (
{
name = vendorID;
value = AMMP;
},
{
name = panose;
value = (
0,
0,
6,
0,
0,
0,
0,
0,
0,
0
);
},
{
name = unicodeRanges;
value = (
0,
1,
2,
29
);
},
{
name = codePageRanges;
value = (
"1252",
"1250",
"1254",
"1257",
"1258",
"bit 29"
);
},
{
name = blueScale;
value = 0.037;
},
{
name = glyphOrder;
value = (
.notdef,
space,
A,
Aacute,
Abreve,
uni1EAE,
uni1EB6,
uni1EB0,
uni1EB2,
uni1EB4,
uni01CD,
Acircumflex,
uni1EA4,
uni1EAC,
uni1EA6,
uni1EA8,
uni1EAA,
Adieresis,
uni1EA0,
Agrave,
uni1EA2,
Amacron,
Aogonek,
Aring,
Atilde,
AE,
B,
C,
Cacute,
Ccaron,
Ccedilla,
Cdotaccent,
D,
Eth,
Dcaron,
Dcroat,
E,
Eacute,
Ecaron,
Ecircumflex,
uni1EBE,
uni1EC6,
uni1EC0,
uni1EC2,
uni1EC4,
Edieresis,
Edotaccent,
uni1EB8,
Egrave,
uni1EBA,
Emacron,
Eogonek,
uni1EBC,
F,
G,
Gbreve,
uni0122,
Gdotaccent,
H,
Hbar,
I,
Iacute,
uni01CF,
Icircumflex,
Idieresis,
Idotaccent,
uni1ECA,
Igrave,
uni1EC8,
Imacron,
Iogonek,
Itilde,
J,
K,
uni0136,
L,
Lacute,
Lcaron,
uni013B,
Lslash,
M,
N,
Nacute,
Ncaron,
uni0145,
Eng,
Ntilde,
O,
Oacute,
uni01D1,
Ocircumflex,
uni1ED0,
uni1ED8,
uni1ED2,
uni1ED4,
uni1ED6,
Odieresis,
uni1ECC,
Ograve,
uni1ECE,
Ohorn,
uni1EDA,
uni1EE2,
uni1EDC,
uni1EDE,
uni1EE0,
Ohungarumlaut,
Omacron,
Oslash,
Otilde,
OE,
P,
Thorn,
Q,
R,
Racute,
Rcaron,
uni0156,
S,
Sacute,
Scaron,
Scedilla,
uni0218,
uni1E9E,
T,
Tbar,
Tcaron,
uni0162,
uni021A,
U,
Uacute,
uni01D3,
Ucircumflex,
Udieresis,
uni01D7,
uni01D9,
uni01DB,
uni01D5,
uni1EE4,
Ugrave,
uni1EE6,
Uhorn,
uni1EE8,
uni1EF0,
uni1EEA,
uni1EEC,
uni1EEE,
Uhungarumlaut,
Umacron,
Uogonek,
Uring,
Utilde,
V,
W,
Wacute,
Wcircumflex,
Wdieresis,
Wgrave,
X,
Y,
Yacute,
Ycircumflex,
Ydieresis,
uni1EF4,
Ygrave,
uni1EF6,
uni1EF8,
Z,
Zacute,
Zcaron,
Zdotaccent,

glyphs = (
{
glyphname = .notdef;
lastChange = "2022-12-26 08:51:43 +0000";
layers = (
{
hints = (
{
horizontal = 1;
place = (-123, -99);
place = (-123, -99);
type = Stem;
},
{
horizontal = 1;
place = (328, -100);
place = (328, -100);
type = Stem;
},
{
place = (-8, -100);
place = (-8, -100);
type = Stem;
},
{
place = (379, -100);
place = (379, -100);
type = Stem;
}
);
layerId = m01;
shapes = (
{
closed = 1;
nodes = (
(-8,0,l),
(402,0,l),
(486,474,l),
(76,474,l)
);
},
{
closed = 1;
nodes = (
(19,24,l),
(95,451,l),
(459,451,l),
(383,24,l)
);
}
);
width = 640;
}
);
note = ".notdef";
},
{
glyphname = A;
kernLeft = A;
kernRight = A;
lastChange = "2022-12-26 08:51:43 +0000";
layers = (
{
hints = (
{
horizontal = 1;
place = (-123, 21);
target = up;
type = BottomGhost;
},
{
horizontal = 1;
place = (50, -44);
place = (50, -44);
type = Stem;
},
{
horizontal = 1;
place = (574, -20);
target = down;
type = TopGhost;
},
{
place = (-98, 481);
place = (-98, 481);
type = Stem;
}
);
layerId = m01;
shapes = (
{
closed = 1;
nodes = (
(373,643,ls),
(366,679,o),
(343,697,o),
(304,697,cs),
(292,697,l),
(-98,0,l),
(0,0,l),
(93,173,l),
(377,173,l),
(408,0,l),
(506,0,l)
);
},
{
closed = 1;
nodes = (
(136,252,l),
(304,568,l),
(362,252,l)
);
}
);
width = 654;
}
);
note = A;
unicode = 65;
},
{
glyphname = Aacute;
kernLeft = A;
kernRight = A;
lastChange = "2022-12-26 08:51:43 +0000";
layers = (
{
hints = (
{
horizontal = 1;
place = (-123, 21);
target = up;
type = BottomGhost;
},
{
horizontal = 1;
place = (50, -44);
place = (50, -44);
type = Stem;
},
{
horizontal = 1;
place = (574, -20);
target = down;
type = TopGhost;
},
{
horizontal = 1;
place = (637, 18);
place = (637, 18);
type = Stem;
},
{
place = (-98, 481);
place = (-98, 481);
type = Stem;
}
);
layerId = m01;
shapes = (
{
closed = 1;
nodes = (
(533,901,l),
(441,901,l),
(307,760,l),
(371,760,l)
);
},
{
closed = 1;
nodes = (
(408,0,l),
(506,0,l),
(362,697,l),
(292,697,l),
(-98,0,l),
(0,0,l),
(93,173,l),
(377,173,l)
);
},
{
closed = 1;
nodes = (
(136,252,l),
(304,568,l),
(362,252,l)
);
}
);
width = 654;
}
);
note = Aacute;
unicode = 193;
},
{
glyphname = Abreve;
kernLeft = A;
kernRight = A;
lastChange = "2022-12-26 08:51:43 +0000";
layers = (
{
hints = (
{
horizontal = 1;
place = (-123, 21);
target = up;
type = BottomGhost;
},
{
horizontal = 1;
place = (50, -44);
place = (50, -44);
type = Stem;
},
{
horizontal = 1;
place = (574, -20);
target = down;
type = TopGhost;
},
{
horizontal = 1;
place = (646, -71);
place = (646, -71);
type = Stem;
},
{
place = (51, -61);
place = (51, -61);
type = Stem;
},
{
place = (295, -61);
place = (295, -61);
type = Stem;
}
);
layerId = m01;
shapes = (
{
closed = 1;
nodes = (
(439,769,o),
(500,813,o),
(516,901,c),
(454,901,l),
(445,849,o),
(405,821,o),
(349,821,cs),
(295,821,o),
(262,847,o),
(272,901,c),
(210,901,l),
(195,816,o),
(237,769,o),
(340,769,cs)
);
},
{
closed = 1;
nodes = (
(408,0,l),
(506,0,l),
(362,697,l),
(292,697,l),
(-98,0,l),
(0,0,l),
(93,173,l),
(377,173,l)
);
},
{
closed = 1;
nodes = (
(136,252,l),
(304,568,l),
(362,252,l)
);
}
);
width = 654;
}
);
note = Abreve;
unicode = 258;
},
{
glyphname = uni1EAE;
kernLeft = A;
kernRight = A;
lastChange = "2022-12-26 08:51:43 +0000";
layers = (
{
hints = (
{
horizontal = 1;
place = (-123, 21);
target = up;
type = BottomGhost;
},
{
horizontal = 1;
place = (50, -44);
place = (50, -44);
type = Stem;
},
{
horizontal = 1;
place = (574, -20);
target = down;
type = TopGhost;
},
{
horizontal = 1;
place = (646, -71);
place = (646, -71);
type = Stem;
},
{
horizontal = 1;
place = (841, 18);
place = (841, 18);
type = Stem;
},
{
place = (51, -61);
place = (51, -61);
type = Stem;
},
{
place = (295, -61);
place = (295, -61);
type = Stem;
}
);
layerId = m01;
shapes = (
{
closed = 1;
nodes = (
(569,1105,l),
(477,1105,l),
(343,964,l),
(407,964,l)
);
},
{
closed = 1;
nodes = (
(439,769,o),
(500,813,o),
(516,901,c),
(454,901,l),
(445,849,o),
(405,821,o),
(349,821,cs),
(295,821,o),
(262,847,o),
(272,901,c),
(210,901,l),
(195,816,o),
(237,769,o),
(340,769,cs)
);
},
{
closed = 1;
nodes = (
(408,0,l),
(506,0,l),
(362,697,l),
(292,697,l),
(-98,0,l),
(0,0,l),
(93,173,l),
(377,173,l)
);
},
{
closed = 1;
nodes = (
(136,252,l),
(304,568,l),
(362,252,l)
);
}
);
width = 654;
}
);
note = uni1EAE;
unicode = 7854;
},
{
glyphname = uni1EB6;
kernLeft = A;
kernRight = A;
lastChange = "2022-12-26 08:51:43 +0000";
layers = (
{
hints = (
{
horizontal = 1;
place = (-296, -19);
place = (-296, -19);
type = Stem;
},
{
horizontal = 1;
place = (-123, 21);
target = up;
type = BottomGhost;
},
{
horizontal = 1;
place = (50, -44);
place = (50, -44);
type = Stem;
},
{
horizontal = 1;
place = (574, -20);
target = down;
type = TopGhost;
},
{
horizontal = 1;
place = (646, -71);
place = (646, -71);
type = Stem;
},
{
place = (51, -61);
place = (51, -61);
type = Stem;
},
{
place = (156, -27);
place = (156, -27);
type = Stem;
},
{
place = (295, -61);
place = (295, -61);
type = Stem;
}
);
layerId = m01;
shapes = (
{
closed = 1;
nodes = (
(439,769,o),
(500,813,o),
(516,901,c),
(454,901,l),
(445,849,o),
(405,821,o),
(349,821,cs),
(295,821,o),
(262,847,o),
(272,901,c),
(210,901,l),
(195,816,o),
(237,769,o),
(340,769,cs)
);
},
{
closed = 1;
nodes = (
(506,0,l),
(362,697,l),
(292,697,l),
(-98,0,l),
(0,0,l),
(93,173,l),
(377,173,l),
(408,0,l)
);
},
{
closed = 1;
nodes = (
(136,252,l),
(304,568,l),
(362,252,l)
);
},
{
closed = 1;
nodes = (
(126,-173,l),
(222,-173,l),
(240,-69,l),
(144,-69,l)
);
}
);
width = 654;
}
);
note = uni1EB6;
unicode = 7862;
},
{
glyphname = uni1EB0;
kernLeft = A;
kernRight = A;
lastChange = "2022-12-26 08:51:43 +0000";
layers = (
{
hints = (
{
horizontal = 1;
place = (-123, 21);
target = up;
type = BottomGhost;
},
{
horizontal = 1;
place = (50, -44);
place = (50, -44);
type = Stem;
},
{
horizontal = 1;
place = (574, -20);
target = down;
type = TopGhost;
},
{
horizontal = 1;
place = (646, -71);
place = (646, -71);
type = Stem;
},
{
horizontal = 1;
place = (841, 18);
place = (841, 18);
type = Stem;
},
{
place = (51, -61);
place = (51, -61);
type = Stem;
},
{
place = (295, -61);
place = (295, -61);
type = Stem;
}
);
layerId = m01;
shapes = (
{
closed = 1;
nodes = (
(407,964,l),
(328,1105,l),
(236,1105,l),
(341,964,l)
);
},
{
closed = 1;
nodes = (
(210,901,l),
(195,816,o),
(237,769,o),
(340,769,cs),
(439,769,o),
(500,813,o),
(516,901,c),
(454,901,l),
(445,849,o),
(405,821,o),
(349,821,cs),
(295,821,o),
(262,847,o),
(272,901,c)
);
},
{
closed = 1;
nodes = (
(408,0,l),
(506,0,l),
(362,697,l),
(292,697,l),
(-98,0,l),
(0,0,l),
(93,173,l),
(377,173,l)
);
},
{
closed = 1;
nodes = (
(136,252,l),
(304,568,l),
(362,252,l)
);
}
);
width = 654;
}
);
note = uni1EB0;
unicode = 7856;
},
{
glyphname = uni1EB2;
kernLeft = A;
kernRight = A;
lastChange = "2022-12-26 08:51:43 +0000";
layers = (
{
hints = (
{
horizontal = 1;
place = (-123, 21);
target = up;
type = BottomGhost;
},
{
horizontal = 1;
place = (50, -44);
place = (50, -44);
type = Stem;
},
{
horizontal = 1;
place = (574, -20);
target = down;
type = TopGhost;
},
{
horizontal = 1;
place = (646, -71);
place = (646, -71);
type = Stem;
},
{
horizontal = 1;
place = (954, -74);
place = (954, -74);
type = Stem;
},
{
place = (51, -61);
place = (51, -61);
type = Stem;
},
{
place = (258, -66);
place = (258, -66);
type = Stem;
},
{
place = (295, -61);
place = (295, -61);
type = Stem;
}
);
layerId = m01;
shapes = (
{
closed = 1;
nodes = (
(433,994,o),
(394,988,o),
(357,982,c),
(363,940,l),
(414,949,o),
(485,961,o),
(496,1028,cs),
(508,1092,o),
(454,1126,o),
(371,1126,cs),
(356,1126,l),
(347,1077,l),
(362,1077,ls),
(405,1077,o),
(446,1067,o),
(440,1029,cs)
);
},
{
closed = 1;
nodes = (
(439,769,o),
(500,813,o),
(516,901,c),
(454,901,l),
(445,849,o),
(405,821,o),
(349,821,cs),
(295,821,o),
(262,847,o),
(272,901,c),
(210,901,l),
(195,816,o),
(237,769,o),
(340,769,cs)
);
},
{
closed = 1;
nodes = (
(408,0,l),
(506,0,l),
(362,697,l),
(292,697,l),
(-98,0,l),
(0,0,l),
(93,173,l),
(377,173,l)
);
},
{
closed = 1;
nodes = (
(136,252,l),
(304,568,l),
(362,252,l)
);
}
);
width = 654;
}
);
note = uni1EB2;
unicode = 7858;
},
{
glyphname = uni1EB4;
kernLeft = A;
kernRight = A;
lastChange = "2022-12-26 08:51:43 +0000";
layers = (
{
hints = (
{
horizontal = 1;
place = (-123, 21);
target = up;
type = BottomGhost;
},
{
horizontal = 1;
place = (50, -44);
place = (50, -44);
type = Stem;
},
{
horizontal = 1;
place = (574, -20);
target = down;
type = TopGhost;
},
{
horizontal = 1;
place = (646, -71);
place = (646, -71);
type = Stem;
},
{
horizontal = 1;
place = (932, -69);
place = (932, -69);
type = Stem;
},
{
place = (43, -73);
place = (43, -73);
type = Stem;
},
{
place = (313, -71);
place = (313, -71);
type = Stem;
},
{
horizontal = 1;
place = (850, -68);
place = (850, -68);
type = Stem;
},
{
place = (51, -61);
place = (51, -61);
type = Stem;
},
{
place = (295, -61);
place = (295, -61);
type = Stem;
}
);
layerId = m01;
shapes = (
{
closed = 1;
nodes = (
(371,1055,o),
(362,973,o),
(444,973,cs),
(500,973,o),
(545,1022,o),
(560,1105,c),
(508,1105,l),
(499,1057,o),
(476,1028,o),
(453,1028,cs),
(405,1028,o),
(409,1109,o),
(336,1109,cs),
(277,1109,o),
(230,1062,o),
(216,980,c),
(266,980,l),
(274,1027,o),
(296,1055,o),
(323,1055,cs)
);
},
{
closed = 1;
nodes = (
(295,821,o),
(262,847,o),
(272,901,c),
(210,901,l),
(195,816,o),
(237,769,o),
(340,769,cs),
(439,769,o),
(500,813,o),
(516,901,c),
(454,901,l),
(445,849,o),
(405,821,o),
(349,821,cs)
);
},
{
closed = 1;
nodes = (
(408,0,l),
(506,0,l),
(362,697,l),
(292,697,l),
(-98,0,l),
(0,0,l),
(93,173,l),
(377,173,l)
);
},
{
closed = 1;
nodes = (
(136,252,l),
(304,568,l),
(362,252,l)
);
}
);
width = 654;
}
);
note = uni1EB4;
unicode = 7860;
},
{
glyphname = uni01CD;
kernLeft = A;
kernRight = A;
lastChange = "2022-12-26 08:51:43 +0000";
layers = (
{
hints = (
{
horizontal = 1;
place = (-123, 21);
target = up;
type = BottomGhost;
},
{
horizontal = 1;
place = (50, -44);
place = (50, -44);
type = Stem;
},
{
horizontal = 1;
place = (574, -20);
target = down;
type = TopGhost;
},
{
place = (-98, 481);
place = (-98, 481);
type = Stem;
}
);
layerId = m01;
shapes = (
{
closed = 1;
nodes = (
(514,901,l),
(445,901,l),
(348,815,l),
(281,901,l),
(212,901,l),
(335,744,l)
);
},
{
closed = 1;
nodes = (
(408,0,l),
(506,0,l),
(362,697,l),
(292,697,l),
(-98,0,l),
(0,0,l),
(93,173,l),
(377,173,l)
);
},
{
closed = 1;
nodes = (
(136,252,l),
(304,568,l),
(362,252,l)
);
}
);
width = 654;
}
);
note = uni01CD;
unicode = 461;
},
{
glyphname = Acircumflex;
kernLeft = A;
kernRight = A;
lastChange = "2022-12-26 08:51:43 +0000";
layers = (
{
hints = (
{
horizontal = 1;
place = (-123, 21);
target = up;
type = BottomGhost;
},
{
horizontal = 1;
place = (50, -44);
place = (50, -44);
type = Stem;
},
{
horizontal = 1;
place = (574, -20);
target = down;
type = TopGhost;
},
{
place = (-98, 481);
place = (-98, 481);
type = Stem;
}
);
layerId = m01;
shapes = (
{
closed = 1;
nodes = (
(352,839,l),
(418,750,l),
(487,750,l),
(365,914,l),
(185,750,l),
(254,750,l)
);
},
{
closed = 1;
nodes = (
(408,0,l),
(506,0,l),
(362,697,l),
(292,697,l),
(-98,0,l),
(0,0,l),
(93,173,l),
(377,173,l)
);
},
{
closed = 1;
nodes = (
(136,252,l),
(304,568,l),
(362,252,l)
);
}
);
width = 654;
}
);
note = Acircumflex;
unicode = 194;
},
{
glyphname = uni1EA4;
kernLeft = A;
kernRight = A;
lastChange = "2022-12-26 08:51:43 +0000";
layers = (
{
hints = (
{
horizontal = 1;
place = (-123, 21);
target = up;
type = BottomGhost;
},
{
horizontal = 1;
place = (50, -44);
place = (50, -44);
type = Stem;
},
{
horizontal = 1;
place = (574, -20);
target = down;
type = TopGhost;
},
{
horizontal = 1;
place = (826, 18);
place = (826, 18);
type = Stem;
},
{
place = (-98, 481);
place = (-98, 481);
type = Stem;
}
);
layerId = m01;
shapes = (
{
closed = 1;
nodes = (
(566,1090,l),
(474,1090,l),
(340,949,l),
(404,949,l)
);
},
{
closed = 1;
nodes = (
(352,839,l),
(418,750,l),
(487,750,l),
(365,914,l),
(185,750,l),
(254,750,l)
);
},
{
closed = 1;
nodes = (
(408,0,l),
(506,0,l),
(362,697,l),
(292,697,l),
(-98,0,l),
(0,0,l),
(93,173,l),
(377,173,l)
);
},
{
closed = 1;
nodes = (
(136,252,l),
(304,568,l),
(362,252,l)
);
}
);
width = 654;
}
);
note = uni1EA4;
unicode = 7844;
},
{
glyphname = uni1EAC;
kernLeft = A;
kernRight = A;
lastChange = "2022-12-26 08:51:43 +0000";
layers = (
{
hints = (
{
horizontal = 1;
place = (-296, -19);
place = (-296, -19);
type = Stem;
},
{
horizontal = 1;
place = (-123, 21);
target = up;
type = BottomGhost;
},
{
horizontal = 1;
place = (50, -44);
place = (50, -44);
type = Stem;
},
{
horizontal = 1;
place = (574, -20);
target = down;
type = TopGhost;
},
{
place = (156, -27);
place = (156, -27);
type = Stem;
}
);
layerId = m01;
shapes = (
{
closed = 1;
nodes = (
(352,839,l),
(418,750,l),
(487,750,l),
(365,914,l),
(185,750,l),
(254,750,l)
);
},
{
closed = 1;
nodes = (
(506,0,l),
(362,697,l),
(292,697,l),
(-98,0,l),
(0,0,l),
(93,173,l),
(377,173,l),
(408,0,l)
);
},
{
closed = 1;
nodes = (
(136,252,l),
(304,568,l),
(362,252,l)
);
},
{
closed = 1;
nodes = (
(126,-173,l),
(222,-173,l),
(240,-69,l),
(144,-69,l)
);
}
);
width = 654;
}
);
note = uni1EAC;
unicode = 7852;
},
{
glyphname = uni1EA6;
kernLeft = A;
kernRight = A;
lastChange = "2022-12-26 08:51:43 +0000";
layers = (
{
hints = (
{
horizontal = 1;
place = (-123, 21);
target = up;
type = BottomGhost;
},
{
horizontal = 1;
place = (50, -44);
place = (50, -44);
type = Stem;
},
{
horizontal = 1;
place = (574, -20);
target = down;
type = TopGhost;
},
{
horizontal = 1;
place = (826, 18);
place = (826, 18);
type = Stem;
},
{
place = (-98, 481);
place = (-98, 481);
type = Stem;
}
);
layerId = m01;
shapes = (
{
closed = 1;
nodes = (
(404,949,l),
(325,1090,l),
(233,1090,l),
(338,949,l)
);
},
{
closed = 1;
nodes = (
(185,750,l),
(254,750,l),
(352,839,l),
(418,750,l),
(487,750,l),
(365,914,l)
);
},
{
closed = 1;
nodes = (
(408,0,l),
(506,0,l),
(362,697,l),
(292,697,l),
(-98,0,l),
(0,0,l),
(93,173,l),
(377,173,l)
);
},
{
closed = 1;
nodes = (
(136,252,l),
(304,568,l),
(362,252,l)
);
}
);
width = 654;
}
);
note = uni1EA6;
unicode = 7846;
},
{
glyphname = uni1EA8;
kernLeft = A;
kernRight = A;
lastChange = "2022-12-26 08:51:43 +0000";
layers = (
{
hints = (
{
horizontal = 1;
place = (-123, 21);
target = up;
type = BottomGhost;
},
{
horizontal = 1;
place = (50, -44);
place = (50, -44);
type = Stem;
},
{
horizontal = 1;
place = (574, -20);
target = down;
type = TopGhost;
},
{
horizontal = 1;
place = (939, -74);
place = (939, -74);
type = Stem;
},
{
place = (258, -66);
place = (258, -66);
type = Stem;
}
);
layerId = m01;
shapes = (
{
closed = 1;
nodes = (
(431,979,o),
(392,973,o),
(355,967,c),
(360,925,l),
(412,934,o),
(482,946,o),
(494,1013,cs),
(505,1077,o),
(451,1111,o),
(368,1111,cs),
(353,1111,l),
(344,1062,l),
(359,1062,ls),
(402,1062,o),
(444,1052,o),
(437,1014,cs)
);
},
{
closed = 1;
nodes = (
(352,839,l),
(418,750,l),
(487,750,l),
(365,914,l),
(185,750,l),
(254,750,l)
);
},
{
closed = 1;
nodes = (
(408,0,l),
(506,0,l),
(362,697,l),
(292,697,l),
(-98,0,l),
(0,0,l),
(93,173,l),
(377,173,l)
);
},
{
closed = 1;
nodes = (
(136,252,l),
(304,568,l),
(362,252,l)
);
}
);
width = 654;
}
);
note = uni1EA8;
unicode = 7848;
},
{
glyphname = uni1EAA;
kernLeft = A;
kernRight = A;
lastChange = "2022-12-26 08:51:43 +0000";
layers = (
{
hints = (
{
horizontal = 1;
place = (-123, 21);
target = up;
type = BottomGhost;
},
{
horizontal = 1;
place = (50, -44);
place = (50, -44);
type = Stem;
},
{
horizontal = 1;
place = (574, -20);
target = down;
type = TopGhost;
},
{
horizontal = 1;
place = (917, -69);
place = (917, -69);
type = Stem;
},
{
place = (43, -73);
place = (43, -73);
type = Stem;
},
{
place = (313, -71);
place = (313, -71);
type = Stem;
},
{
horizontal = 1;
place = (835, -68);
place = (835, -68);
type = Stem;
}
);
layerId = m01;
shapes = (
{
closed = 1;
nodes = (
(368,1040,o),
(359,958,o),
(441,958,cs),
(497,958,o),
(543,1007,o),
(557,1090,c),
(505,1090,l),
(497,1042,o),
(474,1013,o),
(451,1013,cs),
(403,1013,o),
(406,1094,o),
(333,1094,cs),
(274,1094,o),
(228,1047,o),
(213,965,c),
(263,965,l),
(272,1012,o),
(293,1040,o),
(320,1040,cs)
);
},
{
closed = 1;
nodes = (
(185,750,l),
(254,750,l),
(352,839,l),
(418,750,l),
(487,750,l),
(365,914,l)
);
},
{
closed = 1;
nodes = (
(408,0,l),
(506,0,l),
(362,697,l),
(292,697,l),
(-98,0,l),
(0,0,l),
(93,173,l),
(377,173,l)
);
},
{
closed = 1;
nodes = (
(136,252,l),
(304,568,l),
(362,252,l)
);
}
);
width = 654;
}
);
note = uni1EAA;
unicode = 7850;
},
{
glyphname = Adieresis;
kernLeft = A;
kernRight = A;
lastChange = "2022-12-26 08:51:43 +0000";
layers = (
{
hints = (
{
horizontal = 1;
place = (-123, 21);
target = up;
type = BottomGhost;
},
{
horizontal = 1;
place = (50, -44);
place = (50, -44);
type = Stem;
},
{
horizontal = 1;
place = (574, -20);
target = down;
type = TopGhost;
},
{
horizontal = 1;
place = (673, -18);
place = (673, -18);
type = Stem;
},
{
place = (68, -36);
place = (68, -36);
type = Stem;
},
{
place = (253, -36);
place = (253, -36);
type = Stem;
}
);
layerId = m01;
shapes = (
{
closed = 1;
nodes = (
(314,901,l),
(227,901,l),
(208,796,l),
(295,796,l)
);
},
{
closed = 1;
nodes = (
(499,901,l),
(412,901,l),
(393,796,l),
(480,796,l)
);
},
{
closed = 1;
nodes = (
(408,0,l),
(506,0,l),
(362,697,l),
(292,697,l),
(-98,0,l),
(0,0,l),
(93,173,l),
(377,173,l)
);
},
{
closed = 1;
nodes = (
(136,252,l),
(304,568,l),
(362,252,l)
);
}
);
width = 654;
}
);
note = Adieresis;
unicode = 196;
},
{
glyphname = uni1EA0;
kernLeft = A;
kernRight = A;
lastChange = "2022-12-26 08:51:43 +0000";
layers = (
{
hints = (
{
horizontal = 1;
place = (-296, -19);
place = (-296, -19);
type = Stem;
},
{
horizontal = 1;
place = (-123, 21);
target = up;
type = BottomGhost;
},
{
horizontal = 1;
place = (50, -44);
place = (50, -44);
type = Stem;
},
{
horizontal = 1;
place = (574, -20);
target = down;
type = TopGhost;
},
{
place = (156, -27);
place = (156, -27);
type = Stem;
}
);
layerId = m01;
shapes = (
{
closed = 1;
nodes = (
(506,0,l),
(362,697,l),
(292,697,l),
(-98,0,l),
(0,0,l),
(93,173,l),
(377,173,l),
(408,0,l)
);
},
{
closed = 1;
nodes = (
(136,252,l),
(304,568,l),
(362,252,l)
);
},
{
closed = 1;
nodes = (
(126,-173,l),
(222,-173,l),
(240,-69,l),
(144,-69,l)
);
}
);
width = 654;
}
);
note = uni1EA0;
unicode = 7840;
},
{
glyphname = Agrave;
kernLeft = A;
kernRight = A;
lastChange = "2022-12-26 08:51:43 +0000";
layers = (
{
hints = (
{
horizontal = 1;
place = (-123, 21);
target = up;
type = BottomGhost;
},
{
horizontal = 1;
place = (50, -44);
place = (50, -44);
type = Stem;
},
{
horizontal = 1;
place = (574, -20);
target = down;
type = TopGhost;
},
{
horizontal = 1;
place = (637, 18);
place = (637, 18);
type = Stem;
},
{
place = (-98, 481);
place = (-98, 481);
type = Stem;
}
);
layerId = m01;
shapes = (
{
closed = 1;
nodes = (
(371,760,l),
(292,901,l),
(200,901,l),
(305,760,l)
);
},
{
closed = 1;
nodes = (
(408,0,l),
(506,0,l),
(362,697,l),
(292,697,l),
(-98,0,l),
(0,0,l),
(93,173,l),
(377,173,l)
);
},
{
closed = 1;
nodes = (
(136,252,l),
(304,568,l),
(362,252,l)
);
}
);
width = 654;
}
);
note = Agrave;
unicode = 192;
},
{
glyphname = uni1EA2;
kernLeft = A;
kernRight = A;
lastChange = "2022-12-26 08:51:43 +0000";
layers = (
{
hints = (
{
horizontal = 1;
place = (-123, 21);
target = up;
type = BottomGhost;
},
{
horizontal = 1;
place = (50, -44);
place = (50, -44);
type = Stem;
},
{
horizontal = 1;
place = (574, -20);
target = down;
type = TopGhost;
},
{
horizontal = 1;
place = (750, -74);
place = (750, -74);
type = Stem;
},
{
place = (258, -66);
place = (258, -66);
type = Stem;
}
);
layerId = m01;
shapes = (
{
closed = 1;
nodes = (
(397,790,o),
(358,784,o),
(321,778,c),
(327,736,l),
(378,745,o),
(449,757,o),
(460,824,cs),
(472,888,o),
(418,922,o),
(335,922,cs),
(320,922,l),
(311,873,l),
(326,873,ls),
(369,873,o),
(410,863,o),
(404,825,cs)
);
},
{
closed = 1;
nodes = (
(408,0,l),
(506,0,l),
(362,697,l),
(292,697,l),
(-98,0,l),
(0,0,l),
(93,173,l),
(377,173,l)
);
},
{
closed = 1;
nodes = (
(136,252,l),
(304,568,l),
(362,252,l)
);
}
);
width = 654;
}
);
note = uni1EA2;
unicode = 7842;
},
{
glyphname = Amacron;
kernLeft = A;
kernRight = A;
lastChange = "2022-12-26 08:51:43 +0000";
layers = (
{
hints = (
{
horizontal = 1;
place = (-123, 21);
target = up;
type = BottomGhost;
},
{
horizontal = 1;
place = (50, -44);
place = (50, -44);
type = Stem;
},
{
horizontal = 1;
place = (574, -20);
target = down;
type = TopGhost;
},
{
horizontal = 1;
place = (669, -72);
place = (669, -72);
type = Stem;
},
{
place = (-98, 481);
place = (-98, 481);
type = Stem;
}
);
layerId = m01;
shapes = (
{
closed = 1;
nodes = (
(489,843,l),
(217,843,l),
(208,792,l),
(480,792,l)
);
},
{
closed = 1;
nodes = (
(408,0,l),
(506,0,l),
(362,697,l),
(292,697,l),
(-98,0,l),
(0,0,l),
(93,173,l),
(377,173,l)
);
},
{
closed = 1;
nodes = (
(136,252,l),
(304,568,l),
(362,252,l)
);
}
);
width = 654;
}
);
note = Amacron;
unicode = 256;
},
{
glyphname = Aogonek;
kernLeft = A;
kernRight = A;
lastChange = "2022-12-26 08:51:43 +0000";
layers = (
{
hints = (
{
horizontal = 1;
place = (-340, -68);
place = (-340, -68);
type = Stem;
},
{
horizontal = 1;
place = (-123, 21);
target = up;
type = BottomGhost;
},
{
horizontal = 1;
place = (50, -44);
place = (50, -44);
type = Stem;
},
{
horizontal = 1;
place = (574, -20);
target = down;
type = TopGhost;
},
{
place = (352, -71);
place = (352, -71);
type = Stem;
}
);
layerId = m01;
shapes = (
{
closed = 1;
nodes = (
(481,-135,l),
(461,-152,o),
(442,-162,o),
(419,-162,cs),
(397,-162,o),
(377,-151,o),
(383,-119,cs),
(394,-55,o),
(476,-15,o),
(506,0,c),
(362,697,l),
(292,697,l),
(-98,0,l),
(0,0,l),
(93,173,l),
(377,173,l),
(408,0,l),
(436,0,l),
(394,-23,o),
(340,-68,o),
(330,-127,cs),
(320,-182,o),
(356,-217,o),
(412,-217,cs),
(453,-217,o),
(490,-196,o),
(519,-167,c)
);
},
{
closed = 1;
nodes = (
(136,252,l),
(304,568,l),
(362,252,l)
);
}
);
width = 654;
}
);
note = Aogonek;
unicode = 260;
},
{
glyphname = Aring;
kernLeft = A;
kernRight = A;
lastChange = "2022-12-26 08:51:43 +0000";
layers = (
{
hints = (
{
horizontal = 1;
place = (-123, 21);
target = up;
type = BottomGhost;
},
{
horizontal = 1;
place = (50, -44);
place = (50, -44);
type = Stem;
},
{
horizontal = 1;
place = (715, -76);
place = (715, -76);
type = Stem;
},
{
place = (102, -75);
place = (102, -75);
type = Stem;
},
{
place = (260, -76);
place = (260, -76);
type = Stem;
}
);
layerId = m01;
shapes = (
{
closed = 1;
nodes = (
(408,0,l),
(506,0,l),
(364,687,l),
(405,702,o),
(437,739,o),
(445,783,cs),
(455,840,o),
(416,885,o),
(361,885,cs),
(304,885,o),
(250,840,o),
(240,783,cs),
(233,741,o),
(252,703,o),
(286,688,c),
(-98,0,l),
(0,0,l),
(93,173,l),
(377,173,l)
);
},
{
closed = 1;
nodes = (
(386,838,o),
(404,814,o),
(398,783,cs),
(393,752,o),
(364,728,o),
(333,728,cs),
(301,728,o),
(283,752,o),
(288,783,cs),
(294,814,o),
(321,838,o),
(353,838,cs)
);
},
{
closed = 1;
nodes = (
(136,252,l),
(304,568,l),
(362,252,l)
);
}
);
width = 654;
}
);
note = Aring;
unicode = 197;
},
{
glyphname = Atilde;
kernLeft = A;
kernRight = A;
lastChange = "2022-12-26 08:51:43 +0000";
layers = (
{
hints = (
{
horizontal = 1;
place = (-123, 21);
target = up;
type = BottomGhost;
},
{
horizontal = 1;
place = (50, -44);
place = (50, -44);
type = Stem;
},
{
horizontal = 1;
place = (574, -20);
target = down;
type = TopGhost;
},
{
horizontal = 1;
place = (728, -69);
place = (728, -69);
type = Stem;
},
{
place = (43, -73);
place = (43, -73);
type = Stem;
},
{
place = (313, -71);
place = (313, -71);
type = Stem;
},
{
horizontal = 1;
place = (646, -68);
place = (646, -68);
type = Stem;
}
);
layerId = m01;
shapes = (
{
closed = 1;
nodes = (
(335,851,o),
(326,769,o),
(408,769,cs),
(464,769,o),
(509,818,o),
(524,901,c),
(472,901,l),
(464,853,o),
(440,824,o),
(417,824,cs),
(369,824,o),
(373,905,o),
(300,905,cs),
(241,905,o),
(194,858,o),
(180,776,c),
(230,776,l),
(238,823,o),
(260,851,o),
(287,851,cs)
);
},
{
closed = 1;
nodes = (
(408,0,l),
(506,0,l),
(362,697,l),
(292,697,l),
(-98,0,l),
(0,0,l),
(93,173,l),
(377,173,l)
);
},
{
closed = 1;
nodes = (
(136,252,l),
(304,568,l),
(362,252,l)
);
}
);
width = 654;
}
);
note = Atilde;
unicode = 195;
},
{
glyphname = AE;
kernLeft = A;
lastChange = "2022-12-26 08:51:43 +0000";
layers = (
{
hints = (
{
horizontal = 1;
place = (-123, -42);
place = (-123, -42);
type = Stem;
},
{
horizontal = 1;
place = (39, -47);
place = (39, -47);
type = Stem;
},
{
horizontal = 1;
place = (188, -47);
place = (188, -47);
type = Stem;
},
{
horizontal = 1;
place = (495, -44);
place = (495, -44);
type = Stem;
},
{
place = (277, -33);
place = (277, -33);
type = Stem;
},
{
horizontal = 1;
place = (498, -47);
place = (498, -47);
type = Stem;
}
);
layerId = m01;
shapes = (
{
closed = 1;
nodes = (
(-98,0,l),
(0,0,l),
(87,162,l),
(306,162,l),
(277,0,l),
(733,0,l),
(747,81,l),
(381,81,l),
(422,311,l),
(741,311,l),
(754,387,l),
(435,387,l),
(476,618,l),
(842,618,l),
(856,697,l),
(291,697,l)
);
},
{
closed = 1;
nodes = (
(128,238,l),
(334,621,l),
(387,621,l),
(319,238,l)
);
}
);
width = 912;
}
);
note = AE;
unicode = 198;
},
{
glyphname = B;
kernLeft = B;
kernRight = B;
lastChange = "2022-12-26 08:51:43 +0000";
layers = (
{
hints = (
{
horizontal = 1;
place = (-123, -41);
place = (-123, -41);
type = Stem;
},
{
horizontal = 1;
place = (199, -43);
place = (199, -43);
type = Stem;
},
{
horizontal = 1;
place = (492, -41);
place = (492, -41);
type = Stem;
},
{
place = (-18, -34);
place = (-18, -34);
type = Stem;
},
{
place = (365, -33);
place = (365, -33);
type = Stem;
},
{
place = (329, -34);
place = (329, -34);
type = Stem;
}
);
layerId = m01;
shapes = (
{
closed = 1;
nodes = (
(120,697,ls),
(110,697,o),
(104,692,o),
(102,682,cs),
(-18,0,l),
(230,0,ls),
(373,0,o),
(468,72,o),
(490,198,cs),
(506,289,o),
(474,350,o),
(397,373,c),
(457,399,o),
(498,453,o),
(510,522,cs),
(530,632,o),
(463,697,o),
(329,697,cs)
);
},
{
closed = 1;
nodes = (
(142,402,l),
(180,615,l),
(315,615,ls),
(393,615,o),
(430,575,o),
(418,507,cs),
(407,441,o),
(359,402,o),
(286,402,cs)
);
},
{
closed = 1;
nodes = (
(86,82,l),
(128,322,l),
(293,322,ls),
(376,322,o),
(414,280,o),
(401,205,cs),
(387,127,o),
(329,82,o),
(239,82,cs)
);
}
);
width = 635;
}
);
note = B;
unicode = 66;
},
{
glyphname = C;
kernLeft = C;
kernRight = C;
lastChange = "2022-12-26 08:51:43 +0000";
layers = (
{
hints = (
{
horizontal = 1;
place = (-135, -38);
place = (-135, -38);
type = Stem;
},
{
horizontal = 1;
place = (501, -38);
place = (501, -38);
type = Stem;
},
{
place = (-64, -34);
place = (-64, -34);
type = Stem;
}
);
layerId = m01;
shapes = (
{
closed = 1;
nodes = (
(527,213,ls),
(518,216,o),
(511,213,o),
(505,204,cs),
(452,117,o),
(372,73,o),
(273,73,cs),
(124,73,o),
(56,174,o),
(87,350,cs),
(118,525,o),
(221,624,o),
(373,624,cs),
(473,624,o),
(536,583,o),
(558,496,cs),
(560,487,o),
(565,483,o),
(575,487,cs),
(648,514,l),
(621,643,o),
(530,709,o),
(388,709,cs),
(185,709,o),
(37,573,o),
(-2,350,cs),
(-42,125,o),
(57,-12,o),
(258,-12,cs),
(400,-12,o),
(518,57,o),
(592,187,c)
);
}
);
width = 723;
}
);
note = C;
unicode = 67;
},
{
glyphname = Cacute;
kernLeft = C;
kernRight = C;
lastChange = "2022-12-26 08:51:43 +0000";
layers = (
{
hints = (
{
horizontal = 1;
place = (-135, -38);
place = (-135, -38);
type = Stem;
},
{
horizontal = 1;
place = (501, -38);
place = (501, -38);
type = Stem;
},
{
horizontal = 1;
place = (637, 18);
place = (637, 18);
type = Stem;
},
{
place = (-64, -34);
place = (-64, -34);
type = Stem;
}
);
layerId = m01;
shapes = (
{
closed = 1;
nodes = (
(369,760,l),
(433,760,l),
(595,901,l),
(503,901,l)
);
},
{
closed = 1;
nodes = (
(400,-12,o),
(518,57,o),
(592,187,c),
(514,218,l),
(461,122,o),
(377,73,o),
(273,73,cs),
(124,73,o),
(56,174,o),
(87,350,cs),
(118,525,o),
(221,624,o),
(373,624,cs),
(478,624,o),
(542,578,o),
(560,482,c),
(648,514,l),
(621,643,o),
(530,709,o),
(388,709,cs),
(185,709,o),
(37,573,o),
(-2,350,cs),
(-42,125,o),
(57,-12,o),
(258,-12,cs)
);
}
);
width = 723;
}
);
note = Cacute;
unicode = 262;
},
{
glyphname = Ccaron;
kernLeft = C;
kernRight = C;
lastChange = "2022-12-26 08:51:43 +0000";
layers = (
{
hints = (
{
horizontal = 1;
place = (-135, -38);
place = (-135, -38);
type = Stem;
},
{
horizontal = 1;
place = (501, -38);
place = (501, -38);
type = Stem;
},
{
place = (-64, -34);
place = (-64, -34);
type = Stem;
}
);
layerId = m01;
shapes = (
{
closed = 1;
nodes = (
(398,744,l),
(577,901,l),
(508,901,l),
(411,815,l),
(344,901,l),
(275,901,l)
);
},
{
closed = 1;
nodes = (
(400,-12,o),
(518,57,o),
(592,187,c),
(514,218,l),
(461,122,o),
(377,73,o),
(273,73,cs),
(124,73,o),
(56,174,o),
(87,350,cs),
(118,525,o),
(221,624,o),
(373,624,cs),
(478,624,o),
(542,578,o),
(560,482,c),
(648,514,l),
(621,643,o),
(530,709,o),
(388,709,cs),
(185,709,o),
(37,573,o),
(-2,350,cs),
(-42,125,o),
(57,-12,o),
(258,-12,cs)
);
}
);
width = 723;
}
);
note = Ccaron;
unicode = 268;
},
{
glyphname = Ccedilla;
kernLeft = C;
kernRight = C;
lastChange = "2022-12-26 08:51:43 +0000";
layers = (
{
hints = (
{
horizontal = 1;
place = (-379, -72);
place = (-379, -72);
type = Stem;
},
{
horizontal = 1;
place = (-218, -87);
place = (-218, -87);
type = Stem;
},
{
horizontal = 1;
place = (-134, -39);
place = (-134, -39);
type = Stem;
},
{
horizontal = 1;
place = (501, -38);
place = (501, -38);
type = Stem;
},
{
place = (-64, -34);
place = (-64, -34);
type = Stem;
},
{
place = (310, -71);
place = (310, -71);
type = Stem;
}
);
layerId = m01;
shapes = (
{
closed = 1;
nodes = (
(514,218,l),
(461,122,o),
(377,73,o),
(273,73,cs),
(124,73,o),
(56,174,o),
(87,350,cs),
(118,525,o),
(221,624,o),
(373,624,cs),
(478,624,o),
(542,578,o),
(560,482,c),
(648,514,l),
(621,643,o),
(530,709,o),
(388,709,cs),
(185,709,o),
(37,573,o),
(-2,350,cs),
(-40,135,o),
(48,0,o),
(231,-11,c),
(167,-95,l),
(194,-95,o),
(219,-96,o),
(238,-101,cs),
(267,-108,o),
(288,-123,o),
(283,-155,cs),
(277,-186,o),
(254,-205,o),
(222,-205,cs),
(202,-205,o),
(180,-196,o),
(167,-173,c),
(129,-214,l),
(149,-243,o),
(182,-256,o),
(210,-256,cs),
(273,-256,o),
(325,-212,o),
(335,-153,cs),
(341,-117,o),
(328,-91,o),
(299,-76,cs),
(283,-68,o),
(266,-63,o),
(243,-59,c),
(283,-11,l),
(413,-4,o),
(523,65,o),
(592,187,c)
);
}
);
width = 723;
}
);
note = Ccedilla;
unicode = 199;
},
{
glyphname = Cdotaccent;
kernLeft = C;
kernRight = C;
lastChange = "2022-12-26 08:51:43 +0000";
layers = (
{
hints = (
{
horizontal = 1;
place = (-135, -38);
place = (-135, -38);
type = Stem;
},
{
horizontal = 1;
place = (501, -38);
place = (501, -38);
type = Stem;
},
{
horizontal = 1;
place = (673, -18);
place = (673, -18);
type = Stem;
},
{
place = (-64, -34);
place = (-64, -34);
type = Stem;
},
{
place = (219, -27);
place = (219, -27);
type = Stem;
}
);
layerId = m01;
shapes = (
{
closed = 1;
nodes = (
(359,796,l),
(455,796,l),
(474,901,l),
(378,901,l)
);
},
{
closed = 1;
nodes = (
(400,-12,o),
(518,57,o),
(592,187,c),
(514,218,l),
(461,122,o),
(377,73,o),
(273,73,cs),
(124,73,o),
(56,174,o),
(87,350,cs),
(118,525,o),
(221,624,o),
(373,624,cs),
(478,624,o),
(542,578,o),
(560,482,c),
(648,514,l),
(621,643,o),
(530,709,o),
(388,709,cs),
(185,709,o),
(37,573,o),
(-2,350,cs),
(-42,125,o),
(57,-12,o),
(258,-12,cs)
);
}
);
width = 723;
}
);
note = Cdotaccent;
unicode = 266;
},
{
glyphname = D;
kernLeft = B;
kernRight = D;
lastChange = "2022-12-26 08:51:43 +0000";
layers = (
{
hints = (
{
horizontal = 1;
place = (-123, -41);
place = (-123, -41);
type = Stem;
},
{
horizontal = 1;
place = (492, -41);
place = (492, -41);
type = Stem;
},
{
place = (-18, -34);
place = (-18, -34);
type = Stem;
},
{
place = (444, -33);
place = (444, -33);
type = Stem;
}
);
layerId = m01;
shapes = (
{
closed = 1;
nodes = (
(120,697,ls),
(110,697,o),
(104,692,o),
(102,682,cs),
(-18,0,l),
(175,0,ls),
(407,0,o),
(555,121,o),
(595,343,cs),
(634,568,o),
(527,697,o),
(299,697,cs)
);
},
{
closed = 1;
nodes = (
(86,82,l),
(180,615,l),
(283,615,ls),
(464,615,o),
(537,526,o),
(505,347,cs),
(474,167,o),
(370,82,o),
(182,82,cs)
);
}
);
width = 714;
}
);
note = D;
unicode = 68;
},
{
glyphname = Eth;
kernLeft = B;
kernRight = D;
lastChange = "2022-12-26 08:51:43 +0000";
layers = (
{
hints = (
{
horizontal = 1;
place = (-123, -41);
place = (-123, -41);
type = Stem;
},
{
horizontal = 1;
place = (197, -65);
place = (197, -65);
type = Stem;
},
{
horizontal = 1;
place = (492, -41);
place = (492, -41);
type = Stem;
},
{
place = (-18, -34);
place = (-18, -34);
type = Stem;
},
{
place = (444, -33);
place = (444, -33);
type = Stem;
}
);
layerId = m01;
shapes = (
{
closed = 1;
nodes = (
(105,697,l),
(49,378,l),
(-26,378,l),
(-36,320,l),
(39,320,l),
(-18,0,l),
(175,0,ls),
(407,0,o),
(555,121,o),
(595,343,cs),
(634,568,o),
(527,697,o),
(299,697,cs)
);
},
{
closed = 1;
nodes = (
(86,82,l),
(128,320,l),
(252,320,l),
(262,378,l),
(138,378,l),
(180,615,l),
(283,615,ls),
(464,615,o),
(537,526,o),
(505,347,cs),
(474,167,o),
(370,82,o),
(182,82,cs)
);
}
);
width = 714;
}
);
note = Eth;
unicode = 208;
},
{
glyphname = Dcaron;
kernLeft = B;
kernRight = D;
lastChange = "2022-12-26 08:51:43 +0000";
layers = (
{
hints = (
{
horizontal = 1;
place = (-123, -41);
place = (-123, -41);
type = Stem;
},
{
horizontal = 1;
place = (492, -41);
place = (492, -41);
type = Stem;
},
{
place = (-18, -34);
place = (-18, -34);
type = Stem;
},
{
place = (444, -33);
place = (444, -33);
type = Stem;
}
);
layerId = m01;
shapes = (
{
closed = 1;
nodes = (
(366,744,l),
(545,901,l),
(476,901,l),
(379,815,l),
(312,901,l),
(243,901,l)
);
},
{
closed = 1;
nodes = (
(-18,0,l),
(175,0,ls),
(407,0,o),
(555,121,o),
(595,343,cs),
(634,568,o),
(527,697,o),
(299,697,cs),
(105,697,l)
);
},
{
closed = 1;
nodes = (
(86,82,l),
(180,615,l),
(283,615,ls),
(464,615,o),
(537,526,o),
(505,347,cs),
(474,167,o),
(370,82,o),
(182,82,cs)
);
}
);
width = 714;
}
);
note = Dcaron;
unicode = 270;
},
{
glyphname = Dcroat;
kernLeft = B;
kernRight = D;
lastChange = "2022-12-26 08:51:43 +0000";
layers = (
{
hints = (
{
horizontal = 1;
place = (-123, -41);
place = (-123, -41);
type = Stem;
},
{
horizontal = 1;
place = (197, -65);
place = (197, -65);
type = Stem;
},
{
horizontal = 1;
place = (492, -41);
place = (492, -41);
type = Stem;
},
{
place = (-18, -34);
place = (-18, -34);
type = Stem;
},
{
place = (444, -33);
place = (444, -33);
type = Stem;
}
);
layerId = m01;
shapes = (
{
closed = 1;
nodes = (
(105,697,l),
(49,378,l),
(-26,378,l),
(-36,320,l),
(39,320,l),
(-18,0,l),
(175,0,ls),
(407,0,o),
(555,121,o),
(595,343,cs),
(634,568,o),
(527,697,o),
(299,697,cs)
);
},
{
closed = 1;
nodes = (
(86,82,l),
(128,320,l),
(252,320,l),
(262,378,l),
(138,378,l),
(180,615,l),
(283,615,ls),
(464,615,o),
(537,526,o),
(505,347,cs),
(474,167,o),
(370,82,o),
(182,82,cs)
);
}
);
width = 714;
}
);
note = Dcroat;
unicode = 272;
},
{
glyphname = E;
kernLeft = B;
lastChange = "2022-12-26 08:51:43 +0000";
layers = (
{
hints = (
{
horizontal = 1;
place = (-123, -41);
place = (-123, -41);
type = Stem;
},
{
horizontal = 1;
place = (192, -41);
place = (192, -41);
type = Stem;
},
{
horizontal = 1;
place = (492, -41);
place = (492, -41);
type = Stem;
},
{
place = (-18, -34);
place = (-18, -34);
type = Stem;
}
);
layerId = m01;
shapes = (
{
closed = 1;
nodes = (
(475,382,ls),
(477,392,o),
(473,397,o),
(463,397,cs),
(141,397,l),
(180,615,l),
(551,615,l),
(565,697,l),
(105,697,l),
(-18,0,l),
(442,0,l),
(457,82,l),
(86,82,l),
(127,315,l),
(464,315,l)
);
}
);
width = 625;
}
);
note = E;
unicode = 69;
},
{
glyphname = Eacute;
kernLeft = B;
lastChange = "2022-12-26 08:51:43 +0000";
layers = (
{
hints = (
{
horizontal = 1;
place = (-123, -41);
place = (-123, -41);
type = Stem;
},
{
horizontal = 1;
place = (192, -41);
place = (192, -41);
type = Stem;
},
{
horizontal = 1;
place = (492, -41);
place = (492, -41);
type = Stem;
},
{
horizontal = 1;
place = (637, 18);
place = (637, 18);
type = Stem;
},
{
place = (-18, -34);
place = (-18, -34);
type = Stem;
}
);
layerId = m01;
shapes = (
{
closed = 1;
nodes = (
(314,760,l),
(378,760,l),
(540,901,l),
(448,901,l)
);
},
{
closed = 1;
nodes = (
(-18,0,l),
(442,0,l),
(457,82,l),
(86,82,l),
(127,315,l),
(464,315,l),
(478,397,l),
(141,397,l),
(180,615,l),
(551,615,l),
(565,697,l),
(105,697,l)
);
}
);
width = 625;
}
);
note = Eacute;
unicode = 201;
},
{
glyphname = Ecaron;
kernLeft = B;
lastChange = "2022-12-26 08:51:43 +0000";
layers = (
{
hints = (
{
horizontal = 1;
place = (-123, -41);
place = (-123, -41);
type = Stem;
},
{
horizontal = 1;
place = (192, -41);
place = (192, -41);
type = Stem;
},
{
horizontal = 1;
place = (492, -41);
place = (492, -41);
type = Stem;
},
{
place = (-18, -34);
place = (-18, -34);
type = Stem;
}
);
layerId = m01;
shapes = (
{
closed = 1;
nodes = (
(343,744,l),
(522,901,l),
(453,901,l),
(356,815,l),
(289,901,l),
(220,901,l)
);
},
{
closed = 1;
nodes = (
(-18,0,l),
(442,0,l),
(457,82,l),
(86,82,l),
(127,315,l),
(464,315,l),
(478,397,l),
(141,397,l),
(180,615,l),
(551,615,l),
(565,697,l),
(105,697,l)
);
}
);
width = 625;
}
);
note = Ecaron;
unicode = 282;
},
{
glyphname = Ecircumflex;
kernLeft = B;
lastChange = "2022-12-26 08:51:43 +0000";
layers = (
{
hints = (
{
horizontal = 1;
place = (-123, -41);
place = (-123, -41);
type = Stem;
},
{
horizontal = 1;
place = (192, -41);
place = (192, -41);
type = Stem;
},
{
horizontal = 1;
place = (492, -41);
place = (492, -41);
type = Stem;
},
{
place = (-18, -34);
place = (-18, -34);
type = Stem;
}
);
layerId = m01;
shapes = (
{
closed = 1;
nodes = (
(193,750,l),
(262,750,l),
(360,839,l),
(426,750,l),
(495,750,l),
(373,914,l)
);
},
{
closed = 1;
nodes = (
(-18,0,l),
(442,0,l),
(457,82,l),
(86,82,l),
(127,315,l),
(464,315,l),
(478,397,l),
(141,397,l),
(180,615,l),
(551,615,l),
(565,697,l),
(105,697,l)
);
}
);
width = 625;
}
);
note = Ecircumflex;
unicode = 202;
},
{
glyphname = uni1EBE;
kernLeft = B;
lastChange = "2022-12-26 08:51:43 +0000";
layers = (
{
hints = (
{
horizontal = 1;
place = (-123, -41);
place = (-123, -41);
type = Stem;
},
{
horizontal = 1;
place = (192, -41);
place = (192, -41);
type = Stem;
},
{
horizontal = 1;
place = (492, -41);
place = (492, -41);
type = Stem;
},
{
horizontal = 1;
place = (826, 18);
place = (826, 18);
type = Stem;
},
{
place = (-18, -34);
place = (-18, -34);
type = Stem;
}
);
layerId = m01;
shapes = (
{
closed = 1;
nodes = (
(347,949,l),
(411,949,l),
(573,1090,l),
(481,1090,l)
);
},
{
closed = 1;
nodes = (
(193,750,l),
(262,750,l),
(360,839,l),
(426,750,l),
(495,750,l),
(373,914,l)
);
},
{
closed = 1;
nodes = (
(-18,0,l),
(442,0,l),
(457,82,l),
(86,82,l),
(127,315,l),
(464,315,l),
(478,397,l),
(141,397,l),
(180,615,l),
(551,615,l),
(565,697,l),
(105,697,l)
);
}
);
width = 625;
}
);
note = uni1EBE;
unicode = 7870;
},
{
glyphname = uni1EC6;
kernLeft = B;
lastChange = "2022-12-26 08:51:43 +0000";
layers = (
{
hints = (
{
horizontal = 1;
place = (-296, -19);
place = (-296, -19);
type = Stem;
},
{
horizontal = 1;
place = (-123, -41);
place = (-123, -41);
type = Stem;
},
{
horizontal = 1;
place = (192, -41);
place = (192, -41);
type = Stem;
},
{
horizontal = 1;
place = (492, -41);
place = (492, -41);
type = Stem;
},
{
place = (-18, -34);
place = (-18, -34);
type = Stem;
},
{
place = (164, -27);
place = (164, -27);
type = Stem;
}
);
layerId = m01;
shapes = (
{
closed = 1;
nodes = (
(193,750,l),
(262,750,l),
(360,839,l),
(426,750,l),
(495,750,l),
(373,914,l)
);
},
{
closed = 1;
nodes = (
(-18,0,l),
(442,0,l),
(457,82,l),
(86,82,l),
(127,315,l),
(464,315,l),
(478,397,l),
(141,397,l),
(180,615,l),
(551,615,l),
(565,697,l),
(105,697,l)
);
},
{
closed = 1;
nodes = (
(134,-173,l),
(230,-173,l),
(248,-69,l),
(152,-69,l)
);
}
);
width = 625;
}
);
note = uni1EC6;
unicode = 7878;
},
{
glyphname = uni1EC0;
kernLeft = B;
lastChange = "2022-12-26 08:51:43 +0000";
layers = (
{
hints = (
{
horizontal = 1;
place = (-123, -41);
place = (-123, -41);
type = Stem;
},
{
horizontal = 1;
place = (192, -41);
place = (192, -41);
type = Stem;
},
{
horizontal = 1;
place = (492, -41);
place = (492, -41);
type = Stem;
},
{
horizontal = 1;
place = (826, 18);
place = (826, 18);
type = Stem;
},
{
place = (-18, -34);
place = (-18, -34);
type = Stem;
}
);
layerId = m01;
shapes = (
{
closed = 1;
nodes = (
(346,949,l),
(412,949,l),
(333,1090,l),
(241,1090,l)
);
},
{
closed = 1;
nodes = (
(193,750,l),
(262,750,l),
(360,839,l),
(426,750,l),
(495,750,l),
(373,914,l)
);
},
{
closed = 1;
nodes = (
(-18,0,l),
(442,0,l),
(457,82,l),
(86,82,l),
(127,315,l),
(464,315,l),
(478,397,l),
(141,397,l),
(180,615,l),
(551,615,l),
(565,697,l),
(105,697,l)
);
}
);
width = 625;
}
);
note = uni1EC0;
unicode = 7872;
},
{
glyphname = uni1EC2;
kernLeft = B;
lastChange = "2022-12-26 08:51:43 +0000";
layers = (
{
hints = (
{
horizontal = 1;
place = (-123, -41);
place = (-123, -41);
type = Stem;
},
{
horizontal = 1;
place = (192, -41);
place = (192, -41);
type = Stem;
},
{
horizontal = 1;
place = (492, -41);
place = (492, -41);
type = Stem;
},
{
horizontal = 1;
place = (939, -74);
place = (939, -74);
type = Stem;
},
{
place = (-18, -34);
place = (-18, -34);
type = Stem;
},
{
place = (265, -66);
place = (265, -66);
type = Stem;
}
);
layerId = m01;
shapes = (
{
closed = 1;
nodes = (
(367,925,l),
(419,934,o),
(489,946,o),
(501,1013,cs),
(512,1077,o),
(458,1111,o),
(375,1111,cs),
(360,1111,l),
(351,1062,l),
(366,1062,ls),
(409,1062,o),
(451,1052,o),
(444,1014,cs),
(438,979,o),
(399,973,o),
(362,967,c)
);
},
{
closed = 1;
nodes = (
(193,750,l),
(262,750,l),
(360,839,l),
(426,750,l),
(495,750,l),
(373,914,l)
);
},
{
closed = 1;
nodes = (
(-18,0,l),
(442,0,l),
(457,82,l),
(86,82,l),
(127,315,l),
(464,315,l),
(478,397,l),
(141,397,l),
(180,615,l),
(551,615,l),
(565,697,l),
(105,697,l)
);
}
);
width = 625;
}
);
note = uni1EC2;
unicode = 7874;
},
{
glyphname = uni1EC4;
kernLeft = B;
lastChange = "2022-12-26 08:51:43 +0000";
layers = (
{
hints = (
{
horizontal = 1;
place = (-123, -41);
place = (-123, -41);
type = Stem;
},
{
horizontal = 1;
place = (192, -41);
place = (192, -41);
type = Stem;
},
{
horizontal = 1;
place = (492, -41);
place = (492, -41);
type = Stem;
},
{
horizontal = 1;
place = (835, -68);
place = (835, -68);
type = Stem;
},
{
horizontal = 1;
place = (917, -69);
place = (917, -69);
type = Stem;
},
{
place = (50, -73);
place = (50, -73);
type = Stem;
},
{
place = (320, -71);
place = (320, -71);
type = Stem;
},
{
place = (-18, -34);
place = (-18, -34);
type = Stem;
}
);
layerId = m01;
shapes = (
{
closed = 1;
nodes = (
(504,958,o),
(550,1007,o),
(564,1090,c),
(512,1090,l),
(504,1042,o),
(481,1013,o),
(458,1013,cs),
(410,1013,o),
(413,1094,o),
(340,1094,cs),
(281,1094,o),
(235,1047,o),
(220,965,c),
(270,965,l),
(279,1012,o),
(300,1040,o),
(327,1040,cs),
(375,1040,o),
(366,958,o),
(448,958,cs)
);
},
{
closed = 1;
nodes = (
(193,750,l),
(262,750,l),
(360,839,l),
(426,750,l),
(495,750,l),
(373,914,l)
);
},
{
closed = 1;
nodes = (
(-18,0,l),
(442,0,l),
(457,82,l),
(86,82,l),
(127,315,l),
(464,315,l),
(478,397,l),
(141,397,l),
(180,615,l),
(551,615,l),
(565,697,l),
(105,697,l)
);
}
);
width = 625;
}
);
note = uni1EC4;
unicode = 7876;
},
{
glyphname = Edieresis;
kernLeft = B;
lastChange = "2022-12-26 08:51:43 +0000";
layers = (
{
hints = (
{
horizontal = 1;
place = (-123, -41);
place = (-123, -41);
type = Stem;
},
{
horizontal = 1;
place = (192, -41);
place = (192, -41);
type = Stem;
},
{
horizontal = 1;
place = (492, -41);
place = (492, -41);
type = Stem;
},
{
horizontal = 1;
place = (673, -18);
place = (673, -18);
type = Stem;
},
{
place = (75, -36);
place = (75, -36);
type = Stem;
},
{
place = (260, -36);
place = (260, -36);
type = Stem;
},
{
place = (-18, -34);
place = (-18, -34);
type = Stem;
}
);
layerId = m01;
shapes = (
{
closed = 1;
nodes = (
(215,796,l),
(302,796,l),
(321,901,l),
(234,901,l)
);
},
{
closed = 1;
nodes = (
(400,796,l),
(487,796,l),
(506,901,l),
(419,901,l)
);
},
{
closed = 1;
nodes = (
(-18,0,l),
(442,0,l),
(457,82,l),
(86,82,l),
(127,315,l),
(464,315,l),
(478,397,l),
(141,397,l),
(180,615,l),
(551,615,l),
(565,697,l),
(105,697,l)
);
}
);
width = 625;
}
);
note = Edieresis;
unicode = 203;
},
{
glyphname = Edotaccent;
kernLeft = B;
lastChange = "2022-12-26 08:51:43 +0000";
layers = (
{
hints = (
{
horizontal = 1;
place = (-123, -41);
place = (-123, -41);
type = Stem;
},
{
horizontal = 1;
place = (192, -41);
place = (192, -41);
type = Stem;
},
{
horizontal = 1;
place = (492, -41);
place = (492, -41);
type = Stem;
},
{
horizontal = 1;
place = (673, -18);
place = (673, -18);
type = Stem;
},
{
place = (-18, -34);
place = (-18, -34);
type = Stem;
},
{
place = (164, -27);
place = (164, -27);
type = Stem;
}
);
layerId = m01;
shapes = (
{
closed = 1;
nodes = (
(304,796,l),
(400,796,l),
(419,901,l),
(323,901,l)
);
},
{
closed = 1;
nodes = (
(-18,0,l),
(442,0,l),
(457,82,l),
(86,82,l),
(127,315,l),
(464,315,l),
(478,397,l),
(141,397,l),
(180,615,l),
(551,615,l),
(565,697,l),
(105,697,l)
);
}
);
width = 625;
}
);
note = Edotaccent;
unicode = 278;
},
{
glyphname = uni1EB8;
kernLeft = B;
lastChange = "2022-12-26 08:51:43 +0000";
layers = (
{
hints = (
{
horizontal = 1;
place = (-296, -19);
place = (-296, -19);
type = Stem;
},
{
horizontal = 1;
place = (-123, -41);
place = (-123, -41);
type = Stem;
},
{
horizontal = 1;
place = (192, -41);
place = (192, -41);
type = Stem;
},
{
horizontal = 1;
place = (492, -41);
place = (492, -41);
type = Stem;
},
{
place = (-18, -34);
place = (-18, -34);
type = Stem;
},
{
place = (164, -27);
place = (164, -27);
type = Stem;
}
);
layerId = m01;
shapes = (
{
closed = 1;
nodes = (
(-18,0,l),
(442,0,l),
(457,82,l),
(86,82,l),
(127,315,l),
(464,315,l),
(478,397,l),
(141,397,l),
(180,615,l),
(551,615,l),
(565,697,l),
(105,697,l)
);
},
{
closed = 1;
nodes = (
(134,-173,l),
(230,-173,l),
(248,-69,l),
(152,-69,l)
);
}
);
width = 625;
}
);
note = uni1EB8;
unicode = 7864;
},
{
glyphname = Egrave;
kernLeft = B;
lastChange = "2022-12-26 08:51:43 +0000";
layers = (
{
hints = (
{
horizontal = 1;
place = (-123, -41);
place = (-123, -41);
type = Stem;
},
{
horizontal = 1;
place = (192, -41);
place = (192, -41);
type = Stem;
},
{
horizontal = 1;
place = (492, -41);
place = (492, -41);
type = Stem;
},
{
horizontal = 1;
place = (637, 18);
place = (637, 18);
type = Stem;
},
{
place = (-18, -34);
place = (-18, -34);
type = Stem;
}
);
layerId = m01;
shapes = (
{
closed = 1;
nodes = (
(313,760,l),
(379,760,l),
(300,901,l),
(208,901,l)
);
},
{
closed = 1;
nodes = (
(-18,0,l),
(442,0,l),
(457,82,l),
(86,82,l),
(127,315,l),
(464,315,l),
(478,397,l),
(141,397,l),
(180,615,l),
(551,615,l),
(565,697,l),
(105,697,l)
);
}
);
width = 625;
}
);
note = Egrave;
unicode = 200;
},
{
glyphname = uni1EBA;
kernLeft = B;
lastChange = "2022-12-26 08:51:43 +0000";
layers = (
{
hints = (
{
horizontal = 1;
place = (-123, -41);
place = (-123, -41);
type = Stem;
},
{
horizontal = 1;
place = (192, -41);
place = (192, -41);
type = Stem;
},
{
horizontal = 1;
place = (492, -41);
place = (492, -41);
type = Stem;
},
{
horizontal = 1;
place = (750, -74);
place = (750, -74);
type = Stem;
},
{
place = (-18, -34);
place = (-18, -34);
type = Stem;
},
{
place = (265, -66);
place = (265, -66);
type = Stem;
}
);
layerId = m01;
shapes = (
{
closed = 1;
nodes = (
(334,736,l),
(385,745,o),
(456,757,o),
(467,824,cs),
(479,888,o),
(425,922,o),
(342,922,cs),
(327,922,l),
(318,873,l),
(333,873,ls),
(376,873,o),
(417,863,o),
(411,825,cs),
(404,790,o),
(365,784,o),
(328,778,c)
);
},
{
closed = 1;
nodes = (
(-18,0,l),
(442,0,l),
(457,82,l),
(86,82,l),
(127,315,l),
(464,315,l),
(478,397,l),
(141,397,l),
(180,615,l),
(551,615,l),
(565,697,l),
(105,697,l)
);
}
);
width = 625;
}
);
note = uni1EBA;
unicode = 7866;
},
{
glyphname = Emacron;
kernLeft = B;
lastChange = "2022-12-26 08:51:43 +0000";
layers = (
{
hints = (
{
horizontal = 1;
place = (-123, -41);
place = (-123, -41);
type = Stem;
},
{
horizontal = 1;
place = (192, -41);
place = (192, -41);
type = Stem;
},
{
horizontal = 1;
place = (492, -41);
place = (492, -41);
type = Stem;
},
{
horizontal = 1;
place = (669, -72);
place = (669, -72);
type = Stem;
},
{
place = (-18, -34);
place = (-18, -34);
type = Stem;
}
);
layerId = m01;
shapes = (
{
closed = 1;
nodes = (
(215,792,l),
(487,792,l),
(496,843,l),
(224,843,l)
);
},
{
closed = 1;
nodes = (
(-18,0,l),
(442,0,l),
(457,82,l),
(86,82,l),
(127,315,l),
(464,315,l),
(478,397,l),
(141,397,l),
(180,615,l),
(551,615,l),
(565,697,l),
(105,697,l)
);
}
);
width = 625;
}
);
note = Emacron;
unicode = 274;
},
{
glyphname = Eogonek;
kernLeft = B;
lastChange = "2022-12-26 08:51:43 +0000";
layers = (
{
hints = (
{
horizontal = 1;
place = (-340, -68);
place = (-340, -68);
type = Stem;
},
{
horizontal = 1;
place = (-123, -41);
place = (-123, -41);
type = Stem;
},
{
horizontal = 1;
place = (192, -41);
place = (192, -41);
type = Stem;
},
{
horizontal = 1;
place = (492, -41);
place = (492, -41);
type = Stem;
},
{
place = (-18, -34);
place = (-18, -34);
type = Stem;
},
{
place = (288, -71);
place = (288, -71);
type = Stem;
}
);
layerId = m01;
shapes = (
{
closed = 1;
nodes = (
(417,-135,l),
(397,-152,o),
(378,-162,o),
(355,-162,cs),
(333,-162,o),
(313,-151,o),
(319,-119,cs),
(330,-55,o),
(412,-15,o),
(442,0,c),
(457,82,l),
(86,82,l),
(127,315,l),
(464,315,l),
(478,397,l),
(141,397,l),
(180,615,l),
(551,615,l),
(565,697,l),
(105,697,l),
(-18,0,l),
(372,0,l),
(330,-23,o),
(276,-68,o),
(266,-127,cs),
(256,-182,o),
(292,-217,o),
(348,-217,cs),
(389,-217,o),
(426,-196,o),
(455,-167,c)
);
}
);
width = 625;
}
);
note = Eogonek;
unicode = 280;
},
{
glyphname = uni1EBC;
kernLeft = B;
lastChange = "2022-12-26 08:51:43 +0000";
layers = (
{
hints = (
{
horizontal = 1;
place = (-123, -41);
place = (-123, -41);
type = Stem;
},
{
horizontal = 1;
place = (192, -41);
place = (192, -41);
type = Stem;
},
{
horizontal = 1;
place = (492, -41);
place = (492, -41);
type = Stem;
},
{
horizontal = 1;
place = (646, -68);
place = (646, -68);
type = Stem;
},
{
horizontal = 1;
place = (728, -69);
place = (728, -69);
type = Stem;
},
{
place = (50, -73);
place = (50, -73);
type = Stem;
},
{
place = (320, -71);
place = (320, -71);
type = Stem;
},
{
place = (-18, -34);
place = (-18, -34);
type = Stem;
}
);
layerId = m01;
shapes = (
{
closed = 1;
nodes = (
(471,769,o),
(516,818,o),
(531,901,c),
(479,901,l),
(471,853,o),
(447,824,o),
(424,824,cs),
(376,824,o),
(380,905,o),
(307,905,cs),
(248,905,o),
(201,858,o),
(187,776,c),
(237,776,l),
(245,823,o),
(267,851,o),
(294,851,cs),
(342,851,o),
(333,769,o),
(415,769,cs)
);
},
{
closed = 1;
nodes = (
(-18,0,l),
(442,0,l),
(457,82,l),
(86,82,l),
(127,315,l),
(464,315,l),
(478,397,l),
(141,397,l),
(180,615,l),
(551,615,l),
(565,697,l),
(105,697,l)
);
}
);
width = 625;
}
);
note = uni1EBC;
unicode = 7868;
},
{
glyphname = F;
kernLeft = B;
kernRight = F;
lastChange = "2022-12-26 08:51:43 +0000";
layers = (
{
hints = (
{
horizontal = 1;
place = (-123, 21);
target = up;
type = BottomGhost;
},
{
horizontal = 1;
place = (192, -41);
place = (192, -41);
type = Stem;
},
{
horizontal = 1;
place = (492, -41);
place = (492, -41);
type = Stem;
},
{
place = (-18, -34);
place = (-18, -34);
type = Stem;
}
);
layerId = m01;
shapes = (
{
closed = 1;
nodes = (
(556,615,ls),
(566,615,o),
(571,620,o),
(573,630,cs),
(585,697,l),
(105,697,l),
(-18,0,l),
(27,0,l),
(81,55,l),
(127,315,l),
(470,315,l),
(484,397,l),
(141,397,l),
(180,615,l)
);
}
);
width = 620;
}
);
note = F;
unicode = 70;
},
{
glyphname = G;
kernLeft = C;
kernRight = G;
lastChange = "2022-12-26 08:51:43 +0000";
layers = (
{
hints = (
{
horizontal = 1;
place = (-135, -38);
place = (-135, -38);
type = Stem;
},
{
horizontal = 1;
place = (166, -46);
place = (166, -46);
type = Stem;
},
{
horizontal = 1;
place = (501, -38);
place = (501, -38);
type = Stem;
},
{
place = (-65, -34);
place = (-65, -34);
type = Stem;
},
{
place = (473, -37);
place = (473, -37);
type = Stem;
},
{
horizontal = 1;
place = (-123, 21);
target = up;
type = BottomGhost;
}
);
layerId = m01;
shapes = (
{
closed = 1;
nodes = (
(389,366,ls),
(379,366,o),
(373,361,o),
(371,351,cs),
(360,289,l),
(524,289,l),
(521,271,ls),
(497,134,o),
(394,73,o),
(277,73,cs),
(114,73,o),
(57,189,o),
(86,352,cs),
(115,518,o),
(216,624,o),
(372,624,cs),
(481,624,o),
(542,574,o),
(559,482,c),
(633,509,ls),
(643,513,o),
(647,519,o),
(644,528,cs),
(614,643,o),
(528,709,o),
(388,709,cs),
(176,709,o),
(33,557,o),
(-3,350,cs),
(-41,138,o),
(55,-12,o),
(256,-12,cs),
(356,-12,o),
(444,26,o),
(496,95,c),
(491,0,l),
(527,0,l),
(568,50,l),
(624,366,l)
);
}
);
width = 762;
}
);
note = G;
unicode = 71;
},
{
glyphname = Gbreve;
kernLeft = C;
kernRight = G;
lastChange = "2022-12-26 08:51:43 +0000";
layers = (
{
hints = (
{
horizontal = 1;
place = (-135, -38);
place = (-135, -38);
type = Stem;
},
{
horizontal = 1;
place = (166, -46);
place = (166, -46);
type = Stem;
},
{
horizontal = 1;
place = (501, -38);
place = (501, -38);
type = Stem;
},
{
horizontal = 1;
place = (646, -71);
place = (646, -71);
type = Stem;
},
{
place = (-65, -34);
place = (-65, -34);
type = Stem;
},
{
place = (106, -61);
place = (106, -61);
type = Stem;
},
{
place = (350, -61);
place = (350, -61);
type = Stem;
},
{
place = (473, -37);
place = (473, -37);
type = Stem;
},
{
horizontal = 1;
place = (-123, 21);
target = up;
type = BottomGhost;
}
);
layerId = m01;
shapes = (
{
closed = 1;
nodes = (
(494,769,o),
(555,813,o),
(571,901,c),
(509,901,l),
(500,849,o),
(460,821,o),
(404,821,cs),
(350,821,o),
(317,847,o),
(327,901,c),
(265,901,l),
(250,816,o),
(292,769,o),
(395,769,cs)
);
},
{
closed = 1;
nodes = (
(374,366,l),
(360,289,l),
(524,289,l),
(521,271,ls),
(497,134,o),
(394,73,o),
(277,73,cs),
(114,73,o),
(57,189,o),
(86,352,cs),
(115,518,o),
(216,624,o),
(372,624,cs),
(481,624,o),
(542,574,o),
(559,482,c),
(648,514,l),
(622,638,o),
(533,709,o),
(388,709,cs),
(176,709,o),
(33,557,o),
(-3,350,cs),
(-41,138,o),
(55,-12,o),
(256,-12,cs),
(356,-12,o),
(444,26,o),
(496,95,c),
(491,0,l),
(559,0,l),
(624,366,l)
);
}
);
width = 762;
}
);
note = Gbreve;
unicode = 286;
},
{
glyphname = uni0122;
kernLeft = C;
kernRight = G;
lastChange = "2022-12-26 08:51:43 +0000";
layers = (
{
hints = (
{
horizontal = 1;
place = (-135, -38);
place = (-135, -38);
type = Stem;
},
{
horizontal = 1;
place = (166, -46);
place = (166, -46);
type = Stem;
},
{
horizontal = 1;
place = (501, -38);
place = (501, -38);
type = Stem;
},
{
place = (-65, -34);
place = (-65, -34);
type = Stem;
},
{
place = (473, -37);
place = (473, -37);
type = Stem;
},
{
horizontal = 1;
place = (-346, 45);
place = (-346, 45);
type = Stem;
},
{
horizontal = 1;
place = (-123, 21);
target = up;
type = BottomGhost;
}
);
layerId = m01;
shapes = (
{
closed = 1;
nodes = (
(374,366,l),
(360,289,l),
(524,289,l),
(521,271,ls),
(497,134,o),
(394,73,o),
(277,73,cs),
(114,73,o),
(57,189,o),
(86,352,cs),
(115,518,o),
(216,624,o),
(372,624,cs),
(481,624,o),
(542,574,o),
(559,482,c),
(648,514,l),
(622,638,o),
(533,709,o),
(388,709,cs),
(176,709,o),
(33,557,o),
(-3,350,cs),
(-41,138,o),
(55,-12,o),
(256,-12,cs),
(356,-12,o),
(444,26,o),
(496,95,c),
(491,0,l),
(559,0,l),
(624,366,l)
);
},
{
closed = 1;
nodes = (
(93,-223,l),
(146,-223,l),
(294,-55,l),
(203,-55,l)
);
}
);
width = 762;
}
);
note = uni0122;
unicode = 290;
},
{
glyphname = Gdotaccent;
kernLeft = C;
kernRight = G;
lastChange = "2022-12-26 08:51:43 +0000";
layers = (
{
hints = (
{
horizontal = 1;
place = (-135, -38);
place = (-135, -38);
type = Stem;
},
{
horizontal = 1;
place = (166, -46);
place = (166, -46);
type = Stem;
},
{
horizontal = 1;
place = (501, -38);
place = (501, -38);
type = Stem;
},
{
horizontal = 1;
place = (673, -18);
place = (673, -18);
type = Stem;
},
{
place = (-65, -34);
place = (-65, -34);
type = Stem;
},
{
place = (211, -27);
place = (211, -27);
type = Stem;
},
{
place = (473, -37);
place = (473, -37);
type = Stem;
},
{
horizontal = 1;
place = (-123, 21);
target = up;
type = BottomGhost;
}
);
layerId = m01;
shapes = (
{
closed = 1;
nodes = (
(466,901,l),
(370,901,l),
(351,796,l),
(447,796,l)
);
},
{
closed = 1;
nodes = (
(374,366,l),
(360,289,l),
(524,289,l),
(521,271,ls),
(497,134,o),
(394,73,o),
(277,73,cs),
(114,73,o),
(57,189,o),
(86,352,cs),
(115,518,o),
(216,624,o),
(372,624,cs),
(481,624,o),
(542,574,o),
(559,482,c),
(648,514,l),
(622,638,o),
(533,709,o),
(388,709,cs),
(176,709,o),
(33,557,o),
(-3,350,cs),
(-41,138,o),
(55,-12,o),
(256,-12,cs),
(356,-12,o),
(444,26,o),
(496,95,c),
(491,0,l),
(559,0,l),
(624,366,l)
);
}
);
width = 762;
}
);
note = Gdotaccent;
unicode = 288;
},
{
glyphname = H;
kernLeft = B;
kernRight = H;
lastChange = "2022-12-26 08:51:43 +0000";
layers = (
{
hints = (
{
horizontal = 1;
place = (-123, 21);
target = up;
type = BottomGhost;
},
{
horizontal = 1;
place = (192, -40);
place = (192, -40);
type = Stem;
},
{
horizontal = 1;
place = (574, -20);
target = down;
type = TopGhost;
},
{
place = (-18, -34);
place = (-18, -34);
type = Stem;
},
{
place = (414, -33);
place = (414, -33);
type = Stem;
}
);
layerId = m01;
shapes = (
{
closed = 1;
nodes = (
(-18,0,l),
(71,0,l),
(127,315,l),
(470,315,l),
(414,0,l),
(504,0,l),
(627,697,l),
(537,697,l),
(484,398,l),
(141,398,l),
(194,697,l),
(105,697,l)
);
}
);
width = 732;
}
);
note = H;
unicode = 72;
},
{
glyphname = Hbar;
kernLeft = B;
kernRight = H;
lastChange = "2022-12-26 08:51:43 +0000";
layers = (
{
hints = (
{
horizontal = 1;
place = (-123, 21);
target = up;
type = BottomGhost;
},
{
horizontal = 1;
place = (192, -40);
place = (192, -40);
type = Stem;
},
{
horizontal = 1;
place = (398, -71);
place = (398, -71);
type = Stem;
},
{
place = (-18, -34);
place = (-18, -34);
type = Stem;
},
{
place = (414, -33);
place = (414, -33);
type = Stem;
},
{
horizontal = 1;
place = (398, 53);
place = (398, 53);
type = Stem;
}
);
layerId = m01;
shapes = (
{
closed = 1;
nodes = (
(665,573,l),
(605,573,l),
(627,697,l),
(537,697,l),
(515,573,l),
(172,573,l),
(194,697,l),
(105,697,l),
(83,573,l),
(23,573,l),
(14,521,l),
(74,521,l),
(-18,0,l),
(71,0,l),
(127,315,l),
(470,315,l),
(414,0,l),
(504,0,l),
(596,521,l),
(656,521,l)
);
},
{
closed = 1;
nodes = (
(484,398,l),
(141,398,l),
(163,521,l),
(506,521,l)
);
}
);
width = 732;
}
);
note = Hbar;
unicode = 294;
},
{
glyphname = I;
kernLeft = B;
kernRight = H;
lastChange = "2022-12-26 08:51:43 +0000";
layers = (
{
hints = (
{
horizontal = 1;
place = (-123, 21);
target = up;
type = BottomGhost;
},
{
horizontal = 1;
place = (574, -20);
target = down;
type = TopGhost;
},
{
place = (-18, -34);
place = (-18, -34);
type = Stem;
}
);
layerId = m01;
shapes = (
{
closed = 1;
nodes = (
(-18,0,l),
(71,0,l),
(194,697,l),
(105,697,l)
);
}
);
width = 300;
}
);
note = I;
unicode = 73;
},
{
glyphname = Iacute;
kernLeft = B;
kernRight = H;
lastChange = "2022-12-26 08:51:43 +0000";
layers = (
{
hints = (
{
horizontal = 1;
place = (-123, 21);
target = up;
type = BottomGhost;
},
{
horizontal = 1;
place = (574, -20);
target = down;
type = TopGhost;
},
{
horizontal = 1;
place = (637, 18);
place = (637, 18);
type = Stem;
},
{
place = (-18, -34);
place = (-18, -34);
type = Stem;
}
);
layerId = m01;
shapes = (
{
closed = 1;
nodes = (
(130,760,l),
(194,760,l),
(356,901,l),
(264,901,l)
);
},
{
closed = 1;
nodes = (
(-18,0,l),
(71,0,l),
(194,697,l),
(105,697,l)
);
}
);
width = 300;
}
);
note = Iacute;
unicode = 205;
},
{
glyphname = uni01CF;
lastChange = "2022-12-26 08:51:43 +0000";
layers = (
{
hints = (
{
horizontal = 1;
place = (-123, 21);
target = up;
type = BottomGhost;
},
{
horizontal = 1;
place = (574, -20);
target = down;
type = TopGhost;
},
{
place = (-18, -34);
place = (-18, -34);
type = Stem;
}
);
layerId = m01;
shapes = (
{
closed = 1;
nodes = (
(158,744,l),
(337,901,l),
(268,901,l),
(171,815,l),
(104,901,l),
(35,901,l)
);
},
{
closed = 1;
nodes = (
(-18,0,l),
(71,0,l),
(194,697,l),
(105,697,l)
);
}
);
width = 300;
}
);
note = uni01CF;
unicode = 463;
},
{
glyphname = Icircumflex;
kernLeft = B;
kernRight = H;
lastChange = "2022-12-26 08:51:43 +0000";
layers = (
{
hints = (
{
horizontal = 1;
place = (-123, 21);
target = up;
type = BottomGhost;
},
{
horizontal = 1;
place = (574, -20);
target = down;
type = TopGhost;
},
{
place = (-18, -34);
place = (-18, -34);
type = Stem;
}
);
layerId = m01;
shapes = (
{
closed = 1;
nodes = (
(8,750,l),
(77,750,l),
(175,839,l),
(241,750,l),
(310,750,l),
(188,914,l)
);
},
{
closed = 1;
nodes = (
(-18,0,l),
(71,0,l),
(194,697,l),
(105,697,l)
);
}
);
width = 300;
}
);
note = Icircumflex;
unicode = 206;
},
{
glyphname = Idieresis;
kernLeft = B;
kernRight = H;
lastChange = "2022-12-26 08:51:43 +0000";
layers = (
{
hints = (
{
horizontal = 1;
place = (-123, 21);
target = up;
type = BottomGhost;
},
{
horizontal = 1;
place = (574, -20);
target = down;
type = TopGhost;
},
{
horizontal = 1;
place = (673, -18);
place = (673, -18);
type = Stem;
},
{
place = (-109, -36);
place = (-109, -36);
type = Stem;
},
{
place = (76, -36);
place = (76, -36);
type = Stem;
},
{
place = (-18, -34);
place = (-18, -34);
type = Stem;
}
);
layerId = m01;
shapes = (
{
closed = 1;
nodes = (
(31,796,l),
(118,796,l),
(137,901,l),
(50,901,l)
);
},
{
closed = 1;
nodes = (
(216,796,l),
(303,796,l),
(322,901,l),
(235,901,l)
);
},
{
closed = 1;
nodes = (
(-18,0,l),
(71,0,l),
(194,697,l),
(105,697,l)
);
}
);
width = 300;
}
);
note = Idieresis;
unicode = 207;
},
{
glyphname = Idotaccent;
kernLeft = B;
kernRight = H;
lastChange = "2022-12-26 08:51:43 +0000";
layers = (
{
hints = (
{
horizontal = 1;
place = (-123, 21);
target = up;
type = BottomGhost;
},
{
horizontal = 1;
place = (574, -20);
target = down;
type = TopGhost;
},
{
horizontal = 1;
place = (673, -18);
place = (673, -18);
type = Stem;
},
{
place = (-21, -27);
place = (-21, -27);
type = Stem;
},
{
place = (-18, -34);
place = (-18, -34);
type = Stem;
}
);
layerId = m01;
shapes = (
{
closed = 1;
nodes = (
(119,796,l),
(215,796,l),
(234,901,l),
(138,901,l)
);
},
{
closed = 1;
nodes = (
(-18,0,l),
(71,0,l),
(194,697,l),
(105,697,l)
);
}
);
width = 300;
}
);
note = Idotaccent;
unicode = 304;
},
{
glyphname = uni1ECA;
lastChange = "2022-12-26 08:51:43 +0000";
layers = (
{
hints = (
{
horizontal = 1;
place = (-296, -19);
place = (-296, -19);
type = Stem;
},
{
horizontal = 1;
place = (-123, 21);
target = up;
type = BottomGhost;
},
{
horizontal = 1;
place = (574, -20);
target = down;
type = TopGhost;
},
{
place = (-18, -34);
place = (-18, -34);
type = Stem;
},
{
place = (-21, -31);
place = (-21, -31);
type = Stem;
},
{
place = (-18, -30);
place = (-18, -30);
type = Stem;
}
);
layerId = m01;
shapes = (
{
closed = 1;
nodes = (
(-18,0,l),
(71,0,l),
(194,697,l),
(105,697,l)
);
},
{
closed = 1;
nodes = (
(-51,-173,l),
(45,-173,l),
(63,-69,l),
(-33,-69,l)
);
}
);
width = 300;
}
);
note = uni1ECA;
unicode = 7882;
},
{
glyphname = Igrave;
kernLeft = B;
kernRight = H;
lastChange = "2022-12-26 08:51:43 +0000";
layers = (
{
hints = (
{
horizontal = 1;
place = (-123, 21);
target = up;
type = BottomGhost;
},
{
horizontal = 1;
place = (574, -20);
target = down;
type = TopGhost;
},
{
horizontal = 1;
place = (637, 18);
place = (637, 18);
type = Stem;
},
{
place = (-18, -34);
place = (-18, -34);
type = Stem;
}
);
layerId = m01;
shapes = (
{
closed = 1;
nodes = (
(128,760,l),
(194,760,l),
(115,901,l),
(23,901,l)
);
},
{
closed = 1;
nodes = (
(-18,0,l),
(71,0,l),
(194,697,l),
(105,697,l)
);
}
);
width = 300;
}
);
note = Igrave;
unicode = 204;
},
{
glyphname = uni1EC8;
lastChange = "2022-12-26 08:51:43 +0000";
layers = (
{
hints = (
{
horizontal = 1;
place = (-123, 21);
target = up;
type = BottomGhost;
},
{
horizontal = 1;
place = (574, -20);
target = down;
type = TopGhost;
},
{
horizontal = 1;
place = (750, -74);
place = (750, -74);
type = Stem;
},
{
place = (-18, -34);
place = (-18, -34);
type = Stem;
},
{
place = (81, -66);
place = (81, -66);
type = Stem;
}
);
layerId = m01;
shapes = (
{
closed = 1;
nodes = (
(150,736,l),
(201,745,o),
(272,757,o),
(283,824,cs),
(295,888,o),
(241,922,o),
(158,922,cs),
(143,922,l),
(134,873,l),
(149,873,ls),
(192,873,o),
(233,863,o),
(227,825,cs),
(220,790,o),
(181,784,o),
(144,778,c)
);
},
{
closed = 1;
nodes = (
(-18,0,l),
(71,0,l),
(194,697,l),
(105,697,l)
);
}
);
width = 300;
}
);
note = uni1EC8;
unicode = 7880;
},
{
glyphname = Imacron;
kernLeft = B;
kernRight = H;
lastChange = "2022-12-26 08:51:43 +0000";
layers = (
{
hints = (
{
horizontal = 1;
place = (-123, 21);
target = up;
type = BottomGhost;
},
{
horizontal = 1;
place = (574, -20);
target = down;
type = TopGhost;
},
{
horizontal = 1;
place = (669, -72);
place = (669, -72);
type = Stem;
},
{
place = (-18, -34);
place = (-18, -34);
type = Stem;
}
);
layerId = m01;
shapes = (
{
closed = 1;
nodes = (
(31,792,l),
(303,792,l),
(312,843,l),
(40,843,l)
);
},
{
closed = 1;
nodes = (
(-18,0,l),
(71,0,l),
(194,697,l),
(105,697,l)
);
}
);
width = 300;
}
);
note = Imacron;
unicode = 298;
},
{
glyphname = Iogonek;
kernLeft = B;
kernRight = H;
lastChange = "2022-12-26 08:51:43 +0000";
layers = (
{
hints = (
{
horizontal = 1;
place = (-340, -68);
place = (-340, -68);
type = Stem;
},
{
horizontal = 1;
place = (-123, 21);
target = up;
type = BottomGhost;
},
{
horizontal = 1;
place = (574, -20);
target = down;
type = TopGhost;
},
{
place = (-18, -34);
place = (-18, -34);
type = Stem;
},
{
place = (-83, -71);
place = (-83, -71);
type = Stem;
}
);
layerId = m01;
shapes = (
{
closed = 1;
nodes = (
(46,-135,l),
(26,-152,o),
(7,-162,o),
(-16,-162,cs),
(-38,-162,o),
(-58,-151,o),
(-52,-119,cs),
(-41,-55,o),
(41,-15,o),
(71,0,c),
(194,697,l),
(105,697,l),
(-18,0,l),
(1,0,l),
(-41,-23,o),
(-95,-68,o),
(-105,-127,cs),
(-115,-182,o),
(-79,-217,o),
(-23,-217,cs),
(18,-217,o),
(55,-196,o),
(84,-167,c)
);
}
);
width = 300;
}
);
note = Iogonek;
unicode = 302;
},
{
glyphname = Itilde;
lastChange = "2022-12-26 08:51:43 +0000";
layers = (
{
hints = (
{
horizontal = 1;
place = (-123, 21);
target = up;
type = BottomGhost;
},
{
horizontal = 1;
place = (574, -20);
target = down;
type = TopGhost;
},
{
horizontal = 1;
place = (646, -68);
place = (646, -68);
type = Stem;
},
{
horizontal = 1;
place = (728, -69);
place = (728, -69);
type = Stem;
},
{
place = (-134, -73);
place = (-134, -73);
type = Stem;
},
{
place = (-18, -34);
place = (-18, -34);
type = Stem;
},
{
place = (136, -71);
place = (136, -71);
type = Stem;
}
);
layerId = m01;
shapes = (
{
closed = 1;
nodes = (
(287,769,o),
(332,818,o),
(347,901,c),
(295,901,l),
(287,853,o),
(263,824,o),
(240,824,cs),
(192,824,o),
(196,905,o),
(123,905,cs),
(64,905,o),
(17,858,o),
(3,776,c),
(53,776,l),
(61,823,o),
(83,851,o),
(110,851,cs),
(158,851,o),
(149,769,o),
(231,769,cs)
);
},
{
closed = 1;
nodes = (
(-18,0,l),
(71,0,l),
(194,697,l),
(105,697,l)
);
}
);
width = 300;
}
);
note = Itilde;
unicode = 296;
},
{
glyphname = J;
kernLeft = J;
kernRight = J;
lastChange = "2022-12-26 08:51:43 +0000";
layers = (
{
hints = (
{
horizontal = 1;
place = (-135, -39);
place = (-135, -39);
type = Stem;
},
{
horizontal = 1;
place = (492, -41);
place = (492, -41);
type = Stem;
},
{
place = (-92, -35);
place = (-92, -35);
type = Stem;
},
{
place = (272, -34);
place = (272, -34);
type = Stem;
}
);
layerId = m01;
shapes = (
{
closed = 1;
nodes = (
(-40,210,ls),
(-50,209,o),
(-56,203,o),
(-57,193,cs),
(-65,64,o),
(7,-12,o),
(134,-12,cs),
(275,-12,o),
(376,82,o),
(405,247,cs),
(484,697,l),
(159,697,l),
(112,656,l),
(105,615,l),
(381,615,l),
(317,252,ls),
(295,130,o),
(240,72,o),
(149,72,cs),
(64,72,o),
(25,122,o),
(35,218,c)
);
}
);
width = 576;
}
);
note = J;
unicode = 74;
},
{
glyphname = K;
kernLeft = B;
kernRight = K;
lastChange = "2022-12-26 08:51:43 +0000";
layers = (
{
hints = (
{
horizontal = 1;
place = (-123, 21);
target = up;
type = BottomGhost;
},
{
horizontal = 1;
place = (574, -20);
target = down;
type = TopGhost;
},
{
place = (-18, -34);
place = (-18, -34);
type = Stem;
}
);
layerId = m01;
shapes = (
{
closed = 1;
nodes = (
(501,0,ls),
(511,0,o),
(514,4,o),
(510,13,cs),
(341,410,l),
(670,697,l),
(553,697,l),
(128,324,l),
(194,697,l),
(155,697,l),
(96,647,l),
(-18,0,l),
(71,0,l),
(108,211,l),
(270,349,l),
(413,0,l)
);
}
);
width = 709;
}
);
note = K;
unicode = 75;
},
{
glyphname = uni0136;
kernLeft = B;
kernRight = K;
lastChange = "2022-12-26 08:51:43 +0000";
layers = (
{
hints = (
{
horizontal = 1;
place = (-346, 45);
place = (-346, 45);
type = Stem;
},
{
horizontal = 1;
place = (-123, 21);
target = up;
type = BottomGhost;
},
{
horizontal = 1;
place = (574, -20);
target = down;
type = TopGhost;
},
{
place = (-18, -34);
place = (-18, -34);
type = Stem;
}
);
layerId = m01;
shapes = (
{
closed = 1;
nodes = (
(373,439,l),
(670,697,l),
(553,697,l),
(128,324,l),
(194,697,l),
(105,697,l),
(-18,0,l),
(71,0,l),
(108,211,l),
(301,378,l),
(456,0,l),
(559,0,l)
);
},
{
closed = 1;
nodes = (
(66,-223,l),
(119,-223,l),
(267,-55,l),
(176,-55,l)
);
}
);
width = 709;
}
);
note = uni0136;
unicode = 310;
},
{
glyphname = L;
kernLeft = B;
kernRight = L;
lastChange = "2022-12-26 08:51:43 +0000";
layers = (
{
hints = (
{
horizontal = 1;
place = (-123, -41);
place = (-123, -41);
type = Stem;
},
{
horizontal = 1;
place = (574, -20);
target = down;
type = TopGhost;
},
{
place = (-18, -34);
place = (-18, -34);
type = Stem;
}
);
layerId = m01;
shapes = (
{
closed = 1;
nodes = (
(-18,0,l),
(383,0,l),
(398,82,l),
(86,82,l),
(194,697,l),
(105,697,l)
);
}
);
width = 531;
}
);
note = L;
unicode = 76;
},
{
glyphname = Lacute;
kernLeft = B;
kernRight = L;
lastChange = "2022-12-26 08:51:43 +0000";
layers = (
{
hints = (
{
horizontal = 1;
place = (-123, -41);
place = (-123, -41);
type = Stem;
},
{
horizontal = 1;
place = (574, -20);
target = down;
type = TopGhost;
},
{
horizontal = 1;
place = (637, 18);
place = (637, 18);
type = Stem;
},
{
place = (-18, -34);
place = (-18, -34);
type = Stem;
}
);
layerId = m01;
shapes = (
{
closed = 1;
nodes = (
(130,760,l),
(194,760,l),
(356,901,l),
(264,901,l)
);
},
{
closed = 1;
nodes = (
(-18,0,l),
(383,0,l),
(398,82,l),
(86,82,l),
(194,697,l),
(105,697,l)
);
}
);
width = 531;
}
);
note = Lacute;
unicode = 313;
},
{
glyphname = Lcaron;
kernLeft = B;
kernRight = L;
lastChange = "2022-12-26 08:51:43 +0000";
layers = (
{
hints = (
{
horizontal = 1;
place = (-123, -41);
place = (-123, -41);
type = Stem;
},
{
horizontal = 1;
place = (574, -20);
target = down;
type = TopGhost;
},
{
place = (-18, -34);
place = (-18, -34);
type = Stem;
},
{
horizontal = 1;
place = (361, 90);
place = (361, 90);
type = Stem;
}
);
layerId = m01;
shapes = (
{
closed = 1;
nodes = (
(-18,0,l),
(383,0,l),
(398,82,l),
(86,82,l),
(194,697,l),
(105,697,l)
);
},
{
closed = 1;
nodes = (
(300,484,l),
(351,484,l),
(485,697,l),
(395,697,l)
);
}
);
width = 531;
}
);
note = Lcaron;
unicode = 317;
},
{
glyphname = uni013B;
kernLeft = B;
kernRight = L;
lastChange = "2022-12-26 08:51:43 +0000";
layers = (
{
hints = (
{
horizontal = 1;
place = (-346, 45);
place = (-346, 45);
type = Stem;
},
{
horizontal = 1;
place = (-123, -41);
place = (-123, -41);
type = Stem;
},
{
horizontal = 1;
place = (574, -20);
target = down;
type = TopGhost;
},
{
place = (-18, -34);
place = (-18, -34);
type = Stem;
}
);
layerId = m01;
shapes = (
{
closed = 1;
nodes = (
(-18,0,l),
(383,0,l),
(398,82,l),
(86,82,l),
(194,697,l),
(105,697,l)
);
},
{
closed = 1;
nodes = (
(17,-223,l),
(70,-223,l),
(218,-55,l),
(127,-55,l)
);
}
);
width = 531;
}
);
note = uni013B;
unicode = 315;
},
{
glyphname = Lslash;
lastChange = "2022-12-26 08:51:43 +0000";
layers = (
{
hints = (
{
horizontal = 1;
place = (-123, -41);
place = (-123, -41);
type = Stem;
},
{
horizontal = 1;
place = (574, -20);
target = down;
type = TopGhost;
},
{
place = (-18, -34);
place = (-18, -34);
type = Stem;
}
);
layerId = m01;
shapes = (
{
closed = 1;
nodes = (
(86,82,l),
(125,305,l),
(296,424,l),
(311,512,l),
(141,394,l),
(194,697,l),
(105,697,l),
(39,323,l),
(-24,280,l),
(-39,191,l),
(24,235,l),
(-18,0,l),
(383,0,l),
(398,82,l)
);
}
);
width = 531;
}
);
note = Lslash;
unicode = 321;
},
{
glyphname = M;
kernLeft = B;
kernRight = H;
lastChange = "2022-12-26 08:51:43 +0000";
layers = (
{
hints = (
{
horizontal = 1;
place = (-123, 21);
target = up;
type = BottomGhost;
},
{
horizontal = 1;
place = (574, -20);
target = down;
type = TopGhost;
},
{
place = (-18, -34);
place = (-18, -34);
type = Stem;
},
{
place = (574, -33);
place = (574, -33);
type = Stem;
},
{
horizontal = 1;
place = (455, -4);
place = (455, -4);
type = Stem;
},
{
horizontal = 1;
place = (453, -2);
place = (453, -2);
type = Stem;
}
);
layerId = m01;
shapes = (
{
closed = 1;
nodes = (
(56,0,ls),
(66,0,o),
(72,5,o),
(74,15,cs),
(173,578,l),
(291,59,l),
(378,59,l),
(676,576,l),
(577,15,ls),
(575,5,o),
(579,0,o),
(589,0,cs),
(664,0,l),
(787,697,l),
(658,697,l),
(351,161,l),
(234,697,l),
(105,697,l),
(-18,0,l)
);
}
);
width = 892;
}
);
note = M;
unicode = 77;
},
{
glyphname = N;
kernLeft = B;
kernRight = H;
lastChange = "2022-12-26 08:51:43 +0000";
layers = (
{
hints = (
{
horizontal = 1;
place = (-123, 21);
target = up;
type = BottomGhost;
},
{
horizontal = 1;
place = (574, -20);
target = down;
type = TopGhost;
},
{
place = (-18, -34);
place = (-18, -34);
type = Stem;
},
{
place = (404, -34);
place = (404, -34);
type = Stem;
}
);
layerId = m01;
shapes = (
{
closed = 1;
nodes = (
(527,697,l),
(431,154,l),
(200,697,l),
(105,697,l),
(-18,0,l),
(27,0,l),
(80,50,l),
(167,545,l),
(397,0,l),
(493,0,l),
(616,697,l)
);
}
);
width = 721;
}
);
note = N;
unicode = 78;
},
{
glyphname = Nacute;
kernLeft = B;
kernRight = H;
lastChange = "2022-12-26 08:51:43 +0000";
layers = (
{
hints = (
{
horizontal = 1;
place = (-123, 21);
target = up;
type = BottomGhost;
},
{
horizontal = 1;
place = (574, -20);
target = down;
type = TopGhost;
},
{
horizontal = 1;
place = (637, 18);
place = (637, 18);
type = Stem;
},
{
place = (-18, -34);
place = (-18, -34);
type = Stem;
},
{
place = (404, -34);
place = (404, -34);
type = Stem;
}
);
layerId = m01;
shapes = (
{
closed = 1;
nodes = (
(566,901,l),
(474,901,l),
(340,760,l),
(404,760,l)
);
},
{
closed = 1;
nodes = (
(527,697,l),
(431,154,l),
(200,697,l),
(105,697,l),
(-18,0,l),
(71,0,l),
(167,545,l),
(397,0,l),
(493,0,l),
(616,697,l)
);
}
);
width = 721;
}
);
note = Nacute;
unicode = 323;
},
{
glyphname = Ncaron;
kernLeft = B;
kernRight = H;
lastChange = "2022-12-26 08:51:43 +0000";
layers = (
{
hints = (
{
horizontal = 1;
place = (-123, 21);
target = up;
type = BottomGhost;
},
{
horizontal = 1;
place = (574, -20);
target = down;
type = TopGhost;
},
{
place = (-18, -34);
place = (-18, -34);
type = Stem;
},
{
place = (404, -34);
place = (404, -34);
type = Stem;
}
);
layerId = m01;
shapes = (
{
closed = 1;
nodes = (
(548,901,l),
(479,901,l),
(382,815,l),
(315,901,l),
(246,901,l),
(369,744,l)
);
},
{
closed = 1;
nodes = (
(527,697,l),
(431,154,l),
(200,697,l),
(105,697,l),
(-18,0,l),
(71,0,l),
(167,545,l),
(397,0,l),
(493,0,l),
(616,697,l)
);
}
);
width = 721;
}
);
note = Ncaron;
unicode = 327;
},
{
glyphname = uni0145;
kernLeft = B;
kernRight = H;
lastChange = "2022-12-26 08:51:43 +0000";
layers = (
{
hints = (
{
horizontal = 1;
place = (-346, 45);
place = (-346, 45);
type = Stem;
},
{
horizontal = 1;
place = (-123, 21);
target = up;
type = BottomGhost;
},
{
horizontal = 1;
place = (574, -20);
target = down;
type = TopGhost;
},
{
place = (-18, -34);
place = (-18, -34);
type = Stem;
},
{
place = (404, -34);
place = (404, -34);
type = Stem;
}
);
layerId = m01;
shapes = (
{
closed = 1;
nodes = (
(527,697,l),
(431,154,l),
(200,697,l),
(105,697,l),
(-18,0,l),
(71,0,l),
(167,545,l),
(397,0,l),
(493,0,l),
(616,697,l)
);
},
{
closed = 1;
nodes = (
(72,-223,l),
(125,-223,l),
(273,-55,l),
(182,-55,l)
);
}
);
width = 721;
}
);
note = uni0145;
unicode = 325;
},
{
glyphname = Eng;
kernLeft = B;
kernRight = H;
lastChange = "2022-12-26 08:51:43 +0000";
layers = (
{
hints = (
{
horizontal = 1;
place = (-298, -63);
place = (-298, -63);
type = Stem;
},
{
horizontal = 1;
place = (-123, 21);
target = up;
type = BottomGhost;
},
{
horizontal = 1;
place = (574, -20);
target = down;
type = TopGhost;
},
{
place = (-18, -34);
place = (-18, -34);
type = Stem;
},
{
place = (404, -34);
place = (404, -34);
type = Stem;
},
{
place = (408, -38);
place = (408, -38);
type = Stem;
}
);
layerId = m01;
shapes = (
{
closed = 1;
nodes = (
(527,697,l),
(432,156,l),
(200,697,l),
(105,697,l),
(-18,0,l),
(71,0,l),
(167,542,l),
(397,0,ls),
(402,-11,o),
(404,-25,o),
(402,-37,cs),
(394,-78,o),
(361,-115,o),
(296,-115,cs),
(284,-115,o),
(265,-112,o),
(250,-108,c),
(239,-165,l),
(262,-172,o),
(287,-175,o),
(307,-175,cs),
(420,-175,o),
(476,-98,o),
(492,-9,cs),
(616,697,l)
);
}
);
width = 721;
}
);
note = Eng;
unicode = 330;
},
{
glyphname = Ntilde;
kernLeft = B;
kernRight = H;
lastChange = "2022-12-26 08:51:43 +0000";
layers = (
{
hints = (
{
horizontal = 1;
place = (-123, 21);
target = up;
type = BottomGhost;
},
{
horizontal = 1;
place = (574, -20);
target = down;
type = TopGhost;
},
{
horizontal = 1;
place = (728, -69);
place = (728, -69);
type = Stem;
},
{
place = (76, -73);
place = (76, -73);
type = Stem;
},
{
place = (346, -71);
place = (346, -71);
type = Stem;
},
{
horizontal = 1;
place = (646, -68);
place = (646, -68);
type = Stem;
},
{
place = (404, -34);
place = (404, -34);
type = Stem;
},
{
place = (-18, -34);
place = (-18, -34);
type = Stem;
}
);
layerId = m01;
shapes = (
{
closed = 1;
nodes = (
(368,851,o),
(359,769,o),
(441,769,cs),
(497,769,o),
(542,818,o),
(557,901,c),
(505,901,l),
(497,853,o),
(473,824,o),
(450,824,cs),
(402,824,o),
(406,905,o),
(333,905,cs),
(274,905,o),
(227,858,o),
(213,776,c),
(263,776,l),
(271,823,o),
(293,851,o),
(320,851,cs)
);
},
{
closed = 1;
nodes = (
(527,697,l),
(431,154,l),
(200,697,l),
(105,697,l),
(-18,0,l),
(71,0,l),
(167,545,l),
(397,0,l),
(493,0,l),
(616,697,l)
);
}
);
width = 721;
}
);
note = Ntilde;
unicode = 209;
},
{
glyphname = O;
kernLeft = C;
kernRight = D;
lastChange = "2022-12-26 08:51:43 +0000";
layers = (
{
hints = (
{
horizontal = 1;
place = (-135, -38);
place = (-135, -38);
type = Stem;
},
{
horizontal = 1;
place = (501, -38);
place = (501, -38);
type = Stem;
},
{
place = (-65, -34);
place = (-65, -34);
type = Stem;
},
{
place = (493, -34);
place = (493, -34);
type = Stem;
}
);
layerId = m01;
shapes = (
{
closed = 1;
nodes = (
(450,-12,o),
(605,132,o),
(643,348,cs),
(682,565,o),
(577,709,o),
(383,709,cs),
(190,709,o),
(35,565,o),
(-4,348,cs),
(-42,132,o),
(63,-12,o),
(256,-12,cs)
);
},
{
closed = 1;
nodes = (
(125,54,o),
(56,180,o),
(85,348,cs),
(115,517,o),
(228,641,o),
(371,641,cs),
(514,641,o),
(584,517,o),
(554,348,cs),
(525,180,o),
(411,54,o),
(268,54,cs)
);
}
);
width = 763;
}
);
note = O;
unicode = 79;
},
{
glyphname = Oacute;
kernLeft = C;
kernRight = D;
lastChange = "2022-12-26 08:51:43 +0000";
layers = (
{
hints = (
{
horizontal = 1;
place = (-135, -38);
place = (-135, -38);
type = Stem;
},
{
horizontal = 1;
place = (501, -38);
place = (501, -38);
type = Stem;
},
{
horizontal = 1;
place = (637, 18);
place = (637, 18);
type = Stem;
},
{
place = (-65, -34);
place = (-65, -34);
type = Stem;
},
{
place = (493, -34);
place = (493, -34);
type = Stem;
}
);
layerId = m01;
shapes = (
{
closed = 1;
nodes = (
(361,760,l),
(425,760,l),
(587,901,l),
(495,901,l)
);
},
{
closed = 1;
nodes = (
(450,-12,o),
(605,132,o),
(643,348,cs),
(682,565,o),
(577,709,o),
(383,709,cs),
(190,709,o),
(35,565,o),
(-4,348,cs),
(-42,132,o),
(63,-12,o),
(256,-12,cs)
);
},
{
closed = 1;
nodes = (
(128,73,o),
(56,180,o),
(85,348,cs),
(115,517,o),
(225,624,o),
(368,624,cs),
(511,624,o),
(584,517,o),
(554,348,cs),
(525,180,o),
(414,73,o),
(271,73,cs)
);
}
);
width = 763;
}
);
note = Oacute;
unicode = 211;
},
{
glyphname = uni01D1;
kernLeft = C;
kernRight = D;
lastChange = "2022-12-26 08:51:43 +0000";
layers = (
{
hints = (
{
horizontal = 1;
place = (-135, -38);
place = (-135, -38);
type = Stem;
},
{
horizontal = 1;
place = (501, -38);
place = (501, -38);
type = Stem;
},
{
place = (-65, -34);
place = (-65, -34);
type = Stem;
},
{
place = (493, -34);
place = (493, -34);
type = Stem;
}
);
layerId = m01;
shapes = (
{
closed = 1;
nodes = (
(389,744,l),
(568,901,l),
(499,901,l),
(402,815,l),
(335,901,l),
(266,901,l)
);
},
{
closed = 1;
nodes = (
(450,-12,o),
(605,132,o),
(643,348,cs),
(682,565,o),
(577,709,o),
(383,709,cs),
(190,709,o),
(35,565,o),
(-4,348,cs),
(-42,132,o),
(63,-12,o),
(256,-12,cs)
);
},
{
closed = 1;
nodes = (
(128,73,o),
(56,180,o),
(85,348,cs),
(115,517,o),
(225,624,o),
(368,624,cs),
(511,624,o),
(584,517,o),
(554,348,cs),
(525,180,o),
(414,73,o),
(271,73,cs)
);
}
);
width = 763;
}
);
note = uni01D1;
unicode = 465;
},
{
glyphname = Ocircumflex;
kernLeft = C;
kernRight = D;
lastChange = "2022-12-26 08:51:43 +0000";
layers = (
{
hints = (
{
horizontal = 1;
place = (-135, -38);
place = (-135, -38);
type = Stem;
},
{
horizontal = 1;
place = (501, -38);
place = (501, -38);
type = Stem;
},
{
place = (-65, -34);
place = (-65, -34);
type = Stem;
},
{
place = (493, -34);
place = (493, -34);
type = Stem;
}
);
layerId = m01;
shapes = (
{
closed = 1;
nodes = (
(239,750,l),
(308,750,l),
(406,839,l),
(472,750,l),
(541,750,l),
(419,914,l)
);
},
{
closed = 1;
nodes = (
(450,-12,o),
(605,132,o),
(643,348,cs),
(682,565,o),
(577,709,o),
(383,709,cs),
(190,709,o),
(35,565,o),
(-4,348,cs),
(-42,132,o),
(63,-12,o),
(256,-12,cs)
);
},
{
closed = 1;
nodes = (
(128,73,o),
(56,180,o),
(85,348,cs),
(115,517,o),
(225,624,o),
(368,624,cs),
(511,624,o),
(584,517,o),
(554,348,cs),
(525,180,o),
(414,73,o),
(271,73,cs)
);
}
);
width = 763;
}
);
note = Ocircumflex;
unicode = 212;
},
{
glyphname = uni1ED0;
kernLeft = C;
kernRight = D;
lastChange = "2022-12-26 08:51:43 +0000";
layers = (
{
hints = (
{
horizontal = 1;
place = (-135, -38);
place = (-135, -38);
type = Stem;
},
{
horizontal = 1;
place = (501, -38);
place = (501, -38);
type = Stem;
},
{
horizontal = 1;
place = (826, 18);
place = (826, 18);
type = Stem;
},
{
place = (-65, -34);
place = (-65, -34);
type = Stem;
},
{
place = (493, -34);
place = (493, -34);
type = Stem;
}
);
layerId = m01;
shapes = (
{
closed = 1;
nodes = (
(394,949,l),
(458,949,l),
(620,1090,l),
(528,1090,l)
);
},
{
closed = 1;
nodes = (
(239,750,l),
(308,750,l),
(406,839,l),
(472,750,l),
(541,750,l),
(419,914,l)
);
},
{
closed = 1;
nodes = (
(450,-12,o),
(605,132,o),
(643,348,cs),
(682,565,o),
(577,709,o),
(383,709,cs),
(190,709,o),
(35,565,o),
(-4,348,cs),
(-42,132,o),
(63,-12,o),
(256,-12,cs)
);
},
{
closed = 1;
nodes = (
(128,73,o),
(56,180,o),
(85,348,cs),
(115,517,o),
(225,624,o),
(368,624,cs),
(511,624,o),
(584,517,o),
(554,348,cs),
(525,180,o),
(414,73,o),
(271,73,cs)
);
}
);
width = 763;
}
);
note = uni1ED0;
unicode = 7888;
},
{
glyphname = uni1ED8;
kernLeft = C;
kernRight = D;
lastChange = "2022-12-26 08:51:43 +0000";
layers = (
{
hints = (
{
horizontal = 1;
place = (-296, -19);
place = (-296, -19);
type = Stem;
},
{
horizontal = 1;
place = (-135, -38);
place = (-135, -38);
type = Stem;
},
{
horizontal = 1;
place = (501, -38);
place = (501, -38);
type = Stem;
},
{
place = (-65, -34);
place = (-65, -34);
type = Stem;
},
{
place = (210, -27);
place = (210, -27);
type = Stem;
},
{
place = (493, -34);
place = (493, -34);
type = Stem;
}
);
layerId = m01;
shapes = (
{
closed = 1;
nodes = (
(239,750,l),
(308,750,l),
(406,839,l),
(472,750,l),
(541,750,l),
(419,914,l)
);
},
{
closed = 1;
nodes = (
(450,-12,o),
(605,132,o),
(643,348,cs),
(682,565,o),
(577,709,o),
(383,709,cs),
(190,709,o),
(35,565,o),
(-4,348,cs),
(-42,132,o),
(63,-12,o),
(256,-12,cs)
);
},
{
closed = 1;
nodes = (
(128,73,o),
(56,180,o),
(85,348,cs),
(115,517,o),
(225,624,o),
(368,624,cs),
(511,624,o),
(584,517,o),
(554,348,cs),
(525,180,o),
(414,73,o),
(271,73,cs)
);
},
{
closed = 1;
nodes = (
(180,-173,l),
(276,-173,l),
(294,-69,l),
(198,-69,l)
);
}
);
width = 763;
}
);
note = uni1ED8;
unicode = 7896;
},
{
glyphname = uni1ED2;
kernLeft = C;
kernRight = D;
lastChange = "2022-12-26 08:51:43 +0000";
layers = (
{
hints = (
{
horizontal = 1;
place = (-135, -38);
place = (-135, -38);
type = Stem;
},
{
horizontal = 1;
place = (501, -38);
place = (501, -38);
type = Stem;
},
{
horizontal = 1;
place = (826, 18);
place = (826, 18);
type = Stem;
},
{
place = (-65, -34);
place = (-65, -34);
type = Stem;
},
{
place = (493, -34);
place = (493, -34);
type = Stem;
}
);
layerId = m01;
shapes = (
{
closed = 1;
nodes = (
(392,949,l),
(458,949,l),
(379,1090,l),
(287,1090,l)
);
},
{
closed = 1;
nodes = (
(239,750,l),
(308,750,l),
(406,839,l),
(472,750,l),
(541,750,l),
(419,914,l)
);
},
{
closed = 1;
nodes = (
(450,-12,o),
(605,132,o),
(643,348,cs),
(682,565,o),
(577,709,o),
(383,709,cs),
(190,709,o),
(35,565,o),
(-4,348,cs),
(-42,132,o),
(63,-12,o),
(256,-12,cs)
);
},
{
closed = 1;
nodes = (
(128,73,o),
(56,180,o),
(85,348,cs),
(115,517,o),
(225,624,o),
(368,624,cs),
(511,624,o),
(584,517,o),
(554,348,cs),
(525,180,o),
(414,73,o),
(271,73,cs)
);
}
);
width = 763;
}
);
note = uni1ED2;
unicode = 7890;
},
{
glyphname = uni1ED4;
kernLeft = C;
kernRight = D;
lastChange = "2022-12-26 08:51:43 +0000";
layers = (
{
hints = (
{
horizontal = 1;
place = (-135, -38);
place = (-135, -38);
type = Stem;
},
{
horizontal = 1;
place = (501, -38);
place = (501, -38);
type = Stem;
},
{
horizontal = 1;
place = (939, -74);
place = (939, -74);
type = Stem;
},
{
place = (-65, -34);
place = (-65, -34);
type = Stem;
},
{
place = (312, -66);
place = (312, -66);
type = Stem;
},
{
place = (493, -34);
place = (493, -34);
type = Stem;
}
);
layerId = m01;
shapes = (
{
closed = 1;
nodes = (
(414,925,l),
(466,934,o),
(536,946,o),
(548,1013,cs),
(559,1077,o),
(505,1111,o),
(422,1111,cs),
(407,1111,l),
(398,1062,l),
(413,1062,ls),
(456,1062,o),
(498,1052,o),
(491,1014,cs),
(485,979,o),
(446,973,o),
(409,967,c)
);
},
{
closed = 1;
nodes = (
(239,750,l),
(308,750,l),
(406,839,l),
(472,750,l),
(541,750,l),
(419,914,l)
);
},
{
closed = 1;
nodes = (
(450,-12,o),
(605,132,o),
(643,348,cs),
(682,565,o),
(577,709,o),
(383,709,cs),
(190,709,o),
(35,565,o),
(-4,348,cs),
(-42,132,o),
(63,-12,o),
(256,-12,cs)
);
},
{
closed = 1;
nodes = (
(128,73,o),
(56,180,o),
(85,348,cs),
(115,517,o),
(225,624,o),
(368,624,cs),
(511,624,o),
(584,517,o),
(554,348,cs),
(525,180,o),
(414,73,o),
(271,73,cs)
);
}
);
width = 763;
}
);
note = uni1ED4;
unicode = 7892;
},
{
glyphname = uni1ED6;
kernLeft = C;
kernRight = D;
lastChange = "2022-12-26 08:51:43 +0000";
layers = (
{
hints = (
{
horizontal = 1;
place = (-135, -38);
place = (-135, -38);
type = Stem;
},
{
horizontal = 1;
place = (501, -38);
place = (501, -38);
type = Stem;
},
{
horizontal = 1;
place = (835, -68);
place = (835, -68);
type = Stem;
},
{
horizontal = 1;
place = (917, -69);
place = (917, -69);
type = Stem;
},
{
place = (-65, -34);
place = (-65, -34);
type = Stem;
},
{
place = (97, -73);
place = (97, -73);
type = Stem;
},
{
place = (367, -71);
place = (367, -71);
type = Stem;
},
{
place = (493, -34);
place = (493, -34);
type = Stem;
}
);
layerId = m01;
shapes = (
{
closed = 1;
nodes = (
(551,958,o),
(597,1007,o),
(611,1090,c),
(559,1090,l),
(551,1042,o),
(528,1013,o),
(505,1013,cs),
(457,1013,o),
(460,1094,o),
(387,1094,cs),
(328,1094,o),
(282,1047,o),
(267,965,c),
(317,965,l),
(326,1012,o),
(347,1040,o),
(374,1040,cs),
(422,1040,o),
(413,958,o),
(495,958,cs)
);
},
{
closed = 1;
nodes = (
(239,750,l),
(308,750,l),
(406,839,l),
(472,750,l),
(541,750,l),
(419,914,l)
);
},
{
closed = 1;
nodes = (
(450,-12,o),
(605,132,o),
(643,348,cs),
(682,565,o),
(577,709,o),
(383,709,cs),
(190,709,o),
(35,565,o),
(-4,348,cs),
(-42,132,o),
(63,-12,o),
(256,-12,cs)
);
},
{
closed = 1;
nodes = (
(128,73,o),
(56,180,o),
(85,348,cs),
(115,517,o),
(225,624,o),
(368,624,cs),
(511,624,o),
(584,517,o),
(554,348,cs),
(525,180,o),
(414,73,o),
(271,73,cs)
);
}
);
width = 763;
}
);
note = uni1ED6;
unicode = 7894;
},
{
glyphname = Odieresis;
kernLeft = C;
kernRight = D;
lastChange = "2022-12-26 08:51:43 +0000";
layers = (
{
hints = (
{
horizontal = 1;
place = (-135, -38);
place = (-135, -38);
type = Stem;
},
{
horizontal = 1;
place = (501, -38);
place = (501, -38);
type = Stem;
},
{
horizontal = 1;
place = (673, -18);
place = (673, -18);
type = Stem;
},
{
place = (-65, -34);
place = (-65, -34);
type = Stem;
},
{
place = (122, -36);
place = (122, -36);
type = Stem;
},
{
place = (307, -36);
place = (307, -36);
type = Stem;
},
{
place = (493, -34);
place = (493, -34);
type = Stem;
}
);
layerId = m01;
shapes = (
{
closed = 1;
nodes = (
(262,796,l),
(349,796,l),
(368,901,l),
(281,901,l)
);
},
{
closed = 1;
nodes = (
(447,796,l),
(534,796,l),
(553,901,l),
(466,901,l)
);
},
{
closed = 1;
nodes = (
(450,-12,o),
(605,132,o),
(643,348,cs),
(682,565,o),
(577,709,o),
(383,709,cs),
(190,709,o),
(35,565,o),
(-4,348,cs),
(-42,132,o),
(63,-12,o),
(256,-12,cs)
);
},
{
closed = 1;
nodes = (
(128,73,o),
(56,180,o),
(85,348,cs),
(115,517,o),
(225,624,o),
(368,624,cs),
(511,624,o),
(584,517,o),
(554,348,cs),
(525,180,o),
(414,73,o),
(271,73,cs)
);
}
);
width = 763;
}
);
note = Odieresis;
unicode = 214;
},
{
glyphname = uni1ECC;
kernLeft = C;
kernRight = D;
lastChange = "2022-12-26 08:51:43 +0000";
layers = (
{
hints = (
{
horizontal = 1;
place = (-296, -19);
place = (-296, -19);
type = Stem;
},
{
horizontal = 1;
place = (-135, -38);
place = (-135, -38);
type = Stem;
},
{
horizontal = 1;
place = (501, -38);
place = (501, -38);
type = Stem;
},
{
place = (-65, -34);
place = (-65, -34);
type = Stem;
},
{
place = (210, -27);
place = (210, -27);
type = Stem;
},
{
place = (493, -34);
place = (493, -34);
type = Stem;
}
);
layerId = m01;
shapes = (
{
closed = 1;
nodes = (
(450,-12,o),
(605,132,o),
(643,348,cs),
(682,565,o),
(577,709,o),
(383,709,cs),
(190,709,o),
(35,565,o),
(-4,348,cs),
(-42,132,o),
(63,-12,o),
(256,-12,cs)
);
},
{
closed = 1;
nodes = (
(128,73,o),
(56,180,o),
(85,348,cs),
(115,517,o),
(225,624,o),
(368,624,cs),
(511,624,o),
(584,517,o),
(554,348,cs),
(525,180,o),
(414,73,o),
(271,73,cs)
);
},
{
closed = 1;
nodes = (
(180,-173,l),
(276,-173,l),
(294,-69,l),
(198,-69,l)
);
}
);
width = 763;
}
);
note = uni1ECC;
unicode = 7884;
},
{
glyphname = Ograve;
kernLeft = C;
kernRight = D;
lastChange = "2022-12-26 08:51:43 +0000";
layers = (
{
hints = (
{
horizontal = 1;
place = (-135, -38);
place = (-135, -38);
type = Stem;
},
{
horizontal = 1;
place = (501, -38);
place = (501, -38);
type = Stem;
},
{
horizontal = 1;
place = (637, 18);
place = (637, 18);
type = Stem;
},
{
place = (-65, -34);
place = (-65, -34);
type = Stem;
},
{
place = (493, -34);
place = (493, -34);
type = Stem;
}
);
layerId = m01;
shapes = (
{
closed = 1;
nodes = (
(359,760,l),
(425,760,l),
(346,901,l),
(254,901,l)
);
},
{
closed = 1;
nodes = (
(450,-12,o),
(605,132,o),
(643,348,cs),
(682,565,o),
(577,709,o),
(383,709,cs),
(190,709,o),
(35,565,o),
(-4,348,cs),
(-42,132,o),
(63,-12,o),
(256,-12,cs)
);
},
{
closed = 1;
nodes = (
(128,73,o),
(56,180,o),
(85,348,cs),
(115,517,o),
(225,624,o),
(368,624,cs),
(511,624,o),
(584,517,o),
(554,348,cs),
(525,180,o),
(414,73,o),
(271,73,cs)
);
}
);
width = 763;
}
);
note = Ograve;
unicode = 210;
},
{
glyphname = uni1ECE;
kernLeft = C;
kernRight = D;
lastChange = "2022-12-26 08:51:43 +0000";
layers = (
{
hints = (
{
horizontal = 1;
place = (-135, -38);
place = (-135, -38);
type = Stem;
},
{
horizontal = 1;
place = (501, -38);
place = (501, -38);
type = Stem;
},
{
horizontal = 1;
place = (750, -74);
place = (750, -74);
type = Stem;
},
{
place = (-65, -34);
place = (-65, -34);
type = Stem;
},
{
place = (312, -66);
place = (312, -66);
type = Stem;
},
{
place = (493, -34);
place = (493, -34);
type = Stem;
}
);
layerId = m01;
shapes = (
{
closed = 1;
nodes = (
(381,736,l),
(432,745,o),
(503,757,o),
(514,824,cs),
(526,888,o),
(472,922,o),
(389,922,cs),
(374,922,l),
(365,873,l),
(380,873,ls),
(423,873,o),
(464,863,o),
(458,825,cs),
(451,790,o),
(412,784,o),
(375,778,c)
);
},
{
closed = 1;
nodes = (
(450,-12,o),
(605,132,o),
(643,348,cs),
(682,565,o),
(577,709,o),
(383,709,cs),
(190,709,o),
(35,565,o),
(-4,348,cs),
(-42,132,o),
(63,-12,o),
(256,-12,cs)
);
},
{
closed = 1;
nodes = (
(128,73,o),
(56,180,o),
(85,348,cs),
(115,517,o),
(225,624,o),
(368,624,cs),
(511,624,o),
(584,517,o),
(554,348,cs),
(525,180,o),
(414,73,o),
(271,73,cs)
);
}
);
width = 763;
}
);
note = uni1ECE;
unicode = 7886;
},
{
glyphname = Ohorn;
kernLeft = C;
kernRight = D;
lastChange = "2022-12-26 08:51:43 +0000";
layers = (
{
hints = (
{
horizontal = 1;
place = (-135, -38);
place = (-135, -38);
type = Stem;
},
{
horizontal = 1;
place = (379, -20);
target = down;
type = TopGhost;
},
{
horizontal = 1;
place = (574, -20);
target = down;
type = TopGhost;
},
{
place = (-65, -34);
place = (-65, -34);
type = Stem;
},
{
place = (585, -58);
place = (585, -58);
type = Stem;
},
{
horizontal = 1;
place = (501, -38);
place = (501, -38);
type = Stem;
},
{
place = (493, -34);
place = (493, -34);
type = Stem;
}
);
layerId = m01;
shapes = (
{
closed = 1;
nodes = (
(708,697,l),
(699,645,ls),
(692,605,o),
(672,567,o),
(629,556,c),
(591,652,o),
(505,709,o),
(383,709,cs),
(190,709,o),
(35,565,o),
(-4,348,cs),
(-42,132,o),
(63,-12,o),
(256,-12,cs),
(450,-12,o),
(605,132,o),
(643,348,cs),
(654,405,o),
(654,457,o),
(645,502,c),
(714,521,o),
(752,578,o),
(765,652,cs),
(773,697,l)
);
},
{
closed = 1;
nodes = (
(128,73,o),
(56,180,o),
(85,348,cs),
(115,517,o),
(225,624,o),
(368,624,cs),
(511,624,o),
(584,517,o),
(554,348,cs),
(525,180,o),
(414,73,o),
(271,73,cs)
);
}
);
width = 763;
}
);
note = Ohorn;
unicode = 416;
},
{
glyphname = uni1EDA;
kernLeft = C;
kernRight = D;
lastChange = "2022-12-26 08:51:43 +0000";
layers = (
{
hints = (
{
horizontal = 1;
place = (-135, -38);
place = (-135, -38);
type = Stem;
},
{
horizontal = 1;
place = (379, -20);
target = down;
type = TopGhost;
},
{
horizontal = 1;
place = (574, -20);
target = down;
type = TopGhost;
},
{
horizontal = 1;
place = (637, 18);
place = (637, 18);
type = Stem;
},
{
place = (-65, -34);
place = (-65, -34);
type = Stem;
},
{
place = (493, -34);
place = (493, -34);
type = Stem;
},
{
place = (585, -58);
place = (585, -58);
type = Stem;
},
{
horizontal = 1;
place = (501, -38);
place = (501, -38);
type = Stem;
}
);
layerId = m01;
shapes = (
{
closed = 1;
nodes = (
(587,901,l),
(495,901,l),
(361,760,l),
(425,760,l)
);
},
{
closed = 1;
nodes = (
(708,697,l),
(699,645,ls),
(692,605,o),
(672,567,o),
(629,556,c),
(591,652,o),
(505,709,o),
(383,709,cs),
(190,709,o),
(35,565,o),
(-4,348,cs),
(-42,132,o),
(63,-12,o),
(256,-12,cs),
(450,-12,o),
(605,132,o),
(643,348,cs),
(654,405,o),
(654,457,o),
(645,502,c),
(714,521,o),
(752,578,o),
(765,652,cs),
(773,697,l)
);
},
{
closed = 1;
nodes = (
(128,73,o),
(56,180,o),
(85,348,cs),
(115,517,o),
(225,624,o),
(368,624,cs),
(511,624,o),
(584,517,o),
(554,348,cs),
(525,180,o),
(414,73,o),
(271,73,cs)
);
}
);
width = 763;
}
);
note = uni1EDA;
unicode = 7898;
},
{
glyphname = uni1EE2;
kernLeft = C;
kernRight = D;
lastChange = "2022-12-26 08:51:43 +0000";
layers = (
{
hints = (
{
horizontal = 1;
place = (-296, -19);
place = (-296, -19);
type = Stem;
},
{
horizontal = 1;
place = (-135, -38);
place = (-135, -38);
type = Stem;
},
{
horizontal = 1;
place = (379, -20);
target = down;
type = TopGhost;
},
{
horizontal = 1;
place = (574, -20);
target = down;
type = TopGhost;
},
{
place = (-65, -34);
place = (-65, -34);
type = Stem;
},
{
place = (210, -27);
place = (210, -27);
type = Stem;
},
{
place = (585, -58);
place = (585, -58);
type = Stem;
},
{
horizontal = 1;
place = (501, -38);
place = (501, -38);
type = Stem;
},
{
place = (493, -34);
place = (493, -34);
type = Stem;
}
);
layerId = m01;
shapes = (
{
closed = 1;
nodes = (
(708,697,l),
(699,645,ls),
(692,605,o),
(672,567,o),
(629,556,c),
(591,652,o),
(505,709,o),
(383,709,cs),
(190,709,o),
(35,565,o),
(-4,348,cs),
(-42,132,o),
(63,-12,o),
(256,-12,cs),
(450,-12,o),
(605,132,o),
(643,348,cs),
(654,405,o),
(654,457,o),
(645,502,c),
(714,521,o),
(752,578,o),
(765,652,cs),
(773,697,l)
);
},
{
closed = 1;
nodes = (
(128,73,o),
(56,180,o),
(85,348,cs),
(115,517,o),
(225,624,o),
(368,624,cs),
(511,624,o),
(584,517,o),
(554,348,cs),
(525,180,o),
(414,73,o),
(271,73,cs)
);
},
{
closed = 1;
nodes = (
(180,-173,l),
(276,-173,l),
(294,-69,l),
(198,-69,l)
);
}
);
width = 763;
}
);
note = uni1EE2;
unicode = 7906;
},
{
glyphname = uni1EDC;
kernLeft = C;
kernRight = D;
lastChange = "2022-12-26 08:51:43 +0000";
layers = (
{
hints = (
{
horizontal = 1;
place = (-135, -38);
place = (-135, -38);
type = Stem;
},
{
horizontal = 1;
place = (379, -20);
target = down;
type = TopGhost;
},
{
horizontal = 1;
place = (574, -20);
target = down;
type = TopGhost;
},
{
horizontal = 1;
place = (637, 18);
place = (637, 18);
type = Stem;
},
{
place = (-65, -34);
place = (-65, -34);
type = Stem;
},
{
place = (493, -34);
place = (493, -34);
type = Stem;
},
{
place = (585, -58);
place = (585, -58);
type = Stem;
},
{
horizontal = 1;
place = (501, -38);
place = (501, -38);
type = Stem;
}
);
layerId = m01;
shapes = (
{
closed = 1;
nodes = (
(425,760,l),
(346,901,l),
(254,901,l),
(359,760,l)
);
},
{
closed = 1;
nodes = (
(708,697,l),
(699,645,ls),
(692,605,o),
(672,567,o),
(629,556,c),
(591,652,o),
(505,709,o),
(383,709,cs),
(190,709,o),
(35,565,o),
(-4,348,cs),
(-42,132,o),
(63,-12,o),
(256,-12,cs),
(450,-12,o),
(605,132,o),
(643,348,cs),
(654,405,o),
(654,457,o),
(645,502,c),
(714,521,o),
(752,578,o),
(765,652,cs),
(773,697,l)
);
},
{
closed = 1;
nodes = (
(128,73,o),
(56,180,o),
(85,348,cs),
(115,517,o),
(225,624,o),
(368,624,cs),
(511,624,o),
(584,517,o),
(554,348,cs),
(525,180,o),
(414,73,o),
(271,73,cs)
);
}
);
width = 763;
}
);
note = uni1EDC;
unicode = 7900;
},
{
glyphname = uni1EDE;
kernLeft = C;
kernRight = D;
lastChange = "2022-12-26 08:51:43 +0000";
layers = (
{
hints = (
{
horizontal = 1;
place = (-135, -38);
place = (-135, -38);
type = Stem;
},
{
horizontal = 1;
place = (379, -20);
target = down;
type = TopGhost;
},
{
horizontal = 1;
place = (574, -20);
target = down;
type = TopGhost;
},
{
horizontal = 1;
place = (750, -74);
place = (750, -74);
type = Stem;
},
{
place = (-65, -34);
place = (-65, -34);
type = Stem;
},
{
place = (312, -66);
place = (312, -66);
type = Stem;
},
{
place = (493, -34);
place = (493, -34);
type = Stem;
},
{
place = (585, -58);
place = (585, -58);
type = Stem;
},
{
horizontal = 1;
place = (501, -38);
place = (501, -38);
type = Stem;
}
);
layerId = m01;
shapes = (
{
closed = 1;
nodes = (
(451,790,o),
(412,784,o),
(375,778,c),
(381,736,l),
(432,745,o),
(503,757,o),
(514,824,cs),
(526,888,o),
(472,922,o),
(389,922,cs),
(374,922,l),
(365,873,l),
(380,873,ls),
(423,873,o),
(464,863,o),
(458,825,cs)
);
},
{
closed = 1;
nodes = (
(708,697,l),
(699,645,ls),
(692,605,o),
(672,567,o),
(629,556,c),
(591,652,o),
(505,709,o),
(383,709,cs),
(190,709,o),
(35,565,o),
(-4,348,cs),
(-42,132,o),
(63,-12,o),
(256,-12,cs),
(450,-12,o),
(605,132,o),
(643,348,cs),
(654,405,o),
(654,457,o),
(645,502,c),
(714,521,o),
(752,578,o),
(765,652,cs),
(773,697,l)
);
},
{
closed = 1;
nodes = (
(128,73,o),
(56,180,o),
(85,348,cs),
(115,517,o),
(225,624,o),
(368,624,cs),
(511,624,o),
(584,517,o),
(554,348,cs),
(525,180,o),
(414,73,o),
(271,73,cs)
);
}
);
width = 763;
}
);
note = uni1EDE;
unicode = 7902;
},
{
glyphname = uni1EE0;
kernLeft = C;
kernRight = D;
lastChange = "2022-12-26 08:51:43 +0000";
layers = (
{
hints = (
{
horizontal = 1;
place = (-135, -38);
place = (-135, -38);
type = Stem;
},
{
horizontal = 1;
place = (379, -20);
target = down;
type = TopGhost;
},
{
horizontal = 1;
place = (574, -20);
target = down;
type = TopGhost;
},
{
horizontal = 1;
place = (728, -69);
place = (728, -69);
type = Stem;
},
{
place = (-65, -34);
place = (-65, -34);
type = Stem;
},
{
place = (97, -73);
place = (97, -73);
type = Stem;
},
{
place = (367, -71);
place = (367, -71);
type = Stem;
},
{
place = (493, -34);
place = (493, -34);
type = Stem;
},
{
horizontal = 1;
place = (646, -68);
place = (646, -68);
type = Stem;
},
{
place = (585, -58);
place = (585, -58);
type = Stem;
},
{
horizontal = 1;
place = (501, -38);
place = (501, -38);
type = Stem;
}
);
layerId = m01;
shapes = (
{
closed = 1;
nodes = (
(389,851,o),
(380,769,o),
(462,769,cs),
(518,769,o),
(563,818,o),
(578,901,c),
(526,901,l),
(518,853,o),
(494,824,o),
(471,824,cs),
(423,824,o),
(427,905,o),
(354,905,cs),
(295,905,o),
(248,858,o),
(234,776,c),
(284,776,l),
(292,823,o),
(314,851,o),
(341,851,cs)
);
},
{
closed = 1;
nodes = (
(708,697,l),
(699,645,ls),
(692,605,o),
(672,567,o),
(629,556,c),
(591,652,o),
(505,709,o),
(383,709,cs),
(190,709,o),
(35,565,o),
(-4,348,cs),
(-42,132,o),
(63,-12,o),
(256,-12,cs),
(450,-12,o),
(605,132,o),
(643,348,cs),
(654,405,o),
(654,457,o),
(645,502,c),
(714,521,o),
(752,578,o),
(765,652,cs),
(773,697,l)
);
},
{
closed = 1;
nodes = (
(128,73,o),
(56,180,o),
(85,348,cs),
(115,517,o),
(225,624,o),
(368,624,cs),
(511,624,o),
(584,517,o),
(554,348,cs),
(525,180,o),
(414,73,o),
(271,73,cs)
);
}
);
width = 763;
}
);
note = uni1EE0;
unicode = 7904;
},
{
glyphname = Ohungarumlaut;
kernLeft = C;
kernRight = D;
lastChange = "2022-12-26 08:51:43 +0000";
layers = (
{
hints = (
{
horizontal = 1;
place = (-135, -38);
place = (-135, -38);
type = Stem;
},
{
horizontal = 1;
place = (501, -38);
place = (501, -38);
type = Stem;
},
{
horizontal = 1;
place = (622, 33);
place = (622, 33);
type = Stem;
},
{
place = (-65, -34);
place = (-65, -34);
type = Stem;
},
{
place = (493, -34);
place = (493, -34);
type = Stem;
}
);
layerId = m01;
shapes = (
{
closed = 1;
nodes = (
(268,745,l),
(332,745,l),
(483,901,l),
(405,901,l)
);
},
{
closed = 1;
nodes = (
(445,745,l),
(510,745,l),
(674,901,l),
(582,901,l)
);
},
{
closed = 1;
nodes = (
(450,-12,o),
(605,132,o),
(643,348,cs),
(682,565,o),
(577,709,o),
(383,709,cs),
(190,709,o),
(35,565,o),
(-4,348,cs),
(-42,132,o),
(63,-12,o),
(256,-12,cs)
);
},
{
closed = 1;
nodes = (
(128,73,o),
(56,180,o),
(85,348,cs),
(115,517,o),
(225,624,o),
(368,624,cs),
(511,624,o),
(584,517,o),
(554,348,cs),
(525,180,o),
(414,73,o),
(271,73,cs)
);
}
);
width = 763;
}
);
note = Ohungarumlaut;
unicode = 336;
},
{
glyphname = Omacron;
kernLeft = C;
kernRight = D;
lastChange = "2022-12-26 08:51:43 +0000";
layers = (
{
hints = (
{
horizontal = 1;
place = (-135, -38);
place = (-135, -38);
type = Stem;
},
{
horizontal = 1;
place = (501, -38);
place = (501, -38);
type = Stem;
},
{
horizontal = 1;
place = (669, -72);
place = (669, -72);
type = Stem;
},
{
place = (-65, -34);
place = (-65, -34);
type = Stem;
},
{
place = (493, -34);
place = (493, -34);
type = Stem;
}
);
layerId = m01;
shapes = (
{
closed = 1;
nodes = (
(262,792,l),
(534,792,l),
(543,843,l),
(271,843,l)
);
},
{
closed = 1;
nodes = (
(450,-12,o),
(605,132,o),
(643,348,cs),
(682,565,o),
(577,709,o),
(383,709,cs),
(190,709,o),
(35,565,o),
(-4,348,cs),
(-42,132,o),
(63,-12,o),
(256,-12,cs)
);
},
{
closed = 1;
nodes = (
(128,73,o),
(56,180,o),
(85,348,cs),
(115,517,o),
(225,624,o),
(368,624,cs),
(511,624,o),
(584,517,o),
(554,348,cs),
(525,180,o),
(414,73,o),
(271,73,cs)
);
}
);
width = 763;
}
);
note = Omacron;
unicode = 332;
},
{
glyphname = Oslash;
kernLeft = C;
kernRight = D;
lastChange = "2022-12-26 08:51:43 +0000";
layers = (
{
hints = (
{
horizontal = 1;
place = (-135, -38);
place = (-135, -38);
type = Stem;
},
{
horizontal = 1;
place = (500, -49);
place = (500, -49);
type = Stem;
},
{
place = (-65, -34);
place = (-65, -34);
type = Stem;
},
{
place = (493, -34);
place = (493, -34);
type = Stem;
},
{
horizontal = 1;
place = (-123, -49);
place = (-123, -49);
type = Stem;
},
{
horizontal = 1;
place = (501, -38);
place = (501, -38);
type = Stem;
},
{
horizontal = 1;
place = (574, -20);
target = down;
type = TopGhost;
}
);
layerId = m01;
shapes = (
{
closed = 1;
nodes = (
(653,697,l),
(577,697,l),
(548,662,l),
(504,692,o),
(449,709,o),
(383,709,cs),
(190,709,o),
(35,565,o),
(-4,348,cs),
(-24,232,o),
(-4,137,o),
(50,74,c),
(-13,0,l),
(63,0,l),
(92,35,l),
(136,5,o),
(191,-12,o),
(256,-12,cs),
(450,-12,o),
(605,132,o),
(643,348,cs),
(664,464,o),
(644,559,o),
(590,623,c)
);
},
{
closed = 1;
nodes = (
(115,517,o),
(225,624,o),
(368,624,cs),
(416,624,o),
(456,612,o),
(486,590,c),
(113,149,l),
(81,196,o),
(71,265,o),
(85,348,cs)
);
},
{
closed = 1;
nodes = (
(224,73,o),
(184,85,o),
(153,107,c),
(527,548,l),
(558,500,o),
(569,432,o),
(554,348,cs),
(525,180,o),
(414,73,o),
(271,73,cs)
);
}
);
width = 763;
}
);
note = Oslash;
unicode = 216;
},
{
glyphname = Otilde;
kernLeft = C;
kernRight = D;
lastChange = "2022-12-26 08:51:43 +0000";
layers = (
{
hints = (
{
horizontal = 1;
place = (-135, -38);
place = (-135, -38);
type = Stem;
},
{
horizontal = 1;
place = (501, -38);
place = (501, -38);
type = Stem;
},
{
horizontal = 1;
place = (646, -68);
place = (646, -68);
type = Stem;
},
{
horizontal = 1;
place = (728, -69);
place = (728, -69);
type = Stem;
},
{
place = (-65, -34);
place = (-65, -34);
type = Stem;
},
{
place = (97, -73);
place = (97, -73);
type = Stem;
},
{
place = (367, -71);
place = (367, -71);
type = Stem;
},
{
place = (493, -34);
place = (493, -34);
type = Stem;
}
);
layerId = m01;
shapes = (
{
closed = 1;
nodes = (
(518,769,o),
(563,818,o),
(578,901,c),
(526,901,l),
(518,853,o),
(494,824,o),
(471,824,cs),
(423,824,o),
(427,905,o),
(354,905,cs),
(295,905,o),
(248,858,o),
(234,776,c),
(284,776,l),
(292,823,o),
(314,851,o),
(341,851,cs),
(389,851,o),
(380,769,o),
(462,769,cs)
);
},
{
closed = 1;
nodes = (
(450,-12,o),
(605,132,o),
(643,348,cs),
(682,565,o),
(577,709,o),
(383,709,cs),
(190,709,o),
(35,565,o),
(-4,348,cs),
(-42,132,o),
(63,-12,o),
(256,-12,cs)
);
},
{
closed = 1;
nodes = (
(128,73,o),
(56,180,o),
(85,348,cs),
(115,517,o),
(225,624,o),
(368,624,cs),
(511,624,o),
(584,517,o),
(554,348,cs),
(525,180,o),
(414,73,o),
(271,73,cs)
);
}
);
width = 763;
}
);
note = Otilde;
unicode = 213;
},
{
glyphname = OE;
kernLeft = C;
lastChange = "2022-12-26 08:51:43 +0000";
layers = (
{
hints = (
{
horizontal = 1;
place = (-123, -41);
place = (-123, -41);
type = Stem;
},
{
horizontal = 1;
place = (192, -41);
place = (192, -41);
type = Stem;
},
{
horizontal = 1;
place = (492, -41);
place = (492, -41);
type = Stem;
},
{
place = (-65, -34);
place = (-65, -34);
type = Stem;
},
{
place = (493, -33);
place = (493, -33);
type = Stem;
},
{
place = (494, -34);
place = (494, -34);
type = Stem;
},
{
horizontal = 1;
place = (-135, -38);
place = (-135, -38);
type = Stem;
},
{
horizontal = 1;
place = (501, -38);
place = (501, -38);
type = Stem;
}
);
layerId = m01;
shapes = (
{
closed = 1;
nodes = (
(1062,615,l),
(1076,697,l),
(617,697,l),
(601,608,l),
(556,672,o),
(481,709,o),
(383,709,cs),
(190,709,o),
(35,565,o),
(-4,348,cs),
(-42,132,o),
(63,-12,o),
(256,-12,cs),
(354,-12,o),
(442,25,o),
(510,88,c),
(494,0,l),
(953,0,l),
(968,82,l),
(598,82,l),
(639,315,l),
(975,315,l),
(989,397,l),
(653,397,l),
(692,615,l)
);
},
{
closed = 1;
nodes = (
(128,73,o),
(56,180,o),
(85,348,cs),
(115,517,o),
(225,624,o),
(368,624,cs),
(511,624,o),
(584,517,o),
(554,348,cs),
(525,180,o),
(414,73,o),
(271,73,cs)
);
}
);
width = 1136;
}
);
note = OE;
unicode = 338;
},
{
glyphname = P;
kernLeft = B;
kernRight = P;
lastChange = "2022-12-26 08:51:43 +0000";
layers = (
{
hints = (
{
horizontal = 1;
place = (-123, 21);
target = up;
type = BottomGhost;
},
{
horizontal = 1;
place = (176, -41);
place = (176, -41);
type = Stem;
},
{
horizontal = 1;
place = (492, -41);
place = (492, -41);
type = Stem;
},
{
place = (-18, -34);
place = (-18, -34);
type = Stem;
},
{
place = (334, -34);
place = (334, -34);
type = Stem;
}
);
layerId = m01;
shapes = (
{
closed = 1;
nodes = (
(-18,0,l),
(27,0,l),
(80,50,l),
(124,299,l),
(244,299,ls),
(393,299,o),
(488,370,o),
(511,500,cs),
(534,628,o),
(465,697,o),
(314,697,cs),
(105,697,l)
);
},
{
closed = 1;
nodes = (
(138,381,l),
(180,615,l),
(291,615,ls),
(393,615,o),
(436,577,o),
(422,499,cs),
(408,420,o),
(351,381,o),
(249,381,cs)
);
}
);
width = 587;
}
);
note = P;
unicode = 80;
},
{
glyphname = Thorn;
kernLeft = B;
kernRight = Thorn;
lastChange = "2022-12-26 08:51:43 +0000";
layers = (
{
hints = (
{
horizontal = 1;
place = (-123, 21);
target = up;
type = BottomGhost;
},
{
horizontal = 1;
place = (79, -48);
place = (79, -48);
type = Stem;
},
{
horizontal = 1;
place = (405, 46);
place = (405, 46);
type = Stem;
},
{
place = (-18, -41);
place = (-18, -41);
type = Stem;
},
{
place = (334, -41);
place = (334, -41);
type = Stem;
},
{
horizontal = 1;
place = (405, -53);
place = (405, -53);
type = Stem;
}
);
layerId = m01;
shapes = (
{
closed = 1;
nodes = (
(-18,0,l),
(64,0,l),
(100,202,l),
(217,202,ls),
(365,202,o),
(465,277,o),
(487,404,cs),
(509,526,o),
(441,598,o),
(305,598,cs),
(170,598,l),
(187,697,l),
(105,697,l)
);
},
{
closed = 1;
nodes = (
(113,277,l),
(157,528,l),
(274,528,ls),
(372,528,o),
(419,483,o),
(405,401,cs),
(391,320,o),
(330,277,o),
(230,277,cs)
);
}
);
width = 579;
}
);
note = Thorn;
unicode = 222;
},
{
glyphname = Q;
kernLeft = C;
kernRight = Q;
lastChange = "2022-12-26 08:51:43 +0000";
layers = (
{
hints = (
{
horizontal = 1;
place = (-126, 21);
target = up;
type = BottomGhost;
},
{
horizontal = 1;
place = (501, -38);
place = (501, -38);
type = Stem;
},
{
place = (-67, -34);
place = (-67, -34);
type = Stem;
},
{
place = (492, -34);
place = (492, -34);
type = Stem;
},
{
horizontal = 1;
place = (-135, -38);
place = (-135, -38);
type = Stem;
}
);
layerId = m01;
shapes = (
{
closed = 1;
nodes = (
(571,-27,l),
(568,37,l),
(517,97,l),
(579,159,o),
(624,245,o),
(642,348,cs),
(681,565,o),
(576,709,o),
(382,709,cs),
(189,709,o),
(33,565,o),
(-6,348,cs),
(-44,132,o),
(62,-12,o),
(255,-12,cs),
(326,-12,o),
(393,8,o),
(450,44,c),
(535,-56,l)
);
},
{
closed = 1;
nodes = (
(127,73,o),
(54,180,o),
(83,348,cs),
(113,517,o),
(224,624,o),
(367,624,cs),
(510,624,o),
(583,517,o),
(553,348,cs),
(540,270,o),
(508,205,o),
(465,158,c),
(376,263,l),
(310,208,l),
(398,105,l),
(360,84,o),
(316,73,o),
(270,73,cs)
);
}
);
width = 778;
}
);
note = Q;
unicode = 81;
},
{
glyphname = R;
kernLeft = B;
kernRight = R;
lastChange = "2022-12-26 08:51:43 +0000";
layers = (
{
hints = (
{
horizontal = 1;
place = (-123, 21);
target = up;
type = BottomGhost;
},
{
horizontal = 1;
place = (179, -40);
place = (179, -40);
type = Stem;
},
{
horizontal = 1;
place = (492, -41);
place = (492, -41);
type = Stem;
},
{
place = (-18, -34);
place = (-18, -34);
type = Stem;
},
{
place = (334, -34);
place = (334, -34);
type = Stem;
}
);
layerId = m01;
shapes = (
{
closed = 1;
nodes = (
(432,0,ls),
(442,0,o),
(445,4,o),
(441,13,cs),
(313,314,l),
(447,343,o),
(494,402,o),
(511,501,cs),
(534,627,o),
(469,697,o),
(314,697,cs),
(105,697,l),
(-18,0,l),
(27,0,l),
(80,50,l),
(124,302,l),
(204,302,l),
(222,302,l),
(344,0,l)
);
},
{
closed = 1;
nodes = (
(139,385,l),
(180,615,l),
(291,615,ls),
(391,615,o),
(436,579,o),
(422,500,cs),
(408,421,o),
(350,385,o),
(250,385,cs)
);
}
);
width = 629;
}
);
note = R;
unicode = 82;
},
{
glyphname = Racute;
kernLeft = B;
kernRight = R;
lastChange = "2022-12-26 08:51:43 +0000";
layers = (
{
hints = (
{
horizontal = 1;
place = (-123, 21);
target = up;
type = BottomGhost;
},
{
horizontal = 1;
place = (179, -40);
place = (179, -40);
type = Stem;
},
{
horizontal = 1;
place = (492, -41);
place = (492, -41);
type = Stem;
},
{
horizontal = 1;
place = (637, 18);
place = (637, 18);
type = Stem;
},
{
place = (-18, -34);
place = (-18, -34);
type = Stem;
},
{
place = (334, -34);
place = (334, -34);
type = Stem;
}
);
layerId = m01;
shapes = (
{
closed = 1;
nodes = (
(520,901,l),
(428,901,l),
(294,760,l),
(358,760,l)
);
},
{
closed = 1;
nodes = (
(474,0,l),
(340,314,l),
(435,339,o),
(494,402,o),
(511,501,cs),
(534,627,o),
(469,697,o),
(314,697,cs),
(105,697,l),
(-18,0,l),
(71,0,l),
(124,302,l),
(204,302,l),
(249,302,l),
(371,0,l)
);
},
{
closed = 1;
nodes = (
(139,385,l),
(180,615,l),
(291,615,ls),
(391,615,o),
(436,579,o),
(422,500,cs),
(408,421,o),
(350,385,o),
(250,385,cs)
);
}
);
width = 629;
}
);
note = Racute;
unicode = 340;
},
{
glyphname = Rcaron;
kernLeft = B;
kernRight = R;
lastChange = "2022-12-26 08:51:43 +0000";
layers = (
{
hints = (
{
horizontal = 1;
place = (-123, 21);
target = up;
type = BottomGhost;
},
{
horizontal = 1;
place = (179, -40);
place = (179, -40);
type = Stem;
},
{
horizontal = 1;
place = (492, -41);
place = (492, -41);
type = Stem;
},
{
place = (-18, -34);
place = (-18, -34);
type = Stem;
},
{
place = (334, -34);
place = (334, -34);
type = Stem;
}
);
layerId = m01;
shapes = (
{
closed = 1;
nodes = (
(502,901,l),
(433,901,l),
(336,815,l),
(269,901,l),
(200,901,l),
(323,744,l)
);
},
{
closed = 1;
nodes = (
(474,0,l),
(340,314,l),
(435,339,o),
(494,402,o),
(511,501,cs),
(534,627,o),
(469,697,o),
(314,697,cs),
(105,697,l),
(-18,0,l),
(71,0,l),
(124,302,l),
(204,302,l),
(249,302,l),
(371,0,l)
);
},
{
closed = 1;
nodes = (
(139,385,l),
(180,615,l),
(291,615,ls),
(391,615,o),
(436,579,o),
(422,500,cs),
(408,421,o),
(350,385,o),
(250,385,cs)
);
}
);
width = 629;
}
);
note = Rcaron;
unicode = 344;
},
{
glyphname = uni0156;
kernLeft = B;
kernRight = R;
lastChange = "2022-12-26 08:51:43 +0000";
layers = (
{
hints = (
{
horizontal = 1;
place = (-346, 45);
place = (-346, 45);
type = Stem;
},
{
horizontal = 1;
place = (-123, 21);
target = up;
type = BottomGhost;
},
{
horizontal = 1;
place = (179, -40);
place = (179, -40);
type = Stem;
},
{
horizontal = 1;
place = (492, -41);
place = (492, -41);
type = Stem;
},
{
place = (-18, -34);
place = (-18, -34);
type = Stem;
},
{
place = (334, -34);
place = (334, -34);
type = Stem;
}
);
layerId = m01;
shapes = (
{
closed = 1;
nodes = (
(340,314,l),
(435,339,o),
(494,402,o),
(511,501,cs),
(534,627,o),
(469,697,o),
(314,697,cs),
(105,697,l),
(-18,0,l),
(71,0,l),
(124,302,l),
(204,302,l),
(249,302,l),
(371,0,l),
(474,0,l)
);
},
{
closed = 1;
nodes = (
(139,385,l),
(180,615,l),
(291,615,ls),
(391,615,o),
(436,579,o),
(422,500,cs),
(408,421,o),
(350,385,o),
(250,385,cs)
);
},
{
closed = 1;
nodes = (
(26,-223,l),
(79,-223,l),
(227,-55,l),
(136,-55,l)
);
}
);
width = 629;
}
);
note = uni0156;
unicode = 342;
},
{
glyphname = S;
kernLeft = S;
kernRight = S;
lastChange = "2022-12-26 08:51:43 +0000";
layers = (
{
hints = (
{
horizontal = 1;
place = (-134, -43);
place = (-134, -43);
type = Stem;
},
{
horizontal = 1;
place = (506, -43);
place = (506, -43);
type = Stem;
},
{
place = (-40, -34);
place = (-40, -34);
type = Stem;
},
{
place = (310, -33);
place = (310, -33);
type = Stem;
}
);
layerId = m01;
shapes = (
{
closed = 1;
nodes = (
(311,-11,o),
(412,68,o),
(433,189,cs),
(451,287,o),
(414,342,o),
(272,400,cs),
(171,442,o),
(133,473,o),
(143,531,cs),
(152,585,o),
(208,629,o),
(273,629,cs),
(329,629,o),
(371,598,o),
(389,545,c),
(472,591,l),
(443,668,o),
(380,709,o),
(290,709,cs),
(168,709,o),
(72,636,o),
(53,528,cs),
(37,434,o),
(78,383,o),
(211,328,cs),
(319,283,o),
(354,247,o),
(342,181,cs),
(331,116,o),
(273,69,o),
(182,69,cs),
(93,69,o),
(39,122,o),
(42,210,c),
(-50,188,l),
(-52,68,o),
(35,-11,o),
(167,-11,cs)
);
}
);
width = 569;
}
);
note = S;
unicode = 83;
},
{
glyphname = Sacute;
kernLeft = S;
kernRight = S;
lastChange = "2022-12-26 08:51:43 +0000";
layers = (
{
hints = (
{
horizontal = 1;
place = (-134, -43);
place = (-134, -43);
type = Stem;
},
{
horizontal = 1;
place = (506, -43);
place = (506, -43);
type = Stem;
},
{
horizontal = 1;
place = (637, 18);
place = (637, 18);
type = Stem;
},
{
place = (-40, -34);
place = (-40, -34);
type = Stem;
},
{
place = (310, -33);
place = (310, -33);
type = Stem;
}
);
layerId = m01;
shapes = (
{
closed = 1;
nodes = (
(264,760,l),
(328,760,l),
(490,901,l),
(398,901,l)
);
},
{
closed = 1;
nodes = (
(311,-11,o),
(412,68,o),
(433,189,cs),
(451,287,o),
(414,342,o),
(272,400,cs),
(171,442,o),
(133,473,o),
(143,531,cs),
(152,585,o),
(208,629,o),
(273,629,cs),
(329,629,o),
(371,598,o),
(389,545,c),
(472,591,l),
(443,668,o),
(380,709,o),
(290,709,cs),
(168,709,o),
(72,636,o),
(53,528,cs),
(37,434,o),
(78,383,o),
(211,328,cs),
(319,283,o),
(354,247,o),
(342,181,cs),
(331,116,o),
(273,69,o),
(182,69,cs),
(93,69,o),
(39,122,o),
(42,210,c),
(-50,188,l),
(-52,68,o),
(35,-11,o),
(167,-11,cs)
);
}
);
width = 569;
}
);
note = Sacute;
unicode = 346;
},
{
glyphname = Scaron;
kernLeft = S;
kernRight = S;
lastChange = "2022-12-26 08:51:43 +0000";
layers = (
{
hints = (
{
horizontal = 1;
place = (-134, -43);
place = (-134, -43);
type = Stem;
},
{
horizontal = 1;
place = (506, -43);
place = (506, -43);
type = Stem;
},
{
place = (-40, -34);
place = (-40, -34);
type = Stem;
},
{
place = (310, -33);
place = (310, -33);
type = Stem;
}
);
layerId = m01;
shapes = (
{
closed = 1;
nodes = (
(292,744,l),
(471,901,l),
(402,901,l),
(305,815,l),
(238,901,l),
(169,901,l)
);
},
{
closed = 1;
nodes = (
(311,-11,o),
(412,68,o),
(433,189,cs),
(451,287,o),
(414,342,o),
(272,400,cs),
(171,442,o),
(133,473,o),
(143,531,cs),
(152,585,o),
(208,629,o),
(273,629,cs),
(329,629,o),
(371,598,o),
(389,545,c),
(472,591,l),
(443,668,o),
(380,709,o),
(290,709,cs),
(168,709,o),
(72,636,o),
(53,528,cs),
(37,434,o),
(78,383,o),
(211,328,cs),
(319,283,o),
(354,247,o),
(342,181,cs),
(331,116,o),
(273,69,o),
(182,69,cs),
(93,69,o),
(39,122,o),
(42,210,c),
(-50,188,l),
(-52,68,o),
(35,-11,o),
(167,-11,cs)
);
}
);
width = 569;
}
);
note = Scaron;
unicode = 352;
},
{
glyphname = Scedilla;
kernLeft = S;
kernRight = S;
lastChange = "2022-12-26 08:51:43 +0000";
layers = (
{
hints = (
{
horizontal = 1;
place = (-379, -72);
place = (-379, -72);
type = Stem;
},
{
horizontal = 1;
place = (-132, 21);
target = up;
type = BottomGhost;
},
{
horizontal = 1;
place = (506, -43);
place = (506, -43);
type = Stem;
},
{
place = (-40, -34);
place = (-40, -34);
type = Stem;
},
{
place = (205, -71);
place = (205, -71);
type = Stem;
},
{
place = (310, -33);
place = (310, -33);
type = Stem;
},
{
horizontal = 1;
place = (-218, 41);
place = (-218, 41);
type = Stem;
},
{
horizontal = 1;
place = (-218, -87);
place = (-218, -87);
type = Stem;
}
);
layerId = m01;
shapes = (
{
closed = 1;
nodes = (
(451,287,o),
(414,342,o),
(272,400,cs),
(171,442,o),
(133,473,o),
(143,531,cs),
(152,585,o),
(208,629,o),
(273,629,cs),
(329,629,o),
(371,598,o),
(389,545,c),
(472,591,l),
(443,668,o),
(380,709,o),
(290,709,cs),
(168,709,o),
(72,636,o),
(53,528,cs),
(37,434,o),
(78,383,o),
(211,328,cs),
(319,283,o),
(354,247,o),
(342,181,cs),
(331,116,o),
(273,69,o),
(182,69,cs),
(93,69,o),
(39,122,o),
(42,210,c),
(-50,188,l),
(-52,80,o),
(18,5,o),
(129,-9,c),
(62,-95,l),
(89,-95,o),
(114,-96,o),
(133,-101,cs),
(162,-108,o),
(183,-123,o),
(178,-155,cs),
(172,-186,o),
(149,-205,o),
(117,-205,cs),
(97,-205,o),
(75,-196,o),
(62,-173,c),
(24,-214,l),
(44,-243,o),
(77,-256,o),
(105,-256,cs),
(168,-256,o),
(220,-212,o),
(230,-153,cs),
(236,-117,o),
(223,-91,o),
(194,-76,cs),
(178,-68,o),
(161,-63,o),
(138,-59,c),
(178,-11,l),
(316,-7,o),
(413,71,o),
(433,189,cs)
);
}
);
width = 569;
}
);
note = Scedilla;
unicode = 350;
},
{
glyphname = uni0218;
kernLeft = S;
kernRight = S;
lastChange = "2022-12-26 08:51:43 +0000";
layers = (
{
hints = (
{
horizontal = 1;
place = (-346, 45);
place = (-346, 45);
type = Stem;
},
{
horizontal = 1;
place = (-134, -43);
place = (-134, -43);
type = Stem;
},
{
horizontal = 1;
place = (506, -43);
place = (506, -43);
type = Stem;
},
{
place = (-40, -34);
place = (-40, -34);
type = Stem;
},
{
place = (310, -33);
place = (310, -33);
type = Stem;
}
);
layerId = m01;
shapes = (
{
closed = 1;
nodes = (
(311,-11,o),
(412,68,o),
(433,189,cs),
(451,287,o),
(414,342,o),
(272,400,cs),
(171,442,o),
(133,473,o),
(143,531,cs),
(152,585,o),
(208,629,o),
(273,629,cs),
(329,629,o),
(371,598,o),
(389,545,c),
(472,591,l),
(443,668,o),
(380,709,o),
(290,709,cs),
(168,709,o),
(72,636,o),
(53,528,cs),
(37,434,o),
(78,383,o),
(211,328,cs),
(319,283,o),
(354,247,o),
(342,181,cs),
(331,116,o),
(273,69,o),
(182,69,cs),
(93,69,o),
(39,122,o),
(42,210,c),
(-50,188,l),
(-52,68,o),
(35,-11,o),
(167,-11,cs)
);
},
{
closed = 1;
nodes = (
(-5,-223,l),
(48,-223,l),
(196,-55,l),
(105,-55,l)
);
}
);
width = 569;
}
);
note = uni0218;
unicode = 536;
},
{
glyphname = uni1E9E;
lastChange = "2022-12-26 08:51:43 +0000";
layers = (
{
hints = (
{
horizontal = 1;
place = (-133, -40);
place = (-133, -40);
type = Stem;
},
{
horizontal = 1;
place = (488, -37);
place = (488, -37);
type = Stem;
},
{
place = (-32, -34);
place = (-32, -34);
type = Stem;
},
{
place = (166, -33);
place = (166, -33);
type = Stem;
},
{
place = (430, -26);
place = (430, -26);
type = Stem;
},
{
horizontal = 1;
place = (-123, 21);
target = up;
type = BottomGhost;
}
);
layerId = m01;
shapes = (
{
closed = 1;
nodes = (
(448,-10,o),
(536,53,o),
(552,143,cs),
(585,328,o),
(303,267,o),
(320,365,cs),
(324,387,o),
(340,404,o),
(356,419,cs),
(577,631,l),
(589,697,l),
(332,697,ls),
(112,697,o),
(64,545,o),
(45,436,cs),
(-32,0,l),
(57,0,l),
(134,436,ls),
(155,554,o),
(205,611,o),
(317,611,cs),
(450,611,l),
(303,471,ls),
(272,441,o),
(239,414,o),
(229,358,cs),
(200,192,o),
(475,257,o),
(455,140,cs),
(448,99,o),
(412,73,o),
(356,73,cs),
(287,73,o),
(249,113,o),
(236,164,c),
(153,124,l),
(165,48,o),
(234,-10,o),
(338,-10,cs)
);
}
);
width = 689;
}
);
note = uni1E9E;
unicode = 7838;
},
{
glyphname = T;
kernLeft = T;
kernRight = T;
lastChange = "2022-12-26 08:51:43 +0000";
layers = (
{
hints = (
{
horizontal = 1;
place = (-123, 21);
target = up;
type = BottomGhost;
},
{
horizontal = 1;
place = (492, -41);
place = (492, -41);
type = Stem;
},
{
place = (136, -33);
place = (136, -33);
type = Stem;
}
);
layerId = m01;
shapes = (
{
closed = 1;
nodes = (
(136,0,l),
(181,0,l),
(235,50,l),
(335,615,l),
(569,615,l),
(583,697,l),
(25,697,l),
(11,615,l),
(245,615,l)
);
}
);
width = 608;
}
);
note = T;
unicode = 84;
},
{
glyphname = Tbar;
kernLeft = T;
kernRight = T;
lastChange = "2022-12-26 08:51:43 +0000";
layers = (
{
hints = (
{
horizontal = 1;
place = (-123, 21);
target = up;
type = BottomGhost;
},
{
horizontal = 1;
place = (197, -65);
place = (197, -65);
type = Stem;
},
{
horizontal = 1;
place = (492, -41);
place = (492, -41);
type = Stem;
},
{
place = (136, -33);
place = (136, -33);
type = Stem;
}
);
layerId = m01;
shapes = (
{
closed = 1;
nodes = (
(569,615,l),
(583,697,l),
(25,697,l),
(11,615,l),
(245,615,l),
(203,378,l),
(104,378,l),
(94,320,l),
(193,320,l),
(136,0,l),
(226,0,l),
(283,320,l),
(382,320,l),
(392,378,l),
(293,378,l),
(335,615,l)
);
}
);
width = 608;
}
);
note = Tbar;
unicode = 358;
},
{
glyphname = Tcaron;
kernLeft = T;
kernRight = T;
lastChange = "2022-12-26 08:51:43 +0000";
layers = (
{
hints = (
{
horizontal = 1;
place = (-123, 21);
target = up;
type = BottomGhost;
},
{
horizontal = 1;
place = (492, -41);
place = (492, -41);
type = Stem;
},
{
place = (136, -33);
place = (136, -33);
type = Stem;
}
);
layerId = m01;
shapes = (
{
closed = 1;
nodes = (
(312,744,l),
(491,901,l),
(422,901,l),
(325,815,l),
(258,901,l),
(189,901,l)
);
},
{
closed = 1;
nodes = (
(136,0,l),
(226,0,l),
(335,615,l),
(569,615,l),
(583,697,l),
(25,697,l),
(11,615,l),
(245,615,l)
);
}
);
width = 608;
}
);
note = Tcaron;
unicode = 356;
},
{
glyphname = uni0162;
kernLeft = T;
kernRight = T;
lastChange = "2022-12-26 08:51:43 +0000";
layers = (
{
hints = (
{
horizontal = 1;
place = (-379, -72);
place = (-379, -72);
type = Stem;
},
{
horizontal = 1;
place = (-218, -87);
place = (-218, -87);
type = Stem;
},
{
horizontal = 1;
place = (-123, 21);
target = up;
type = BottomGhost;
},
{
horizontal = 1;
place = (492, -41);
place = (492, -41);
type = Stem;
},
{
place = (136, -33);
place = (136, -33);
type = Stem;
},
{
place = (224, -71);
place = (224, -71);
type = Stem;
}
);
layerId = m01;
shapes = (
{
closed = 1;
nodes = (
(226,0,l),
(335,615,l),
(569,615,l),
(583,697,l),
(25,697,l),
(11,615,l),
(245,615,l),
(136,0,l),
(154,0,l),
(81,-95,l),
(108,-95,o),
(133,-96,o),
(152,-101,cs),
(181,-108,o),
(202,-123,o),
(197,-155,cs),
(191,-186,o),
(168,-205,o),
(136,-205,cs),
(116,-205,o),
(94,-196,o),
(81,-173,c),
(43,-214,l),
(63,-243,o),
(96,-256,o),
(124,-256,cs),
(187,-256,o),
(239,-212,o),
(249,-153,cs),
(255,-117,o),
(242,-91,o),
(213,-76,cs),
(197,-68,o),
(180,-63,o),
(157,-59,c),
(206,0,l)
);
}
);
width = 608;
}
);
note = uni0162;
unicode = 354;
},
{
glyphname = uni021A;
kernLeft = T;
kernRight = T;
lastChange = "2022-12-26 08:51:43 +0000";
layers = (
{
hints = (
{
horizontal = 1;
place = (-346, 45);
place = (-346, 45);
type = Stem;
},
{
horizontal = 1;
place = (-123, 21);
target = up;
type = BottomGhost;
},
{
horizontal = 1;
place = (492, -41);
place = (492, -41);
type = Stem;
},
{
place = (136, -33);
place = (136, -33);
type = Stem;
}
);
layerId = m01;
shapes = (
{
closed = 1;
nodes = (
(136,0,l),
(226,0,l),
(335,615,l),
(569,615,l),
(583,697,l),
(25,697,l),
(11,615,l),
(245,615,l)
);
},
{
closed = 1;
nodes = (
(15,-223,l),
(68,-223,l),
(216,-55,l),
(125,-55,l)
);
}
);
width = 608;
}
);
note = uni021A;
unicode = 538;
},
{
glyphname = U;
kernLeft = U;
kernRight = J;
lastChange = "2022-12-26 08:51:43 +0000";
layers = (
{
hints = (
{
horizontal = 1;
place = (-135, -36);
place = (-135, -36);
type = Stem;
},
{
horizontal = 1;
place = (574, -20);
target = down;
type = TopGhost;
},
{
place = (-32, -34);
place = (-32, -34);
type = Stem;
},
{
place = (390, -34);
place = (390, -34);
type = Stem;
}
);
layerId = m01;
shapes = (
{
closed = 1;
nodes = (
(528,697,ls),
(518,697,o),
(512,692,o),
(510,682,cs),
(436,263,ls),
(414,133,o),
(352,75,o),
(236,75,cs),
(121,75,o),
(80,132,o),
(103,261,cs),
(177,682,ls),
(179,692,o),
(175,697,o),
(165,697,cs),
(91,697,l),
(13,252,ls),
(-18,79,o),
(55,-12,o),
(221,-12,cs),
(388,-12,o),
(493,80,o),
(524,257,cs),
(602,697,l)
);
}
);
width = 693;
}
);
note = U;
unicode = 85;
},
{
glyphname = Uacute;
kernLeft = U;
kernRight = J;
lastChange = "2022-12-26 08:51:43 +0000";
layers = (
{
hints = (
{
horizontal = 1;
place = (-135, -36);
place = (-135, -36);
type = Stem;
},
{
horizontal = 1;
place = (574, -20);
target = down;
type = TopGhost;
},
{
horizontal = 1;
place = (637, 18);
place = (637, 18);
type = Stem;
},
{
place = (-32, -34);
place = (-32, -34);
type = Stem;
},
{
place = (390, -34);
place = (390, -34);
type = Stem;
}
);
layerId = m01;
shapes = (
{
closed = 1;
nodes = (
(326,760,l),
(390,760,l),
(552,901,l),
(460,901,l)
);
},
{
closed = 1;
nodes = (
(388,-12,o),
(493,80,o),
(524,257,cs),
(602,697,l),
(513,697,l),
(436,263,ls),
(414,133,o),
(352,75,o),
(236,75,cs),
(121,75,o),
(80,132,o),
(103,261,cs),
(180,697,l),
(91,697,l),
(13,252,ls),
(-18,79,o),
(55,-12,o),
(221,-12,cs)
);
}
);
width = 693;
}
);
note = Uacute;
unicode = 218;
},
{
glyphname = uni01D3;
kernLeft = U;
kernRight = J;
lastChange = "2022-12-26 08:51:43 +0000";
layers = (
{
hints = (
{
horizontal = 1;
place = (-135, -36);
place = (-135, -36);
type = Stem;
},
{
horizontal = 1;
place = (574, -20);
target = down;
type = TopGhost;
},
{
place = (-32, -34);
place = (-32, -34);
type = Stem;
},
{
place = (390, -34);
place = (390, -34);
type = Stem;
}
);
layerId = m01;
shapes = (
{
closed = 1;
nodes = (
(355,744,l),
(534,901,l),
(465,901,l),
(368,815,l),
(301,901,l),
(232,901,l)
);
},
{
closed = 1;
nodes = (
(388,-12,o),
(493,80,o),
(524,257,cs),
(602,697,l),
(513,697,l),
(436,263,ls),
(414,133,o),
(352,75,o),
(236,75,cs),
(121,75,o),
(80,132,o),
(103,261,cs),
(180,697,l),
(91,697,l),
(13,252,ls),
(-18,79,o),
(55,-12,o),
(221,-12,cs)
);
}
);
width = 693;
}
);
note = uni01D3;
unicode = 467;
},
{
glyphname = Ucircumflex;
kernLeft = U;
kernRight = J;
lastChange = "2022-12-26 08:51:43 +0000";
layers = (
{
hints = (
{
horizontal = 1;
place = (-135, -36);
place = (-135, -36);
type = Stem;
},
{
horizontal = 1;
place = (574, -20);
target = down;
type = TopGhost;
},
{
place = (-32, -34);
place = (-32, -34);
type = Stem;
},
{
place = (390, -34);
place = (390, -34);
type = Stem;
}
);
layerId = m01;
shapes = (
{
closed = 1;
nodes = (
(205,750,l),
(274,750,l),
(372,839,l),
(438,750,l),
(507,750,l),
(385,914,l)
);
},
{
closed = 1;
nodes = (
(388,-12,o),
(493,80,o),
(524,257,cs),
(602,697,l),
(513,697,l),
(436,263,ls),
(414,133,o),
(352,75,o),
(236,75,cs),
(121,75,o),
(80,132,o),
(103,261,cs),
(180,697,l),
(91,697,l),
(13,252,ls),
(-18,79,o),
(55,-12,o),
(221,-12,cs)
);
}
);
width = 693;
}
);
note = Ucircumflex;
unicode = 219;
},
{
glyphname = Udieresis;
kernLeft = U;
kernRight = J;
lastChange = "2022-12-26 08:51:43 +0000";
layers = (
{
hints = (
{
horizontal = 1;
place = (-135, -36);
place = (-135, -36);
type = Stem;
},
{
horizontal = 1;
place = (574, -20);
target = down;
type = TopGhost;
},
{
horizontal = 1;
place = (673, -18);
place = (673, -18);
type = Stem;
},
{
place = (-32, -34);
place = (-32, -34);
type = Stem;
},
{
place = (88, -36);
place = (88, -36);
type = Stem;
},
{
place = (390, -34);
place = (390, -34);
type = Stem;
},
{
place = (273, -36);
place = (273, -36);
type = Stem;
}
);
layerId = m01;
shapes = (
{
closed = 1;
nodes = (
(228,796,l),
(315,796,l),
(334,901,l),
(247,901,l)
);
},
{
closed = 1;
nodes = (
(413,796,l),
(500,796,l),
(519,901,l),
(432,901,l)
);
},
{
closed = 1;
nodes = (
(388,-12,o),
(493,80,o),
(524,257,cs),
(602,697,l),
(513,697,l),
(436,263,ls),
(414,133,o),
(352,75,o),
(236,75,cs),
(121,75,o),
(80,132,o),
(103,261,cs),
(180,697,l),
(91,697,l),
(13,252,ls),
(-18,79,o),
(55,-12,o),
(221,-12,cs)
);
}
);
width = 693;
}
);
note = Udieresis;
unicode = 220;
},
{
glyphname = uni01D7;
kernLeft = U;
kernRight = J;
lastChange = "2022-12-26 08:51:43 +0000";
layers = (
{
hints = (
{
horizontal = 1;
place = (-135, -36);
place = (-135, -36);
type = Stem;
},
{
horizontal = 1;
place = (574, -20);
target = down;
type = TopGhost;
},
{
horizontal = 1;
place = (673, -18);
place = (673, -18);
type = Stem;
},
{
horizontal = 1;
place = (841, 18);
place = (841, 18);
type = Stem;
},
{
place = (-32, -34);
place = (-32, -34);
type = Stem;
},
{
place = (88, -36);
place = (88, -36);
type = Stem;
},
{
place = (390, -34);
place = (390, -34);
type = Stem;
},
{
place = (273, -36);
place = (273, -36);
type = Stem;
}
);
layerId = m01;
shapes = (
{
closed = 1;
nodes = (
(362,964,l),
(426,964,l),
(588,1105,l),
(496,1105,l)
);
},
{
closed = 1;
nodes = (
(228,796,l),
(315,796,l),
(334,901,l),
(247,901,l)
);
},
{
closed = 1;
nodes = (
(413,796,l),
(500,796,l),
(519,901,l),
(432,901,l)
);
},
{
closed = 1;
nodes = (
(388,-12,o),
(493,80,o),
(524,257,cs),
(602,697,l),
(513,697,l),
(436,263,ls),
(414,133,o),
(352,75,o),
(236,75,cs),
(121,75,o),
(80,132,o),
(103,261,cs),
(180,697,l),
(91,697,l),
(13,252,ls),
(-18,79,o),
(55,-12,o),
(221,-12,cs)
);
}
);
width = 693;
}
);
note = uni01D7;
unicode = 471;
},
{
glyphname = uni01D9;
kernLeft = U;
kernRight = J;
lastChange = "2022-12-26 08:51:43 +0000";
layers = (
{
hints = (
{
horizontal = 1;
place = (-135, -36);
place = (-135, -36);
type = Stem;
},
{
horizontal = 1;
place = (574, -20);
target = down;
type = TopGhost;
},
{
horizontal = 1;
place = (673, -18);
place = (673, -18);
type = Stem;
},
{
place = (-32, -34);
place = (-32, -34);
type = Stem;
},
{
place = (88, -36);
place = (88, -36);
type = Stem;
},
{
place = (390, -34);
place = (390, -34);
type = Stem;
},
{
place = (273, -36);
place = (273, -36);
type = Stem;
}
);
layerId = m01;
shapes = (
{
closed = 1;
nodes = (
(391,948,l),
(570,1105,l),
(501,1105,l),
(404,1019,l),
(337,1105,l),
(268,1105,l)
);
},
{
closed = 1;
nodes = (
(228,796,l),
(315,796,l),
(334,901,l),
(247,901,l)
);
},
{
closed = 1;
nodes = (
(413,796,l),
(500,796,l),
(519,901,l),
(432,901,l)
);
},
{
closed = 1;
nodes = (
(388,-12,o),
(493,80,o),
(524,257,cs),
(602,697,l),
(513,697,l),
(436,263,ls),
(414,133,o),
(352,75,o),
(236,75,cs),
(121,75,o),
(80,132,o),
(103,261,cs),
(180,697,l),
(91,697,l),
(13,252,ls),
(-18,79,o),
(55,-12,o),
(221,-12,cs)
);
}
);
width = 693;
}
);
note = uni01D9;
unicode = 473;
},
{
glyphname = uni01DB;
kernLeft = U;
kernRight = J;
lastChange = "2022-12-26 08:51:43 +0000";
layers = (
{
hints = (
{
horizontal = 1;
place = (-135, -36);
place = (-135, -36);
type = Stem;
},
{
horizontal = 1;
place = (574, -20);
target = down;
type = TopGhost;
},
{
horizontal = 1;
place = (673, -18);
place = (673, -18);
type = Stem;
},
{
horizontal = 1;
place = (841, 18);
place = (841, 18);
type = Stem;
},
{
place = (-32, -34);
place = (-32, -34);
type = Stem;
},
{
place = (88, -36);
place = (88, -36);
type = Stem;
},
{
place = (390, -34);
place = (390, -34);
type = Stem;
},
{
place = (273, -36);
place = (273, -36);
type = Stem;
}
);
layerId = m01;
shapes = (
{
closed = 1;
nodes = (
(361,964,l),
(427,964,l),
(348,1105,l),
(256,1105,l)
);
},
{
closed = 1;
nodes = (
(228,796,l),
(315,796,l),
(334,901,l),
(247,901,l)
);
},
{
closed = 1;
nodes = (
(413,796,l),
(500,796,l),
(519,901,l),
(432,901,l)
);
},
{
closed = 1;
nodes = (
(388,-12,o),
(493,80,o),
(524,257,cs),
(602,697,l),
(513,697,l),
(436,263,ls),
(414,133,o),
(352,75,o),
(236,75,cs),
(121,75,o),
(80,132,o),
(103,261,cs),
(180,697,l),
(91,697,l),
(13,252,ls),
(-18,79,o),
(55,-12,o),
(221,-12,cs)
);
}
);
width = 693;
}
);
note = uni01DB;
unicode = 475;
},
{
glyphname = uni01D5;
kernLeft = U;
kernRight = J;
lastChange = "2022-12-26 08:51:43 +0000";
layers = (
{
hints = (
{
horizontal = 1;
place = (-135, -36);
place = (-135, -36);
type = Stem;
},
{
horizontal = 1;
place = (574, -20);
target = down;
type = TopGhost;
},
{
horizontal = 1;
place = (673, -18);
place = (673, -18);
type = Stem;
},
{
horizontal = 1;
place = (873, -72);
place = (873, -72);
type = Stem;
},
{
place = (-32, -34);
place = (-32, -34);
type = Stem;
},
{
place = (88, -36);
place = (88, -36);
type = Stem;
},
{
place = (390, -34);
place = (390, -34);
type = Stem;
},
{
place = (273, -36);
place = (273, -36);
type = Stem;
}
);
layerId = m01;
shapes = (
{
closed = 1;
nodes = (
(263,996,l),
(535,996,l),
(544,1047,l),
(272,1047,l)
);
},
{
closed = 1;
nodes = (
(228,796,l),
(315,796,l),
(334,901,l),
(247,901,l)
);
},
{
closed = 1;
nodes = (
(413,796,l),
(500,796,l),
(519,901,l),
(432,901,l)
);
},
{
closed = 1;
nodes = (
(388,-12,o),
(493,80,o),
(524,257,cs),
(602,697,l),
(513,697,l),
(436,263,ls),
(414,133,o),
(352,75,o),
(236,75,cs),
(121,75,o),
(80,132,o),
(103,261,cs),
(180,697,l),
(91,697,l),
(13,252,ls),
(-18,79,o),
(55,-12,o),
(221,-12,cs)
);
}
);
width = 693;
}
);
note = uni01D5;
unicode = 469;
},
{
glyphname = uni1EE4;
kernLeft = U;
kernRight = J;
lastChange = "2022-12-26 08:51:43 +0000";
layers = (
{
hints = (
{
horizontal = 1;
place = (-296, -19);
place = (-296, -19);
type = Stem;
},
{
horizontal = 1;
place = (-135, -36);
place = (-135, -36);
type = Stem;
},
{
horizontal = 1;
place = (574, -20);
target = down;
type = TopGhost;
},
{
place = (-32, -34);
place = (-32, -34);
type = Stem;
},
{
place = (176, -27);
place = (176, -27);
type = Stem;
},
{
place = (390, -34);
place = (390, -34);
type = Stem;
}
);
layerId = m01;
shapes = (
{
closed = 1;
nodes = (
(388,-12,o),
(493,80,o),
(524,257,cs),
(602,697,l),
(513,697,l),
(436,263,ls),
(414,133,o),
(352,75,o),
(236,75,cs),
(121,75,o),
(80,132,o),
(103,261,cs),
(180,697,l),
(91,697,l),
(13,252,ls),
(-18,79,o),
(55,-12,o),
(221,-12,cs)
);
},
{
closed = 1;
nodes = (
(146,-173,l),
(242,-173,l),
(260,-69,l),
(164,-69,l)
);
}
);
width = 693;
}
);
note = uni1EE4;
unicode = 7908;
},
{
glyphname = Ugrave;
kernLeft = U;
kernRight = J;
lastChange = "2022-12-26 08:51:43 +0000";
layers = (
{
hints = (
{
horizontal = 1;
place = (-135, -36);
place = (-135, -36);
type = Stem;
},
{
horizontal = 1;
place = (574, -20);
target = down;
type = TopGhost;
},
{
horizontal = 1;
place = (637, 18);
place = (637, 18);
type = Stem;
},
{
place = (-32, -34);
place = (-32, -34);
type = Stem;
},
{
place = (390, -34);
place = (390, -34);
type = Stem;
}
);
layerId = m01;
shapes = (
{
closed = 1;
nodes = (
(325,760,l),
(391,760,l),
(312,901,l),
(220,901,l)
);
},
{
closed = 1;
nodes = (
(388,-12,o),
(493,80,o),
(524,257,cs),
(602,697,l),
(513,697,l),
(436,263,ls),
(414,133,o),
(352,75,o),
(236,75,cs),
(121,75,o),
(80,132,o),
(103,261,cs),
(180,697,l),
(91,697,l),
(13,252,ls),
(-18,79,o),
(55,-12,o),
(221,-12,cs)
);
}
);
width = 693;
}
);
note = Ugrave;
unicode = 217;
},
{
glyphname = uni1EE6;
kernLeft = U;
kernRight = J;
lastChange = "2022-12-26 08:51:43 +0000";
layers = (
{
hints = (
{
horizontal = 1;
place = (-135, -36);
place = (-135, -36);
type = Stem;
},
{
horizontal = 1;
place = (574, -20);
target = down;
type = TopGhost;
},
{
horizontal = 1;
place = (750, -74);
place = (750, -74);
type = Stem;
},
{
place = (-32, -34);
place = (-32, -34);
type = Stem;
},
{
place = (278, -66);
place = (278, -66);
type = Stem;
},
{
place = (390, -34);
place = (390, -34);
type = Stem;
}
);
layerId = m01;
shapes = (
{
closed = 1;
nodes = (
(347,736,l),
(398,745,o),
(469,757,o),
(480,824,cs),
(492,888,o),
(438,922,o),
(355,922,cs),
(340,922,l),
(331,873,l),
(346,873,ls),
(389,873,o),
(430,863,o),
(424,825,cs),
(417,790,o),
(378,784,o),
(341,778,c)
);
},
{
closed = 1;
nodes = (
(388,-12,o),
(493,80,o),
(524,257,cs),
(602,697,l),
(513,697,l),
(436,263,ls),
(414,133,o),
(352,75,o),
(236,75,cs),
(121,75,o),
(80,132,o),
(103,261,cs),
(180,697,l),
(91,697,l),
(13,252,ls),
(-18,79,o),
(55,-12,o),
(221,-12,cs)
);
}
);
width = 693;
}
);
note = uni1EE6;
unicode = 7910;
},
{
glyphname = Uhorn;
kernLeft = U;
kernRight = J;
lastChange = "2022-12-26 08:51:43 +0000";
layers = (
{
hints = (
{
horizontal = 1;
place = (-135, -36);
place = (-135, -36);
type = Stem;
},
{
horizontal = 1;
place = (574, -20);
target = down;
type = TopGhost;
},
{
place = (-32, -34);
place = (-32, -34);
type = Stem;
},
{
place = (390, -34);
place = (390, -34);
type = Stem;
},
{
place = (551, -58);
place = (551, -58);
type = Stem;
}
);
layerId = m01;
shapes = (
{
closed = 1;
nodes = (
(674,697,l),
(665,645,ls),
(657,599,o),
(631,557,o),
(577,553,c),
(602,697,l),
(513,697,l),
(436,263,ls),
(414,133,o),
(352,75,o),
(236,75,cs),
(121,75,o),
(80,132,o),
(103,261,cs),
(180,697,l),
(91,697,l),
(13,252,ls),
(-18,79,o),
(55,-12,o),
(221,-12,cs),
(388,-12,o),
(493,80,o),
(524,257,cs),
(567,496,l),
(664,499,o),
(715,563,o),
(731,652,cs),
(739,697,l)
);
}
);
width = 693;
}
);
note = Uhorn;
unicode = 431;
},
{
glyphname = uni1EE8;
kernLeft = U;
kernRight = J;
lastChange = "2022-12-26 08:51:43 +0000";
layers = (
{
hints = (
{
horizontal = 1;
place = (-135, -36);
place = (-135, -36);
type = Stem;
},
{
horizontal = 1;
place = (574, -20);
target = down;
type = TopGhost;
},
{
horizontal = 1;
place = (637, 18);
place = (637, 18);
type = Stem;
},
{
place = (-32, -34);
place = (-32, -34);
type = Stem;
},
{
place = (390, -34);
place = (390, -34);
type = Stem;
},
{
place = (551, -58);
place = (551, -58);
type = Stem;
}
);
layerId = m01;
shapes = (
{
closed = 1;
nodes = (
(552,901,l),
(460,901,l),
(326,760,l),
(390,760,l)
);
},
{
closed = 1;
nodes = (
(674,697,l),
(665,645,ls),
(657,599,o),
(631,557,o),
(577,553,c),
(602,697,l),
(513,697,l),
(436,263,ls),
(414,133,o),
(352,75,o),
(236,75,cs),
(121,75,o),
(80,132,o),
(103,261,cs),
(180,697,l),
(91,697,l),
(13,252,ls),
(-18,79,o),
(55,-12,o),
(221,-12,cs),
(388,-12,o),
(493,80,o),
(524,257,cs),
(567,496,l),
(664,499,o),
(715,563,o),
(731,652,cs),
(739,697,l)
);
}
);
width = 693;
}
);
note = uni1EE8;
unicode = 7912;
},
{
glyphname = uni1EF0;
kernLeft = U;
kernRight = J;
lastChange = "2022-12-26 08:51:43 +0000";
layers = (
{
hints = (
{
horizontal = 1;
place = (-296, -19);
place = (-296, -19);
type = Stem;
},
{
horizontal = 1;
place = (-135, -36);
place = (-135, -36);
type = Stem;
},
{
horizontal = 1;
place = (574, -20);
target = down;
type = TopGhost;
},
{
place = (-32, -34);
place = (-32, -34);
type = Stem;
},
{
place = (176, -27);
place = (176, -27);
type = Stem;
},
{
place = (390, -34);
place = (390, -34);
type = Stem;
},
{
place = (551, -58);
place = (551, -58);
type = Stem;
}
);
layerId = m01;
shapes = (
{
closed = 1;
nodes = (
(674,697,l),
(665,645,ls),
(657,599,o),
(631,557,o),
(577,553,c),
(602,697,l),
(513,697,l),
(436,263,ls),
(414,133,o),
(352,75,o),
(236,75,cs),
(121,75,o),
(80,132,o),
(103,261,cs),
(180,697,l),
(91,697,l),
(13,252,ls),
(-18,79,o),
(55,-12,o),
(221,-12,cs),
(388,-12,o),
(493,80,o),
(524,257,cs),
(567,496,l),
(664,499,o),
(715,563,o),
(731,652,cs),
(739,697,l)
);
},
{
closed = 1;
nodes = (
(146,-173,l),
(242,-173,l),
(260,-69,l),
(164,-69,l)
);
}
);
width = 693;
}
);
note = uni1EF0;
unicode = 7920;
},
{
glyphname = uni1EEA;
kernLeft = U;
kernRight = J;
lastChange = "2022-12-26 08:51:43 +0000";
layers = (
{
hints = (
{
horizontal = 1;
place = (-135, -36);
place = (-135, -36);
type = Stem;
},
{
horizontal = 1;
place = (574, -20);
target = down;
type = TopGhost;
},
{
horizontal = 1;
place = (637, 18);
place = (637, 18);
type = Stem;
},
{
place = (-32, -34);
place = (-32, -34);
type = Stem;
},
{
place = (390, -34);
place = (390, -34);
type = Stem;
},
{
place = (551, -58);
place = (551, -58);
type = Stem;
}
);
layerId = m01;
shapes = (
{
closed = 1;
nodes = (
(391,760,l),
(312,901,l),
(220,901,l),
(325,760,l)
);
},
{
closed = 1;
nodes = (
(674,697,l),
(665,645,ls),
(657,599,o),
(631,557,o),
(577,553,c),
(602,697,l),
(513,697,l),
(436,263,ls),
(414,133,o),
(352,75,o),
(236,75,cs),
(121,75,o),
(80,132,o),
(103,261,cs),
(180,697,l),
(91,697,l),
(13,252,ls),
(-18,79,o),
(55,-12,o),
(221,-12,cs),
(388,-12,o),
(493,80,o),
(524,257,cs),
(567,496,l),
(664,499,o),
(715,563,o),
(731,652,cs),
(739,697,l)
);
}
);
width = 693;
}
);
note = uni1EEA;
unicode = 7914;
},
{
glyphname = uni1EEC;
kernLeft = U;
kernRight = J;
lastChange = "2022-12-26 08:51:43 +0000";
layers = (
{
hints = (
{
horizontal = 1;
place = (-135, -36);
place = (-135, -36);
type = Stem;
},
{
horizontal = 1;
place = (574, -20);
target = down;
type = TopGhost;
},
{
horizontal = 1;
place = (750, -74);
place = (750, -74);
type = Stem;
},
{
place = (-32, -34);
place = (-32, -34);
type = Stem;
},
{
place = (278, -66);
place = (278, -66);
type = Stem;
},
{
place = (390, -34);
place = (390, -34);
type = Stem;
},
{
place = (551, -58);
place = (551, -58);
type = Stem;
}
);
layerId = m01;
shapes = (
{
closed = 1;
nodes = (
(417,790,o),
(378,784,o),
(341,778,c),
(347,736,l),
(398,745,o),
(469,757,o),
(480,824,cs),
(492,888,o),
(438,922,o),
(355,922,cs),
(340,922,l),
(331,873,l),
(346,873,ls),
(389,873,o),
(430,863,o),
(424,825,cs)
);
},
{
closed = 1;
nodes = (
(674,697,l),
(665,645,ls),
(657,599,o),
(631,557,o),
(577,553,c),
(602,697,l),
(513,697,l),
(436,263,ls),
(414,133,o),
(352,75,o),
(236,75,cs),
(121,75,o),
(80,132,o),
(103,261,cs),
(180,697,l),
(91,697,l),
(13,252,ls),
(-18,79,o),
(55,-12,o),
(221,-12,cs),
(388,-12,o),
(493,80,o),
(524,257,cs),
(567,496,l),
(664,499,o),
(715,563,o),
(731,652,cs),
(739,697,l)
);
}
);
width = 693;
}
);
note = uni1EEC;
unicode = 7916;
},
{
glyphname = uni1EEE;
kernLeft = U;
kernRight = J;
lastChange = "2022-12-26 08:51:43 +0000";
layers = (
{
hints = (
{
horizontal = 1;
place = (-135, -36);
place = (-135, -36);
type = Stem;
},
{
horizontal = 1;
place = (574, -20);
target = down;
type = TopGhost;
},
{
horizontal = 1;
place = (728, -69);
place = (728, -69);
type = Stem;
},
{
place = (62, -73);
place = (62, -73);
type = Stem;
},
{
place = (332, -71);
place = (332, -71);
type = Stem;
},
{
place = (551, -58);
place = (551, -58);
type = Stem;
},
{
horizontal = 1;
place = (646, -68);
place = (646, -68);
type = Stem;
},
{
place = (390, -34);
place = (390, -34);
type = Stem;
},
{
place = (-32, -34);
place = (-32, -34);
type = Stem;
}
);
layerId = m01;
shapes = (
{
closed = 1;
nodes = (
(354,851,o),
(345,769,o),
(427,769,cs),
(483,769,o),
(528,818,o),
(543,901,c),
(491,901,l),
(483,853,o),
(459,824,o),
(436,824,cs),
(388,824,o),
(392,905,o),
(319,905,cs),
(260,905,o),
(213,858,o),
(199,776,c),
(249,776,l),
(257,823,o),
(279,851,o),
(306,851,cs)
);
},
{
closed = 1;
nodes = (
(674,697,l),
(665,645,ls),
(657,599,o),
(631,557,o),
(577,553,c),
(602,697,l),
(513,697,l),
(436,263,ls),
(414,133,o),
(352,75,o),
(236,75,cs),
(121,75,o),
(80,132,o),
(103,261,cs),
(180,697,l),
(91,697,l),
(13,252,ls),
(-18,79,o),
(55,-12,o),
(221,-12,cs),
(388,-12,o),
(493,80,o),
(524,257,cs),
(567,496,l),
(664,499,o),
(715,563,o),
(731,652,cs),
(739,697,l)
);
}
);
width = 693;
}
);
note = uni1EEE;
unicode = 7918;
},
{
glyphname = Uhungarumlaut;
kernLeft = U;
kernRight = J;
lastChange = "2022-12-26 08:51:43 +0000";
layers = (
{
hints = (
{
horizontal = 1;
place = (-135, -36);
place = (-135, -36);
type = Stem;
},
{
horizontal = 1;
place = (574, -20);
target = down;
type = TopGhost;
},
{
horizontal = 1;
place = (622, 33);
place = (622, 33);
type = Stem;
},
{
place = (-32, -34);
place = (-32, -34);
type = Stem;
},
{
place = (390, -34);
place = (390, -34);
type = Stem;
}
);
layerId = m01;
shapes = (
{
closed = 1;
nodes = (
(234,745,l),
(298,745,l),
(449,901,l),
(371,901,l)
);
},
{
closed = 1;
nodes = (
(411,745,l),
(476,745,l),
(640,901,l),
(548,901,l)
);
},
{
closed = 1;
nodes = (
(388,-12,o),
(493,80,o),
(524,257,cs),
(602,697,l),
(513,697,l),
(436,263,ls),
(414,133,o),
(352,75,o),
(236,75,cs),
(121,75,o),
(80,132,o),
(103,261,cs),
(180,697,l),
(91,697,l),
(13,252,ls),
(-18,79,o),
(55,-12,o),
(221,-12,cs)
);
}
);
width = 693;
}
);
note = Uhungarumlaut;
unicode = 368;
},
{
glyphname = Umacron;
kernLeft = U;
kernRight = J;
lastChange = "2022-12-26 08:51:43 +0000";
layers = (
{
hints = (
{
horizontal = 1;
place = (-135, -36);
place = (-135, -36);
type = Stem;
},
{
horizontal = 1;
place = (574, -20);
target = down;
type = TopGhost;
},
{
horizontal = 1;
place = (669, -72);
place = (669, -72);
type = Stem;
},
{
place = (-32, -34);
place = (-32, -34);
type = Stem;
},
{
place = (390, -34);
place = (390, -34);
type = Stem;
}
);
layerId = m01;
shapes = (
{
closed = 1;
nodes = (
(227,792,l),
(499,792,l),
(508,843,l),
(236,843,l)
);
},
{
closed = 1;
nodes = (
(388,-12,o),
(493,80,o),
(524,257,cs),
(602,697,l),
(513,697,l),
(436,263,ls),
(414,133,o),
(352,75,o),
(236,75,cs),
(121,75,o),
(80,132,o),
(103,261,cs),
(180,697,l),
(91,697,l),
(13,252,ls),
(-18,79,o),
(55,-12,o),
(221,-12,cs)
);
}
);
width = 693;
}
);
note = Umacron;
unicode = 362;
},
{
glyphname = Uogonek;
kernLeft = U;
kernRight = J;
lastChange = "2022-12-26 08:51:43 +0000";
layers = (
{
hints = (
{
horizontal = 1;
place = (-340, -68);
place = (-340, -68);
type = Stem;
},
{
horizontal = 1;
place = (-135, -36);
place = (-135, -36);
type = Stem;
},
{
horizontal = 1;
place = (574, -20);
target = down;
type = TopGhost;
},
{
place = (-32, -34);
place = (-32, -34);
type = Stem;
},
{
place = (145, -71);
place = (145, -71);
type = Stem;
},
{
place = (390, -34);
place = (390, -34);
type = Stem;
}
);
layerId = m01;
shapes = (
{
closed = 1;
nodes = (
(513,697,l),
(436,263,ls),
(414,133,o),
(352,75,o),
(236,75,cs),
(121,75,o),
(80,132,o),
(103,261,cs),
(180,697,l),
(91,697,l),
(13,252,ls),
(-17,83,o),
(52,-8,o),
(210,-12,c),
(172,-37,o),
(132,-77,o),
(123,-127,cs),
(113,-182,o),
(149,-217,o),
(205,-217,cs),
(246,-217,o),
(283,-196,o),
(312,-167,c),
(274,-135,l),
(254,-152,o),
(235,-162,o),
(212,-162,cs),
(190,-162,o),
(170,-151,o),
(176,-119,cs),
(186,-63,o),
(250,-26,o),
(286,-7,c),
(416,15,o),
(497,104,o),
(524,257,cs),
(602,697,l)
);
}
);
width = 693;
}
);
note = Uogonek;
unicode = 370;
},
{
glyphname = Uring;
kernLeft = U;
kernRight = J;
lastChange = "2022-12-26 08:51:43 +0000";
layers = (
{
hints = (
{
horizontal = 1;
place = (-135, -36);
place = (-135, -36);
type = Stem;
},
{
horizontal = 1;
place = (557, -75);
place = (557, -75);
type = Stem;
},
{
horizontal = 1;
place = (715, -76);
place = (715, -76);
type = Stem;
},
{
place = (-32, -34);
place = (-32, -34);
type = Stem;
},
{
place = (121, -75);
place = (121, -75);
type = Stem;
},
{
place = (279, -76);
place = (279, -76);
type = Stem;
},
{
place = (390, -34);
place = (390, -34);
type = Stem;
},
{
horizontal = 1;
place = (574, -20);
target = down;
type = TopGhost;
}
);
layerId = m01;
shapes = (
{
closed = 1;
nodes = (
(401,680,o),
(454,726,o),
(464,783,cs),
(474,840,o),
(435,885,o),
(380,885,cs),
(323,885,o),
(269,840,o),
(259,783,cs),
(249,727,o),
(286,680,o),
(344,680,cs)
);
},
{
closed = 1;
nodes = (
(320,728,o),
(302,752,o),
(307,783,cs),
(313,814,o),
(340,838,o),
(372,838,cs),
(405,838,o),
(423,814,o),
(417,783,cs),
(412,752,o),
(383,728,o),
(352,728,cs)
);
},
{
closed = 1;
nodes = (
(388,-12,o),
(493,80,o),
(524,257,cs),
(602,697,l),
(513,697,l),
(436,263,ls),
(414,133,o),
(352,75,o),
(236,75,cs),
(121,75,o),
(80,132,o),
(103,261,cs),
(180,697,l),
(91,697,l),
(13,252,ls),
(-18,79,o),
(55,-12,o),
(221,-12,cs)
);
}
);
width = 693;
}
);
note = Uring;
unicode = 366;
},
{
glyphname = Utilde;
kernLeft = U;
kernRight = J;
lastChange = "2022-12-26 08:51:43 +0000";
layers = (
{
hints = (
{
horizontal = 1;
place = (-135, -36);
place = (-135, -36);
type = Stem;
},
{
horizontal = 1;
place = (574, -20);
target = down;
type = TopGhost;
},
{
horizontal = 1;
place = (646, -68);
place = (646, -68);
type = Stem;
},
{
horizontal = 1;
place = (728, -69);
place = (728, -69);
type = Stem;
},
{
place = (62, -73);
place = (62, -73);
type = Stem;
},
{
place = (332, -71);
place = (332, -71);
type = Stem;
},
{
place = (390, -34);
place = (390, -34);
type = Stem;
},
{
place = (-32, -34);
place = (-32, -34);
type = Stem;
}
);
layerId = m01;
shapes = (
{
closed = 1;
nodes = (
(483,769,o),
(528,818,o),
(543,901,c),
(491,901,l),
(483,853,o),
(459,824,o),
(436,824,cs),
(388,824,o),
(392,905,o),
(319,905,cs),
(260,905,o),
(213,858,o),
(199,776,c),
(249,776,l),
(257,823,o),
(279,851,o),
(306,851,cs),
(354,851,o),
(345,769,o),
(427,769,cs)
);
},
{
closed = 1;
nodes = (
(388,-12,o),
(493,80,o),
(524,257,cs),
(602,697,l),
(513,697,l),
(436,263,ls),
(414,133,o),
(352,75,o),
(236,75,cs),
(121,75,o),
(80,132,o),
(103,261,cs),
(180,697,l),
(91,697,l),
(13,252,ls),
(-18,79,o),
(55,-12,o),
(221,-12,cs)
);
}
);
width = 693;
}
);
note = Utilde;
unicode = 360;
},
{
glyphname = V;
kernLeft = V;
kernRight = V;
lastChange = "2022-12-26 08:51:43 +0000";
layers = (
{
hints = (
{
horizontal = 1;
place = (-123, 21);
target = up;
type = BottomGhost;
},
{
horizontal = 1;
place = (574, -20);
target = down;
type = TopGhost;
},
{
place = (-98, 500);
place = (-98, 500);
type = Stem;
}
);
layerId = m01;
shapes = (
{
closed = 1;
nodes = (
(559,697,ls),
(554,697,o),
(548,693,o),
(545,688,cs),
(240,142,l),
(124,697,l),
(25,697,l),
(179,0,l),
(249,0,l),
(648,697,l)
);
}
);
width = 674;
}
);
note = V;
unicode = 86;
},
{
glyphname = W;
kernLeft = W;
kernRight = W;
lastChange = "2022-12-26 08:51:43 +0000";
layers = (
{
hints = (
{
horizontal = 1;
place = (-123, 21);
target = up;
type = BottomGhost;
},
{
horizontal = 1;
place = (574, -20);
target = down;
type = TopGhost;
},
{
place = (-91, 800);
place = (-91, 800);
type = Stem;
},
{
horizontal = 1;
place = (-123, 11);
place = (-123, 11);
type = Stem;
}
);
layerId = m01;
shapes = (
{
closed = 1;
nodes = (
(876,697,ls),
(866,697,o),
(859,693,o),
(855,683,cs),
(602,134,l),
(525,659,l),
(462,659,ls),
(452,659,o),
(445,655,o),
(440,645,cs),
(186,134,l),
(124,697,l),
(32,697,l),
(113,0,l),
(201,0,l),
(462,518,l),
(539,0,l),
(628,0,l),
(955,697,l)
);
}
);
width = 987;
}
);
note = W;
unicode = 87;
},
{
glyphname = Wacute;
kernLeft = W;
kernRight = W;
lastChange = "2022-12-26 08:51:43 +0000";
layers = (
{
hints = (
{
horizontal = 1;
place = (-123, 21);
target = up;
type = BottomGhost;
},
{
horizontal = 1;
place = (574, -20);
target = down;
type = TopGhost;
},
{
horizontal = 1;
place = (637, 18);
place = (637, 18);
type = Stem;
},
{
place = (-91, 800);
place = (-91, 800);
type = Stem;
},
{
horizontal = 1;
place = (-123, 11);
place = (-123, 11);
type = Stem;
}
);
layerId = m01;
shapes = (
{
closed = 1;
nodes = (
(473,760,l),
(537,760,l),
(699,901,l),
(607,901,l)
);
},
{
closed = 1;
nodes = (
(113,0,l),
(201,0,l),
(462,518,l),
(539,0,l),
(628,0,l),
(955,697,l),
(861,697,l),
(602,134,l),
(525,659,l),
(447,659,l),
(186,134,l),
(124,697,l),
(32,697,l)
);
}
);
width = 987;
}
);
note = Wacute;
unicode = 7810;
},
{
glyphname = Wcircumflex;
kernLeft = W;
kernRight = W;
lastChange = "2022-12-26 08:51:43 +0000";
layers = (
{
hints = (
{
horizontal = 1;
place = (-123, 21);
target = up;
type = BottomGhost;
},
{
horizontal = 1;
place = (574, -20);
target = down;
type = TopGhost;
},
{
place = (-91, 800);
place = (-91, 800);
type = Stem;
},
{
horizontal = 1;
place = (-123, 11);
place = (-123, 11);
type = Stem;
}
);
layerId = m01;
shapes = (
{
closed = 1;
nodes = (
(352,750,l),
(421,750,l),
(519,839,l),
(585,750,l),
(654,750,l),
(532,914,l)
);
},
{
closed = 1;
nodes = (
(113,0,l),
(201,0,l),
(462,518,l),
(539,0,l),
(628,0,l),
(955,697,l),
(861,697,l),
(602,134,l),
(525,659,l),
(447,659,l),
(186,134,l),
(124,697,l),
(32,697,l)
);
}
);
width = 987;
}
);
note = Wcircumflex;
unicode = 372;
},
{
glyphname = Wdieresis;
kernLeft = W;
kernRight = W;
lastChange = "2022-12-26 08:51:43 +0000";
layers = (
{
hints = (
{
horizontal = 1;
place = (-123, 21);
target = up;
type = BottomGhost;
},
{
horizontal = 1;
place = (574, -20);
target = down;
type = TopGhost;
},
{
horizontal = 1;
place = (673, -18);
place = (673, -18);
type = Stem;
},
{
place = (234, -36);
place = (234, -36);
type = Stem;
},
{
place = (419, -36);
place = (419, -36);
type = Stem;
},
{
horizontal = 1;
place = (-123, 11);
place = (-123, 11);
type = Stem;
}
);
layerId = m01;
shapes = (
{
closed = 1;
nodes = (
(374,796,l),
(461,796,l),
(480,901,l),
(393,901,l)
);
},
{
closed = 1;
nodes = (
(559,796,l),
(646,796,l),
(665,901,l),
(578,901,l)
);
},
{
closed = 1;
nodes = (
(113,0,l),
(201,0,l),
(462,518,l),
(539,0,l),
(628,0,l),
(955,697,l),
(861,697,l),
(602,134,l),
(525,659,l),
(447,659,l),
(186,134,l),
(124,697,l),
(32,697,l)
);
}
);
width = 987;
}
);
note = Wdieresis;
unicode = 7812;
},
{
glyphname = Wgrave;
kernLeft = W;
kernRight = W;
lastChange = "2022-12-26 08:51:43 +0000";
layers = (
{
hints = (
{
horizontal = 1;
place = (-123, 21);
target = up;
type = BottomGhost;
},
{
horizontal = 1;
place = (574, -20);
target = down;
type = TopGhost;
},
{
horizontal = 1;
place = (637, 18);
place = (637, 18);
type = Stem;
},
{
place = (-91, 800);
place = (-91, 800);
type = Stem;
},
{
horizontal = 1;
place = (-123, 11);
place = (-123, 11);
type = Stem;
}
);
layerId = m01;
shapes = (
{
closed = 1;
nodes = (
(472,760,l),
(538,760,l),
(459,901,l),
(367,901,l)
);
},
{
closed = 1;
nodes = (
(113,0,l),
(201,0,l),
(462,518,l),
(539,0,l),
(628,0,l),
(955,697,l),
(861,697,l),
(602,134,l),
(525,659,l),
(447,659,l),
(186,134,l),
(124,697,l),
(32,697,l)
);
}
);
width = 987;
}
);
note = Wgrave;
unicode = 7808;
},
{
glyphname = X;
kernLeft = X;
kernRight = X;
lastChange = "2022-12-26 08:51:43 +0000";
layers = (
{
hints = (
{
horizontal = 1;
place = (-123, 21);
target = up;
type = BottomGhost;
},
{
horizontal = 1;
place = (574, -20);
target = down;
type = TopGhost;
},
{
place = (-93, 479);
place = (-93, 479);
type = Stem;
}
);
layerId = m01;
shapes = (
{
closed = 1;
nodes = (
(396,12,ls),
(401,4,o),
(407,0,o),
(417,0,cs),
(509,0,l),
(331,350,l),
(628,697,l),
(522,697,l),
(281,412,l),
(147,685,ls),
(142,693,o),
(136,697,o),
(126,697,cs),
(33,697,l),
(208,350,l),
(-93,0,l),
(15,0,l),
(257,285,l)
);
}
);
width = 661;
}
);
note = X;
unicode = 88;
},
{
glyphname = Y;
kernLeft = Y;
kernRight = Y;
lastChange = "2022-12-26 08:51:43 +0000";
layers = (
{
hints = (
{
horizontal = 1;
place = (-123, 21);
target = up;
type = BottomGhost;
},
{
horizontal = 1;
place = (574, -20);
target = down;
type = TopGhost;
},
{
place = (162, -34);
place = (162, -34);
type = Stem;
}
);
layerId = m01;
shapes = (
{
closed = 1;
nodes = (
(162,0,l),
(251,0,l),
(299,269,l),
(639,697,l),
(533,697,l),
(268,355,l),
(124,697,l),
(19,697,l),
(210,269,l)
);
}
);
width = 658;
}
);
note = Y;
unicode = 89;
},
{
glyphname = Yacute;
kernLeft = Y;
kernRight = Y;
lastChange = "2022-12-26 08:51:43 +0000";
layers = (
{
hints = (
{
horizontal = 1;
place = (-123, 21);
target = up;
type = BottomGhost;
},
{
horizontal = 1;
place = (574, -20);
target = down;
type = TopGhost;
},
{
horizontal = 1;
place = (637, 18);
place = (637, 18);
type = Stem;
},
{
place = (162, -34);
place = (162, -34);
type = Stem;
}
);
layerId = m01;
shapes = (
{
closed = 1;
nodes = (
(309,760,l),
(373,760,l),
(535,901,l),
(443,901,l)
);
},
{
closed = 1;
nodes = (
(162,0,l),
(251,0,l),
(299,269,l),
(639,697,l),
(533,697,l),
(268,355,l),
(124,697,l),
(19,697,l),
(210,269,l)
);
}
);
width = 658;
}
);
note = Yacute;
unicode = 221;
},
{
glyphname = Ycircumflex;
kernLeft = Y;
kernRight = Y;
lastChange = "2022-12-26 08:51:43 +0000";
layers = (
{
hints = (
{
horizontal = 1;
place = (-123, 21);
target = up;
type = BottomGhost;
},
{
horizontal = 1;
place = (574, -20);
target = down;
type = TopGhost;
},
{
place = (162, -34);
place = (162, -34);
type = Stem;
}
);
layerId = m01;
shapes = (
{
closed = 1;
nodes = (
(187,750,l),
(256,750,l),
(354,839,l),
(420,750,l),
(489,750,l),
(367,914,l)
);
},
{
closed = 1;
nodes = (
(162,0,l),
(251,0,l),
(299,269,l),
(639,697,l),
(533,697,l),
(268,355,l),
(124,697,l),
(19,697,l),
(210,269,l)
);
}
);
width = 658;
}
);
note = Ycircumflex;
unicode = 374;
},
{
glyphname = Ydieresis;
kernLeft = Y;
kernRight = Y;
lastChange = "2022-12-26 08:51:43 +0000";
layers = (
{
hints = (
{
horizontal = 1;
place = (-123, 21);
target = up;
type = BottomGhost;
},
{
horizontal = 1;
place = (574, -20);
target = down;
type = TopGhost;
},
{
horizontal = 1;
place = (673, -18);
place = (673, -18);
type = Stem;
},
{
place = (70, -36);
place = (70, -36);
type = Stem;
},
{
place = (255, -36);
place = (255, -36);
type = Stem;
},
{
place = (162, -34);
place = (162, -34);
type = Stem;
}
);
layerId = m01;
shapes = (
{
closed = 1;
nodes = (
(210,796,l),
(297,796,l),
(316,901,l),
(229,901,l)
);
},
{
closed = 1;
nodes = (
(395,796,l),
(482,796,l),
(501,901,l),
(414,901,l)
);
},
{
closed = 1;
nodes = (
(162,0,l),
(251,0,l),
(299,269,l),
(639,697,l),
(533,697,l),
(268,355,l),
(124,697,l),
(19,697,l),
(210,269,l)
);
}
);
width = 658;
}
);
note = Ydieresis;
unicode = 376;
},
{
glyphname = uni1EF4;
kernLeft = Y;
kernRight = Y;
lastChange = "2022-12-26 08:51:43 +0000";
layers = (
{
hints = (
{
horizontal = 1;
place = (-296, -19);
place = (-296, -19);
type = Stem;
},
{
horizontal = 1;
place = (-123, 21);
target = up;
type = BottomGhost;
},
{
horizontal = 1;
place = (574, -20);
target = down;
type = TopGhost;
},
{
place = (162, -34);
place = (162, -34);
type = Stem;
},
{
place = (158, -27);
place = (158, -27);
type = Stem;
}
);
layerId = m01;
shapes = (
{
closed = 1;
nodes = (
(162,0,l),
(251,0,l),
(299,269,l),
(639,697,l),
(533,697,l),
(268,355,l),
(124,697,l),
(19,697,l),
(210,269,l)
);
},
{
closed = 1;
nodes = (
(128,-173,l),
(224,-173,l),
(242,-69,l),
(146,-69,l)
);
}
);
width = 658;
}
);
note = uni1EF4;
unicode = 7924;
},
{
glyphname = Ygrave;
kernLeft = Y;
kernRight = Y;
lastChange = "2022-12-26 08:51:43 +0000";
layers = (
{
hints = (
{
horizontal = 1;
place = (-123, 21);
target = up;
type = BottomGhost;
},
{
horizontal = 1;
place = (574, -20);
target = down;
type = TopGhost;
},
{
horizontal = 1;
place = (637, 18);
place = (637, 18);
type = Stem;
},
{
place = (162, -34);
place = (162, -34);
type = Stem;
}
);
layerId = m01;
shapes = (
{
closed = 1;
nodes = (
(307,760,l),
(373,760,l),
(294,901,l),
(202,901,l)
);
},
{
closed = 1;
nodes = (
(162,0,l),
(251,0,l),
(299,269,l),
(639,697,l),
(533,697,l),
(268,355,l),
(124,697,l),
(19,697,l),
(210,269,l)
);
}
);
width = 658;
}
);
note = Ygrave;
unicode = 7922;
},
{
glyphname = uni1EF6;
kernLeft = Y;
kernRight = Y;
lastChange = "2022-12-26 08:51:43 +0000";
layers = (
{
hints = (
{
horizontal = 1;
place = (-123, 21);
target = up;
type = BottomGhost;
},
{
horizontal = 1;
place = (574, -20);
target = down;
type = TopGhost;
},
{
horizontal = 1;
place = (750, -74);
place = (750, -74);
type = Stem;
},
{
place = (162, -34);
place = (162, -34);
type = Stem;
},
{
place = (260, -66);
place = (260, -66);
type = Stem;
}
);
layerId = m01;
shapes = (
{
closed = 1;
nodes = (
(329,736,l),
(380,745,o),
(451,757,o),
(462,824,cs),
(474,888,o),
(420,922,o),
(337,922,cs),
(322,922,l),
(313,873,l),
(328,873,ls),
(371,873,o),
(412,863,o),
(406,825,cs),
(399,790,o),
(360,784,o),
(323,778,c)
);
},
{
closed = 1;
nodes = (
(162,0,l),
(251,0,l),
(299,269,l),
(639,697,l),
(533,697,l),
(268,355,l),
(124,697,l),
(19,697,l),
(210,269,l)
);
}
);
width = 658;
}
);
note = uni1EF6;
unicode = 7926;
},
{
glyphname = uni1EF8;
kernLeft = Y;
kernRight = Y;
lastChange = "2022-12-26 08:51:43 +0000";
layers = (
{
hints = (
{
horizontal = 1;
place = (-123, 21);
target = up;
type = BottomGhost;
},
{
horizontal = 1;
place = (574, -20);
target = down;
type = TopGhost;
},
{
horizontal = 1;
place = (646, -68);
place = (646, -68);
type = Stem;
},
{
horizontal = 1;
place = (728, -69);
place = (728, -69);
type = Stem;
},
{
place = (45, -73);
place = (45, -73);
type = Stem;
},
{
place = (162, -34);
place = (162, -34);
type = Stem;
},
{
place = (315, -71);
place = (315, -71);
type = Stem;
}
);
layerId = m01;
shapes = (
{
closed = 1;
nodes = (
(466,769,o),
(511,818,o),
(526,901,c),
(474,901,l),
(466,853,o),
(442,824,o),
(419,824,cs),
(371,824,o),
(375,905,o),
(302,905,cs),
(243,905,o),
(196,858,o),
(182,776,c),
(232,776,l),
(240,823,o),
(262,851,o),
(289,851,cs),
(337,851,o),
(328,769,o),
(410,769,cs)
);
},
{
closed = 1;
nodes = (
(162,0,l),
(251,0,l),
(299,269,l),
(639,697,l),
(533,697,l),
(268,355,l),
(124,697,l),
(19,697,l),
(210,269,l)
);
}
);
width = 658;
}
);
note = uni1EF8;
unicode = 7928;
},
{
glyphname = Z;
kernLeft = Z;
kernRight = Z;
lastChange = "2022-12-26 08:51:43 +0000";
layers = (
{
hints = (
{
horizontal = 1;
place = (-123, -41);
place = (-123, -41);
type = Stem;
},
{
horizontal = 1;
place = (492, -41);
place = (492, -41);
type = Stem;
},
{
place = (-83, 431);
place = (-83, 431);
type = Stem;
}
);
layerId = m01;
shapes = (
{
closed = 1;
nodes = (
(481,67,ls),
(483,77,o),
(479,82,o),
(469,82,cs),
(52,82,l),
(582,629,l),
(594,697,l),
(63,697,l),
(49,615,l),
(463,615,l),
(-71,65,l),
(-83,0,l),
(469,0,l)
);
}
);
width = 640;
}
);
note = Z;
unicode = 90;
},
{
glyphname = Zacute;
kernLeft = Z;
kernRight = Z;
lastChange = "2022-12-26 08:51:43 +0000";
layers = (
{
hints = (
{
horizontal = 1;
place = (-123, -41);
place = (-123, -41);
type = Stem;
},
{
horizontal = 1;
place = (492, -41);
place = (492, -41);
type = Stem;
},
{
horizontal = 1;
place = (637, 18);
place = (637, 18);
type = Stem;
},
{
place = (-83, 431);
place = (-83, 431);
type = Stem;
}
);
layerId = m01;
shapes = (
{
closed = 1;
nodes = (
(525,901,l),
(433,901,l),
(299,760,l),
(363,760,l)
);
},
{
closed = 1;
nodes = (
(594,697,l),
(63,697,l),
(49,615,l),
(463,615,l),
(-71,65,l),
(-83,0,l),
(469,0,l),
(484,82,l),
(52,82,l),
(582,629,l)
);
}
);
width = 640;
}
);
note = Zacute;
unicode = 377;
},
{
glyphname = Zcaron;
kernLeft = Z;
kernRight = Z;
lastChange = "2022-12-26 08:51:43 +0000";
layers = (
{
hints = (
{
horizontal = 1;
place = (-123, -41);
place = (-123, -41);
type = Stem;
},
{
horizontal = 1;
place = (492, -41);
place = (492, -41);
type = Stem;
},
{
place = (-83, 431);
place = (-83, 431);
type = Stem;
}
);
layerId = m01;
shapes = (
{
closed = 1;
nodes = (
(507,901,l),
(438,901,l),
(341,815,l),
(274,901,l),
(205,901,l),
(328,744,l)
);
},
{
closed = 1;
nodes = (
(594,697,l),
(63,697,l),
(49,615,l),
(463,615,l),
(-71,65,l),
(-83,0,l),
(469,0,l),
(484,82,l),
(52,82,l),
(582,629,l)
);
}
);
width = 640;
}
);
note = Zcaron;
unicode = 381;
},
{
glyphname = Zdotaccent;
kernLeft = Z;
kernRight = Z;
lastChange = "2022-12-26 08:51:43 +0000";
layers = (
{
hints = (
{
horizontal = 1;
place = (-123, -41);
place = (-123, -41);
type = Stem;
},
{
horizontal = 1;
place = (492, -41);
place = (492, -41);
type = Stem;
},
{
horizontal = 1;
place = (673, -18);
place = (673, -18);
type = Stem;
},
{
place = (149, -27);
place = (149, -27);
type = Stem;
}
);
layerId = m01;
shapes = (
{
closed = 1;
nodes = (
(404,901,l),
(308,901,l),
(289,796,l),
(385,796,l)
);
},
{
closed = 1;
nodes = (
(594,697,l),
(63,697,l),
(49,615,l),
(463,615,l),
(-71,65,l),
(-83,0,l),
(469,0,l),
(484,82,l),
(52,82,l),
(582,629,l)
);
}
);
width = 640;
}
);
note = Zdotaccent;
unicode = 379;
},
{
glyphname = uni1EB6.ss03;
kernLeft = A;
kernRight = A;
lastChange = "2022-12-26 08:51:43 +0000";
layers = (
{
hints = (
{
horizontal = 1;
place = (-123, 21);
target = up;
type = BottomGhost;
},
{
horizontal = 1;
place = (50, -44);
place = (50, -44);
type = Stem;
},
{
horizontal = 1;
place = (574, -20);
target = down;
type = TopGhost;
},
{
horizontal = 1;
place = (646, -71);
place = (646, -71);
type = Stem;
},
{
place = (51, -61);
place = (51, -61);
type = Stem;
},
{
place = (295, -61);
place = (295, -61);
type = Stem;
},
{
horizontal = 1;
place = (-301, 1);
place = (-301, 1);
type = Stem;
},
{
place = (143, 0);
place = (143, 0);
type = Stem;
}
);
layerId = m01;
shapes = (
{
closed = 1;
nodes = (
(439,769,o),
(500,813,o),
(516,901,c),
(454,901,l),
(445,849,o),
(405,821,o),
(349,821,cs),
(295,821,o),
(262,847,o),
(272,901,c),
(210,901,l),
(195,816,o),
(237,769,o),
(340,769,cs)
);
},
{
closed = 1;
nodes = (
(506,0,l),
(362,697,l),
(292,697,l),
(-98,0,l),
(0,0,l),
(93,173,l),
(377,173,l),
(408,0,l)
);
},
{
closed = 1;
nodes = (
(136,252,l),
(304,568,l),
(362,252,l)
);
},
{
closed = 1;
nodes = (
(161,-54,o),
(129,-81,o),
(123,-116,cs),
(117,-150,o),
(140,-178,o),
(174,-178,cs),
(208,-178,o),
(240,-150,o),
(246,-116,cs),
(252,-81,o),
(230,-54,o),
(196,-54,cs)
);
}
);
width = 654;
}
);
note = uni1EB6.ss03;
},
{
glyphname = uni1EAC.ss03;
kernLeft = A;
kernRight = A;
lastChange = "2022-12-26 08:51:43 +0000";
layers = (
{
hints = (
{
horizontal = 1;
place = (-301, 1);
place = (-301, 1);
type = Stem;
},
{
horizontal = 1;
place = (-123, 21);
target = up;
type = BottomGhost;
},
{
horizontal = 1;
place = (50, -44);
place = (50, -44);
type = Stem;
},
{
horizontal = 1;
place = (574, -20);
target = down;
type = TopGhost;
},
{
place = (143, 0);
place = (143, 0);
type = Stem;
}
);
layerId = m01;
shapes = (
{
closed = 1;
nodes = (
(352,839,l),
(418,750,l),
(487,750,l),
(365,914,l),
(185,750,l),
(254,750,l)
);
},
{
closed = 1;
nodes = (
(506,0,l),
(362,697,l),
(292,697,l),
(-98,0,l),
(0,0,l),
(93,173,l),
(377,173,l),
(408,0,l)
);
},
{
closed = 1;
nodes = (
(136,252,l),
(304,568,l),
(362,252,l)
);
},
{
closed = 1;
nodes = (
(161,-54,o),
(129,-81,o),
(123,-116,cs),
(117,-150,o),
(140,-178,o),
(174,-178,cs),
(208,-178,o),
(240,-150,o),
(246,-116,cs),
(252,-81,o),
(230,-54,o),
(196,-54,cs)
);
}
);
width = 654;
}
);
note = uni1EAC.ss03;
},
{
glyphname = Adieresis.ss03;
kernLeft = A;
kernRight = A;
lastChange = "2022-12-26 08:51:43 +0000";
layers = (
{
hints = (
{
horizontal = 1;
place = (-123, 21);
target = up;
type = BottomGhost;
},
{
horizontal = 1;
place = (50, -44);
place = (50, -44);
type = Stem;
},
{
horizontal = 1;
place = (574, -20);
target = down;
type = TopGhost;
},
{
horizontal = 1;
place = (662, 1);
place = (662, 1);
type = Stem;
},
{
place = (52, 0);
place = (52, 0);
type = Stem;
},
{
place = (234, -1);
place = (234, -1);
type = Stem;
}
);
layerId = m01;
shapes = (
{
closed = 1;
nodes = (
(287,785,o),
(318,813,o),
(325,848,cs),
(331,882,o),
(308,909,o),
(274,909,cs),
(239,909,o),
(208,882,o),
(202,848,cs),
(195,813,o),
(219,785,o),
(253,785,cs)
);
},
{
closed = 1;
nodes = (
(469,785,o),
(499,813,o),
(506,848,cs),
(512,882,o),
(490,909,o),
(455,909,cs),
(420,909,o),
(390,882,o),
(384,848,cs),
(377,813,o),
(400,785,o),
(434,785,cs)
);
},
{
closed = 1;
nodes = (
(408,0,l),
(506,0,l),
(362,697,l),
(292,697,l),
(-98,0,l),
(0,0,l),
(93,173,l),
(377,173,l)
);
},
{
closed = 1;
nodes = (
(136,252,l),
(304,568,l),
(362,252,l)
);
}
);
width = 654;
}
);
note = Adieresis.ss03;
},
{
glyphname = uni1EA0.ss03;
kernLeft = A;
kernRight = A;
lastChange = "2022-12-26 08:51:43 +0000";
layers = (
{
hints = (
{
horizontal = 1;
place = (-301, 1);
place = (-301, 1);
type = Stem;
},
{
horizontal = 1;
place = (-123, 21);
target = up;
type = BottomGhost;
},
{
horizontal = 1;
place = (50, -44);
place = (50, -44);
type = Stem;
},
{
horizontal = 1;
place = (574, -20);
target = down;
type = TopGhost;
},
{
place = (143, 0);
place = (143, 0);
type = Stem;
}
);
layerId = m01;
shapes = (
{
closed = 1;
nodes = (
(506,0,l),
(362,697,l),
(292,697,l),
(-98,0,l),
(0,0,l),
(93,173,l),
(377,173,l),
(408,0,l)
);
},
{
closed = 1;
nodes = (
(136,252,l),
(304,568,l),
(362,252,l)
);
},
{
closed = 1;
nodes = (
(161,-54,o),
(129,-81,o),
(123,-116,cs),
(117,-150,o),
(140,-178,o),
(174,-178,cs),
(208,-178,o),
(240,-150,o),
(246,-116,cs),
(252,-81,o),
(230,-54,o),
(196,-54,cs)
);
}
);
width = 654;
}
);
note = uni1EA0.ss03;
},
{
glyphname = Cdotaccent.ss03;
kernLeft = C;
kernRight = C;
lastChange = "2022-12-26 08:51:43 +0000";
layers = (
{
hints = (
{
horizontal = 1;
place = (-135, -38);
place = (-135, -38);
type = Stem;
},
{
horizontal = 1;
place = (501, -38);
place = (501, -38);
type = Stem;
},
{
horizontal = 1;
place = (662, 1);
place = (662, 1);
type = Stem;
},
{
place = (-64, -34);
place = (-64, -34);
type = Stem;
},
{
place = (205, 0);
place = (205, 0);
type = Stem;
}
);
layerId = m01;
shapes = (
{
closed = 1;
nodes = (
(440,785,o),
(471,813,o),
(478,848,cs),
(484,882,o),
(461,909,o),
(427,909,cs),
(392,909,o),
(361,882,o),
(355,848,cs),
(348,813,o),
(372,785,o),
(406,785,cs)
);
},
{
closed = 1;
nodes = (
(400,-12,o),
(518,57,o),
(592,187,c),
(514,218,l),
(461,122,o),
(377,73,o),
(273,73,cs),
(124,73,o),
(56,174,o),
(87,350,cs),
(118,525,o),
(221,624,o),
(373,624,cs),
(478,624,o),
(542,578,o),
(560,482,c),
(648,514,l),
(621,643,o),
(530,709,o),
(388,709,cs),
(185,709,o),
(37,573,o),
(-2,350,cs),
(-42,125,o),
(57,-12,o),
(258,-12,cs)
);
}
);
width = 723;
}
);
note = Cdotaccent.ss03;
},
{
glyphname = uni1EC6.ss03;
lastChange = "2022-12-26 08:51:43 +0000";
layers = (
{
hints = (
{
horizontal = 1;
place = (-301, 1);
place = (-301, 1);
type = Stem;
},
{
horizontal = 1;
place = (-123, -41);
place = (-123, -41);
type = Stem;
},
{
horizontal = 1;
place = (192, -41);
place = (192, -41);
type = Stem;
},
{
horizontal = 1;
place = (492, -41);
place = (492, -41);
type = Stem;
},
{
place = (-18, -34);
place = (-18, -34);
type = Stem;
},
{
place = (150, 0);
place = (150, 0);
type = Stem;
}
);
layerId = m01;
shapes = (
{
closed = 1;
nodes = (
(193,750,l),
(262,750,l),
(360,839,l),
(426,750,l),
(495,750,l),
(373,914,l)
);
},
{
closed = 1;
nodes = (
(-18,0,l),
(442,0,l),
(457,82,l),
(86,82,l),
(127,315,l),
(464,315,l),
(478,397,l),
(141,397,l),
(180,615,l),
(551,615,l),
(565,697,l),
(105,697,l)
);
},
{
closed = 1;
nodes = (
(215,-178,o),
(247,-150,o),
(253,-116,cs),
(259,-81,o),
(237,-54,o),
(203,-54,cs),
(168,-54,o),
(136,-81,o),
(130,-116,cs),
(124,-150,o),
(147,-178,o),
(181,-178,cs)
);
}
);
width = 625;
}
);
note = uni1EC6.ss03;
},
{
glyphname = Edieresis.ss03;
lastChange = "2022-12-26 08:51:43 +0000";
layers = (
{
hints = (
{
horizontal = 1;
place = (-123, -41);
place = (-123, -41);
type = Stem;
},
{
horizontal = 1;
place = (192, -41);
place = (192, -41);
type = Stem;
},
{
horizontal = 1;
place = (492, -41);
place = (492, -41);
type = Stem;
},
{
horizontal = 1;
place = (662, 1);
place = (662, 1);
type = Stem;
},
{
place = (59, 0);
place = (59, 0);
type = Stem;
},
{
place = (241, -1);
place = (241, -1);
type = Stem;
},
{
place = (-18, -34);
place = (-18, -34);
type = Stem;
}
);
layerId = m01;
shapes = (
{
closed = 1;
nodes = (
(294,785,o),
(325,813,o),
(332,848,cs),
(338,882,o),
(315,909,o),
(281,909,cs),
(246,909,o),
(215,882,o),
(209,848,cs),
(202,813,o),
(226,785,o),
(260,785,cs)
);
},
{
closed = 1;
nodes = (
(476,785,o),
(506,813,o),
(513,848,cs),
(519,882,o),
(497,909,o),
(462,909,cs),
(427,909,o),
(397,882,o),
(391,848,cs),
(384,813,o),
(407,785,o),
(441,785,cs)
);
},
{
closed = 1;
nodes = (
(-18,0,l),
(442,0,l),
(457,82,l),
(86,82,l),
(127,315,l),
(464,315,l),
(478,397,l),
(141,397,l),
(180,615,l),
(551,615,l),
(565,697,l),
(105,697,l)
);
}
);
width = 625;
}
);
note = Edieresis.ss03;
},
{
glyphname = Edotaccent.ss03;
lastChange = "2022-12-26 08:51:43 +0000";
layers = (
{
hints = (
{
horizontal = 1;
place = (-123, -41);
place = (-123, -41);
type = Stem;
},
{
horizontal = 1;
place = (192, -41);
place = (192, -41);
type = Stem;
},
{
horizontal = 1;
place = (492, -41);
place = (492, -41);
type = Stem;
},
{
horizontal = 1;
place = (662, 1);
place = (662, 1);
type = Stem;
},
{
place = (-18, -34);
place = (-18, -34);
type = Stem;
},
{
place = (150, 0);
place = (150, 0);
type = Stem;
}
);
layerId = m01;
shapes = (
{
closed = 1;
nodes = (
(385,785,o),
(416,813,o),
(423,848,cs),
(429,882,o),
(406,909,o),
(372,909,cs),
(337,909,o),
(306,882,o),
(300,848,cs),
(293,813,o),
(317,785,o),
(351,785,cs)
);
},
{
closed = 1;
nodes = (
(-18,0,l),
(442,0,l),
(457,82,l),
(86,82,l),
(127,315,l),
(464,315,l),
(478,397,l),
(141,397,l),
(180,615,l),
(551,615,l),
(565,697,l),
(105,697,l)
);
}
);
width = 625;
}
);
note = Edotaccent.ss03;
},
{
glyphname = uni1EB8.ss03;
lastChange = "2022-12-26 08:51:43 +0000";
layers = (
{
hints = (
{
horizontal = 1;
place = (-301, 1);
place = (-301, 1);
type = Stem;
},
{
horizontal = 1;
place = (-123, -41);
place = (-123, -41);
type = Stem;
},
{
horizontal = 1;
place = (192, -41);
place = (192, -41);
type = Stem;
},
{
horizontal = 1;
place = (492, -41);
place = (492, -41);
type = Stem;
},
{
place = (-18, -34);
place = (-18, -34);
type = Stem;
},
{
place = (150, 0);
place = (150, 0);
type = Stem;
}
);
layerId = m01;
shapes = (
{
closed = 1;
nodes = (
(-18,0,l),
(442,0,l),
(457,82,l),
(86,82,l),
(127,315,l),
(464,315,l),
(478,397,l),
(141,397,l),
(180,615,l),
(551,615,l),
(565,697,l),
(105,697,l)
);
},
{
closed = 1;
nodes = (
(215,-178,o),
(247,-150,o),
(253,-116,cs),
(259,-81,o),
(237,-54,o),
(203,-54,cs),
(168,-54,o),
(136,-81,o),
(130,-116,cs),
(124,-150,o),
(147,-178,o),
(181,-178,cs)
);
}
);
width = 625;
}
);
note = uni1EB8.ss03;
},
{
glyphname = Gdotaccent.ss03;
kernRight = G;
lastChange = "2022-12-26 08:51:43 +0000";
layers = (
{
hints = (
{
horizontal = 1;
place = (-135, -38);
place = (-135, -38);
type = Stem;
},
{
horizontal = 1;
place = (166, -46);
place = (166, -46);
type = Stem;
},
{
horizontal = 1;
place = (501, -38);
place = (501, -38);
type = Stem;
},
{
horizontal = 1;
place = (662, 1);
place = (662, 1);
type = Stem;
},
{
place = (-65, -34);
place = (-65, -34);
type = Stem;
},
{
place = (197, 0);
place = (197, 0);
type = Stem;
},
{
place = (473, -37);
place = (473, -37);
type = Stem;
},
{
horizontal = 1;
place = (-123, 21);
target = up;
type = BottomGhost;
}
);
layerId = m01;
shapes = (
{
closed = 1;
nodes = (
(432,785,o),
(463,813,o),
(470,848,cs),
(476,882,o),
(453,909,o),
(419,909,cs),
(384,909,o),
(353,882,o),
(347,848,cs),
(340,813,o),
(364,785,o),
(398,785,cs)
);
},
{
closed = 1;
nodes = (
(374,366,l),
(360,289,l),
(524,289,l),
(521,271,ls),
(497,134,o),
(394,73,o),
(277,73,cs),
(114,73,o),
(57,189,o),
(86,352,cs),
(115,518,o),
(216,624,o),
(372,624,cs),
(481,624,o),
(542,574,o),
(559,482,c),
(648,514,l),
(622,638,o),
(533,709,o),
(388,709,cs),
(176,709,o),
(33,557,o),
(-3,350,cs),
(-41,138,o),
(55,-12,o),
(256,-12,cs),
(356,-12,o),
(444,26,o),
(496,95,c),
(491,0,l),
(559,0,l),
(624,366,l)
);
}
);
width = 762;
}
);
note = Gdotaccent.ss03;
},
{
glyphname = Idieresis.ss03;
lastChange = "2022-12-26 08:51:43 +0000";
layers = (
{
hints = (
{
horizontal = 1;
place = (-123, 21);
target = up;
type = BottomGhost;
},
{
horizontal = 1;
place = (574, -20);
target = down;
type = TopGhost;
},
{
horizontal = 1;
place = (662, 1);
place = (662, 1);
type = Stem;
},
{
place = (-125, 0);
place = (-125, 0);
type = Stem;
},
{
place = (57, -1);
place = (57, -1);
type = Stem;
},
{
place = (-18, -34);
place = (-18, -34);
type = Stem;
}
);
layerId = m01;
shapes = (
{
closed = 1;
nodes = (
(110,785,o),
(141,813,o),
(148,848,cs),
(154,882,o),
(131,909,o),
(97,909,cs),
(62,909,o),
(31,882,o),
(25,848,cs),
(18,813,o),
(42,785,o),
(76,785,cs)
);
},
{
closed = 1;
nodes = (
(292,785,o),
(322,813,o),
(329,848,cs),
(335,882,o),
(313,909,o),
(278,909,cs),
(243,909,o),
(213,882,o),
(207,848,cs),
(200,813,o),
(223,785,o),
(257,785,cs)
);
},
{
closed = 1;
nodes = (
(-18,0,l),
(71,0,l),
(194,697,l),
(105,697,l)
);
}
);
width = 300;
}
);
note = Idieresis.ss03;
},
{
glyphname = uni1ECA.ss03;
lastChange = "2022-12-26 08:51:43 +0000";
layers = (
{
hints = (
{
horizontal = 1;
place = (-301, 1);
place = (-301, 1);
type = Stem;
},
{
horizontal = 1;
place = (-123, 21);
target = up;
type = BottomGhost;
},
{
horizontal = 1;
place = (574, -20);
target = down;
type = TopGhost;
},
{
place = (-18, -34);
place = (-18, -34);
type = Stem;
}
);
layerId = m01;
shapes = (
{
closed = 1;
nodes = (
(-18,0,l),
(71,0,l),
(194,697,l),
(105,697,l)
);
},
{
closed = 1;
nodes = (
(31,-178,o),
(63,-150,o),
(69,-116,cs),
(75,-81,o),
(53,-54,o),
(19,-54,cs),
(-16,-54,o),
(-48,-81,o),
(-54,-116,cs),
(-60,-150,o),
(-37,-178,o),
(-3,-178,cs)
);
}
);
width = 300;
}
);
note = uni1ECA.ss03;
},
{
glyphname = uni1ED8.ss03;
lastChange = "2022-12-26 08:51:43 +0000";
layers = (
{
hints = (
{
horizontal = 1;
place = (-301, 1);
place = (-301, 1);
type = Stem;
},
{
horizontal = 1;
place = (-135, -38);
place = (-135, -38);
type = Stem;
},
{
horizontal = 1;
place = (501, -38);
place = (501, -38);
type = Stem;
},
{
place = (-65, -34);
place = (-65, -34);
type = Stem;
},
{
place = (197, 0);
place = (197, 0);
type = Stem;
},
{
place = (493, -34);
place = (493, -34);
type = Stem;
}
);
layerId = m01;
shapes = (
{
closed = 1;
nodes = (
(239,750,l),
(308,750,l),
(406,839,l),
(472,750,l),
(541,750,l),
(419,914,l)
);
},
{
closed = 1;
nodes = (
(450,-12,o),
(605,132,o),
(643,348,cs),
(682,565,o),
(577,709,o),
(383,709,cs),
(190,709,o),
(35,565,o),
(-4,348,cs),
(-42,132,o),
(63,-12,o),
(256,-12,cs)
);
},
{
closed = 1;
nodes = (
(128,73,o),
(56,180,o),
(85,348,cs),
(115,517,o),
(225,624,o),
(368,624,cs),
(511,624,o),
(584,517,o),
(554,348,cs),
(525,180,o),
(414,73,o),
(271,73,cs)
);
},
{
closed = 1;
nodes = (
(262,-178,o),
(294,-150,o),
(300,-116,cs),
(306,-81,o),
(284,-54,o),
(250,-54,cs),
(215,-54,o),
(183,-81,o),
(177,-116,cs),
(171,-150,o),
(194,-178,o),
(228,-178,cs)
);
}
);
width = 763;
}
);
note = uni1ED8.ss03;
},
{
glyphname = Odieresis.ss03;
lastChange = "2022-12-26 08:51:43 +0000";
layers = (
{
hints = (
{
horizontal = 1;
place = (-135, -38);
place = (-135, -38);
type = Stem;
},
{
horizontal = 1;
place = (501, -38);
place = (501, -38);
type = Stem;
},
{
horizontal = 1;
place = (662, 1);
place = (662, 1);
type = Stem;
},
{
place = (-65, -34);
place = (-65, -34);
type = Stem;
},
{
place = (106, 0);
place = (106, 0);
type = Stem;
},
{
place = (288, -1);
place = (288, -1);
type = Stem;
},
{
place = (493, -34);
place = (493, -34);
type = Stem;
}
);
layerId = m01;
shapes = (
{
closed = 1;
nodes = (
(341,785,o),
(372,813,o),
(379,848,cs),
(385,882,o),
(362,909,o),
(328,909,cs),
(293,909,o),
(262,882,o),
(256,848,cs),
(249,813,o),
(273,785,o),
(307,785,cs)
);
},
{
closed = 1;
nodes = (
(523,785,o),
(553,813,o),
(560,848,cs),
(566,882,o),
(544,909,o),
(509,909,cs),
(474,909,o),
(444,882,o),
(438,848,cs),
(431,813,o),
(454,785,o),
(488,785,cs)
);
},
{
closed = 1;
nodes = (
(450,-12,o),
(605,132,o),
(643,348,cs),
(682,565,o),
(577,709,o),
(383,709,cs),
(190,709,o),
(35,565,o),
(-4,348,cs),
(-42,132,o),
(63,-12,o),
(256,-12,cs)
);
},
{
closed = 1;
nodes = (
(128,73,o),
(56,180,o),
(85,348,cs),
(115,517,o),
(225,624,o),
(368,624,cs),
(511,624,o),
(584,517,o),
(554,348,cs),
(525,180,o),
(414,73,o),
(271,73,cs)
);
}
);
width = 763;
}
);
note = Odieresis.ss03;
},
{
glyphname = uni1ECC.ss03;
lastChange = "2022-12-26 08:51:43 +0000";
layers = (
{
hints = (
{
horizontal = 1;
place = (-301, 1);
place = (-301, 1);
type = Stem;
},
{
horizontal = 1;
place = (-135, -38);
place = (-135, -38);
type = Stem;
},
{
horizontal = 1;
place = (501, -38);
place = (501, -38);
type = Stem;
},
{
place = (-65, -34);
place = (-65, -34);
type = Stem;
},
{
place = (197, 0);
place = (197, 0);
type = Stem;
},
{
place = (493, -34);
place = (493, -34);
type = Stem;
}
);
layerId = m01;
shapes = (
{
closed = 1;
nodes = (
(450,-12,o),
(605,132,o),
(643,348,cs),
(682,565,o),
(577,709,o),
(383,709,cs),
(190,709,o),
(35,565,o),
(-4,348,cs),
(-42,132,o),
(63,-12,o),
(256,-12,cs)
);
},
{
closed = 1;
nodes = (
(128,73,o),
(56,180,o),
(85,348,cs),
(115,517,o),
(225,624,o),
(368,624,cs),
(511,624,o),
(584,517,o),
(554,348,cs),
(525,180,o),
(414,73,o),
(271,73,cs)
);
},
{
closed = 1;
nodes = (
(262,-178,o),
(294,-150,o),
(300,-116,cs),
(306,-81,o),
(284,-54,o),
(250,-54,cs),
(215,-54,o),
(183,-81,o),
(177,-116,cs),
(171,-150,o),
(194,-178,o),
(228,-178,cs)
);
}
);
width = 763;
}
);
note = uni1ECC.ss03;
},
{
glyphname = uni1EE2.ss03;
lastChange = "2022-12-26 08:51:43 +0000";
layers = (
{
hints = (
{
horizontal = 1;
place = (-301, 1);
place = (-301, 1);
type = Stem;
},
{
horizontal = 1;
place = (-135, -38);
place = (-135, -38);
type = Stem;
},
{
horizontal = 1;
place = (379, -20);
target = down;
type = TopGhost;
},
{
horizontal = 1;
place = (574, -20);
target = down;
type = TopGhost;
},
{
place = (-65, -34);
place = (-65, -34);
type = Stem;
},
{
place = (585, -58);
place = (585, -58);
type = Stem;
},
{
horizontal = 1;
place = (501, -38);
place = (501, -38);
type = Stem;
},
{
place = (493, -34);
place = (493, -34);
type = Stem;
},
{
place = (197, 0);
place = (197, 0);
type = Stem;
}
);
layerId = m01;
shapes = (
{
closed = 1;
nodes = (
(708,697,l),
(699,645,ls),
(692,605,o),
(672,567,o),
(629,556,c),
(591,652,o),
(505,709,o),
(383,709,cs),
(190,709,o),
(35,565,o),
(-4,348,cs),
(-42,132,o),
(63,-12,o),
(256,-12,cs),
(450,-12,o),
(605,132,o),
(643,348,cs),
(654,405,o),
(654,457,o),
(645,502,c),
(714,521,o),
(752,578,o),
(765,652,cs),
(773,697,l)
);
},
{
closed = 1;
nodes = (
(128,73,o),
(56,180,o),
(85,348,cs),
(115,517,o),
(225,624,o),
(368,624,cs),
(511,624,o),
(584,517,o),
(554,348,cs),
(525,180,o),
(414,73,o),
(271,73,cs)
);
},
{
closed = 1;
nodes = (
(215,-54,o),
(183,-81,o),
(177,-116,cs),
(171,-150,o),
(194,-178,o),
(228,-178,cs),
(262,-178,o),
(294,-150,o),
(300,-116,cs),
(306,-81,o),
(284,-54,o),
(250,-54,cs)
);
}
);
width = 763;
}
);
note = uni1EE2.ss03;
},
{
glyphname = Udieresis.ss03;
kernLeft = U;
lastChange = "2022-12-26 08:51:43 +0000";
layers = (
{
hints = (
{
horizontal = 1;
place = (-135, -36);
place = (-135, -36);
type = Stem;
},
{
horizontal = 1;
place = (574, -20);
target = down;
type = TopGhost;
},
{
horizontal = 1;
place = (662, 1);
place = (662, 1);
type = Stem;
},
{
place = (-32, -34);
place = (-32, -34);
type = Stem;
},
{
place = (72, 0);
place = (72, 0);
type = Stem;
},
{
place = (254, -1);
place = (254, -1);
type = Stem;
},
{
place = (390, -34);
place = (390, -34);
type = Stem;
}
);
layerId = m01;
shapes = (
{
closed = 1;
nodes = (
(307,785,o),
(338,813,o),
(345,848,cs),
(351,882,o),
(328,909,o),
(294,909,cs),
(259,909,o),
(228,882,o),
(222,848,cs),
(215,813,o),
(239,785,o),
(273,785,cs)
);
},
{
closed = 1;
nodes = (
(489,785,o),
(519,813,o),
(526,848,cs),
(532,882,o),
(510,909,o),
(475,909,cs),
(440,909,o),
(410,882,o),
(404,848,cs),
(397,813,o),
(420,785,o),
(454,785,cs)
);
},
{
closed = 1;
nodes = (
(388,-12,o),
(493,80,o),
(524,257,cs),
(602,697,l),
(513,697,l),
(436,263,ls),
(414,133,o),
(352,75,o),
(236,75,cs),
(121,75,o),
(80,132,o),
(103,261,cs),
(180,697,l),
(91,697,l),
(13,252,ls),
(-18,79,o),
(55,-12,o),
(221,-12,cs)
);
}
);
width = 693;
}
);
note = Udieresis.ss03;
},
{
glyphname = uni01D7.ss03;
kernLeft = U;
lastChange = "2022-12-26 08:51:43 +0000";
layers = (
{
hints = (
{
horizontal = 1;
place = (-135, -36);
place = (-135, -36);
type = Stem;
},
{
horizontal = 1;
place = (574, -20);
target = down;
type = TopGhost;
},
{
horizontal = 1;
place = (662, 1);
place = (662, 1);
type = Stem;
},
{
horizontal = 1;
place = (849, 18);
place = (849, 18);
type = Stem;
},
{
place = (-32, -34);
place = (-32, -34);
type = Stem;
},
{
place = (390, -34);
place = (390, -34);
type = Stem;
},
{
place = (72, 0);
place = (72, 0);
type = Stem;
},
{
place = (254, -1);
place = (254, -1);
type = Stem;
}
);
layerId = m01;
shapes = (
{
closed = 1;
nodes = (
(363,972,l),
(427,972,l),
(589,1113,l),
(497,1113,l)
);
},
{
closed = 1;
nodes = (
(307,785,o),
(338,813,o),
(345,848,cs),
(351,882,o),
(328,909,o),
(294,909,cs),
(259,909,o),
(228,882,o),
(222,848,cs),
(215,813,o),
(239,785,o),
(273,785,cs)
);
},
{
closed = 1;
nodes = (
(489,785,o),
(519,813,o),
(526,848,cs),
(532,882,o),
(510,909,o),
(475,909,cs),
(440,909,o),
(410,882,o),
(404,848,cs),
(397,813,o),
(420,785,o),
(454,785,cs)
);
},
{
closed = 1;
nodes = (
(388,-12,o),
(493,80,o),
(524,257,cs),
(602,697,l),
(513,697,l),
(436,263,ls),
(414,133,o),
(352,75,o),
(236,75,cs),
(121,75,o),
(80,132,o),
(103,261,cs),
(180,697,l),
(91,697,l),
(13,252,ls),
(-18,79,o),
(55,-12,o),
(221,-12,cs)
);
}
);
width = 693;
}
);
note = uni01D7.ss03;
},
{
glyphname = uni01D9.ss03;
kernLeft = U;
lastChange = "2022-12-26 08:51:43 +0000";
layers = (
{
hints = (
{
horizontal = 1;
place = (-135, -36);
place = (-135, -36);
type = Stem;
},
{
horizontal = 1;
place = (574, -20);
target = down;
type = TopGhost;
},
{
horizontal = 1;
place = (662, 1);
place = (662, 1);
type = Stem;
},
{
place = (-32, -34);
place = (-32, -34);
type = Stem;
},
{
place = (390, -34);
place = (390, -34);
type = Stem;
},
{
place = (72, 0);
place = (72, 0);
type = Stem;
},
{
place = (254, -1);
place = (254, -1);
type = Stem;
}
);
layerId = m01;
shapes = (
{
closed = 1;
nodes = (
(393,956,l),
(571,1113,l),
(502,1113,l),
(405,1027,l),
(338,1113,l),
(269,1113,l)
);
},
{
closed = 1;
nodes = (
(307,785,o),
(338,813,o),
(345,848,cs),
(351,882,o),
(328,909,o),
(294,909,cs),
(259,909,o),
(228,882,o),
(222,848,cs),
(215,813,o),
(239,785,o),
(273,785,cs)
);
},
{
closed = 1;
nodes = (
(489,785,o),
(519,813,o),
(526,848,cs),
(532,882,o),
(510,909,o),
(475,909,cs),
(440,909,o),
(410,882,o),
(404,848,cs),
(397,813,o),
(420,785,o),
(454,785,cs)
);
},
{
closed = 1;
nodes = (
(388,-12,o),
(493,80,o),
(524,257,cs),
(602,697,l),
(513,697,l),
(436,263,ls),
(414,133,o),
(352,75,o),
(236,75,cs),
(121,75,o),
(80,132,o),
(103,261,cs),
(180,697,l),
(91,697,l),
(13,252,ls),
(-18,79,o),
(55,-12,o),
(221,-12,cs)
);
}
);
width = 693;
}
);
note = uni01D9.ss03;
},
{
glyphname = uni01DB.ss03;
kernLeft = U;
lastChange = "2022-12-26 08:51:43 +0000";
layers = (
{
hints = (
{
horizontal = 1;
place = (-135, -36);
place = (-135, -36);
type = Stem;
},
{
horizontal = 1;
place = (574, -20);
target = down;
type = TopGhost;
},
{
horizontal = 1;
place = (662, 1);
place = (662, 1);
type = Stem;
},
{
horizontal = 1;
place = (849, 18);
place = (849, 18);
type = Stem;
},
{
place = (-32, -34);
place = (-32, -34);
type = Stem;
},
{
place = (390, -34);
place = (390, -34);
type = Stem;
},
{
place = (72, 0);
place = (72, 0);
type = Stem;
},
{
place = (254, -1);
place = (254, -1);
type = Stem;
}
);
layerId = m01;
shapes = (
{
closed = 1;
nodes = (
(362,972,l),
(428,972,l),
(349,1113,l),
(257,1113,l)
);
},
{
closed = 1;
nodes = (
(307,785,o),
(338,813,o),
(345,848,cs),
(351,882,o),
(328,909,o),
(294,909,cs),
(259,909,o),
(228,882,o),
(222,848,cs),
(215,813,o),
(239,785,o),
(273,785,cs)
);
},
{
closed = 1;
nodes = (
(489,785,o),
(519,813,o),
(526,848,cs),
(532,882,o),
(510,909,o),
(475,909,cs),
(440,909,o),
(410,882,o),
(404,848,cs),
(397,813,o),
(420,785,o),
(454,785,cs)
);
},
{
closed = 1;
nodes = (
(388,-12,o),
(493,80,o),
(524,257,cs),
(602,697,l),
(513,697,l),
(436,263,ls),
(414,133,o),
(352,75,o),
(236,75,cs),
(121,75,o),
(80,132,o),
(103,261,cs),
(180,697,l),
(91,697,l),
(13,252,ls),
(-18,79,o),
(55,-12,o),
(221,-12,cs)
);
}
);
width = 693;
}
);
note = uni01DB.ss03;
},
{
glyphname = uni01D5.ss03;
kernLeft = U;
lastChange = "2022-12-26 08:51:43 +0000";
layers = (
{
hints = (
{
horizontal = 1;
place = (-135, -36);
place = (-135, -36);
type = Stem;
},
{
horizontal = 1;
place = (574, -20);
target = down;
type = TopGhost;
},
{
horizontal = 1;
place = (662, 1);
place = (662, 1);
type = Stem;
},
{
horizontal = 1;
place = (881, -72);
place = (881, -72);
type = Stem;
},
{
place = (-32, -34);
place = (-32, -34);
type = Stem;
},
{
place = (390, -34);
place = (390, -34);
type = Stem;
},
{
place = (72, 0);
place = (72, 0);
type = Stem;
},
{
place = (254, -1);
place = (254, -1);
type = Stem;
}
);
layerId = m01;
shapes = (
{
closed = 1;
nodes = (
(264,1004,l),
(536,1004,l),
(545,1055,l),
(273,1055,l)
);
},
{
closed = 1;
nodes = (
(307,785,o),
(338,813,o),
(345,848,cs),
(351,882,o),
(328,909,o),
(294,909,cs),
(259,909,o),
(228,882,o),
(222,848,cs),
(215,813,o),
(239,785,o),
(273,785,cs)
);
},
{
closed = 1;
nodes = (
(489,785,o),
(519,813,o),
(526,848,cs),
(532,882,o),
(510,909,o),
(475,909,cs),
(440,909,o),
(410,882,o),
(404,848,cs),
(397,813,o),
(420,785,o),
(454,785,cs)
);
},
{
closed = 1;
nodes = (
(388,-12,o),
(493,80,o),
(524,257,cs),
(602,697,l),
(513,697,l),
(436,263,ls),
(414,133,o),
(352,75,o),
(236,75,cs),
(121,75,o),
(80,132,o),
(103,261,cs),
(180,697,l),
(91,697,l),
(13,252,ls),
(-18,79,o),
(55,-12,o),
(221,-12,cs)
);
}
);
width = 693;
}
);
note = uni01D5.ss03;
},
{
glyphname = uni1EE4.ss03;
kernLeft = U;
lastChange = "2022-12-26 08:51:43 +0000";
layers = (
{
hints = (
{
horizontal = 1;
place = (-301, 1);
place = (-301, 1);
type = Stem;
},
{
horizontal = 1;
place = (-135, -36);
place = (-135, -36);
type = Stem;
},
{
horizontal = 1;
place = (574, -20);
target = down;
type = TopGhost;
},
{
place = (-32, -34);
place = (-32, -34);
type = Stem;
},
{
place = (162, 0);
place = (162, 0);
type = Stem;
},
{
place = (390, -34);
place = (390, -34);
type = Stem;
}
);
layerId = m01;
shapes = (
{
closed = 1;
nodes = (
(388,-12,o),
(493,80,o),
(524,257,cs),
(602,697,l),
(513,697,l),
(436,263,ls),
(414,133,o),
(352,75,o),
(236,75,cs),
(121,75,o),
(80,132,o),
(103,261,cs),
(180,697,l),
(91,697,l),
(13,252,ls),
(-18,79,o),
(55,-12,o),
(221,-12,cs)
);
},
{
closed = 1;
nodes = (
(227,-178,o),
(259,-150,o),
(265,-116,cs),
(271,-81,o),
(249,-54,o),
(215,-54,cs),
(180,-54,o),
(148,-81,o),
(142,-116,cs),
(136,-150,o),
(159,-178,o),
(193,-178,cs)
);
}
);
width = 693;
}
);
note = uni1EE4.ss03;
},
{
glyphname = uni1EF0.ss03;
kernLeft = U;
lastChange = "2022-12-26 08:51:43 +0000";
layers = (
{
hints = (
{
horizontal = 1;
place = (-301, 1);
place = (-301, 1);
type = Stem;
},
{
horizontal = 1;
place = (-135, -36);
place = (-135, -36);
type = Stem;
},
{
horizontal = 1;
place = (574, -20);
target = down;
type = TopGhost;
},
{
place = (-32, -34);
place = (-32, -34);
type = Stem;
},
{
place = (162, 0);
place = (162, 0);
type = Stem;
},
{
place = (390, -34);
place = (390, -34);
type = Stem;
},
{
place = (551, -58);
place = (551, -58);
type = Stem;
}
);
layerId = m01;
shapes = (
{
closed = 1;
nodes = (
(674,697,l),
(665,645,ls),
(657,599,o),
(631,557,o),
(577,553,c),
(602,697,l),
(513,697,l),
(436,263,ls),
(414,133,o),
(352,75,o),
(236,75,cs),
(121,75,o),
(80,132,o),
(103,261,cs),
(180,697,l),
(91,697,l),
(13,252,ls),
(-18,79,o),
(55,-12,o),
(221,-12,cs),
(388,-12,o),
(493,80,o),
(524,257,cs),
(567,496,l),
(664,499,o),
(715,563,o),
(731,652,cs),
(739,697,l)
);
},
{
closed = 1;
nodes = (
(180,-54,o),
(148,-81,o),
(142,-116,cs),
(136,-150,o),
(159,-178,o),
(193,-178,cs),
(227,-178,o),
(259,-150,o),
(265,-116,cs),
(271,-81,o),
(249,-54,o),
(215,-54,cs)
);
}
);
width = 693;
}
);
note = uni1EF0.ss03;
},
{
glyphname = Wdieresis.ss03;
kernLeft = W;
kernRight = W;
lastChange = "2022-12-26 08:51:43 +0000";
layers = (
{
hints = (
{
horizontal = 1;
place = (-123, 21);
target = up;
type = BottomGhost;
},
{
horizontal = 1;
place = (574, -20);
target = down;
type = TopGhost;
},
{
horizontal = 1;
place = (662, 1);
place = (662, 1);
type = Stem;
},
{
place = (218, 0);
place = (218, 0);
type = Stem;
},
{
place = (400, -1);
place = (400, -1);
type = Stem;
},
{
horizontal = 1;
place = (-123, 11);
place = (-123, 11);
type = Stem;
}
);
layerId = m01;
shapes = (
{
closed = 1;
nodes = (
(453,785,o),
(484,813,o),
(491,848,cs),
(497,882,o),
(474,909,o),
(440,909,cs),
(405,909,o),
(374,882,o),
(368,848,cs),
(361,813,o),
(385,785,o),
(419,785,cs)
);
},
{
closed = 1;
nodes = (
(635,785,o),
(665,813,o),
(672,848,cs),
(678,882,o),
(656,909,o),
(621,909,cs),
(586,909,o),
(556,882,o),
(550,848,cs),
(543,813,o),
(566,785,o),
(600,785,cs)
);
},
{
closed = 1;
nodes = (
(113,0,l),
(201,0,l),
(462,518,l),
(539,0,l),
(628,0,l),
(955,697,l),
(861,697,l),
(602,134,l),
(525,659,l),
(447,659,l),
(186,134,l),
(124,697,l),
(32,697,l)
);
}
);
width = 987;
}
);
note = Wdieresis.ss03;
},
{
glyphname = Ydieresis.ss03;
kernLeft = Y;
kernRight = Y;
lastChange = "2022-12-26 08:51:43 +0000";
layers = (
{
hints = (
{
horizontal = 1;
place = (-123, 21);
target = up;
type = BottomGhost;
},
{
horizontal = 1;
place = (574, -20);
target = down;
type = TopGhost;
},
{
horizontal = 1;
place = (662, 1);
place = (662, 1);
type = Stem;
},
{
place = (54, 0);
place = (54, 0);
type = Stem;
},
{
place = (236, -1);
place = (236, -1);
type = Stem;
},
{
place = (162, -34);
place = (162, -34);
type = Stem;
}
);
layerId = m01;
shapes = (
{
closed = 1;
nodes = (
(289,785,o),
(320,813,o),
(327,848,cs),
(333,882,o),
(310,909,o),
(276,909,cs),
(241,909,o),
(210,882,o),
(204,848,cs),
(197,813,o),
(221,785,o),
(255,785,cs)
);
},
{
closed = 1;
nodes = (
(471,785,o),
(501,813,o),
(508,848,cs),
(514,882,o),
(492,909,o),
(457,909,cs),
(422,909,o),
(392,882,o),
(386,848,cs),
(379,813,o),
(402,785,o),
(436,785,cs)
);
},
{
closed = 1;
nodes = (
(162,0,l),
(251,0,l),
(299,269,l),
(639,697,l),
(533,697,l),
(268,355,l),
(124,697,l),
(19,697,l),
(210,269,l)
);
}
);
width = 658;
}
);
note = Ydieresis.ss03;
},
{
glyphname = uni1EF4.ss03;
kernLeft = Y;
kernRight = Y;
lastChange = "2022-12-26 08:51:43 +0000";
layers = (
{
hints = (
{
horizontal = 1;
place = (-301, 1);
place = (-301, 1);
type = Stem;
},
{
horizontal = 1;
place = (-123, 21);
target = up;
type = BottomGhost;
},
{
horizontal = 1;
place = (574, -20);
target = down;
type = TopGhost;
},
{
place = (162, -34);
place = (162, -34);
type = Stem;
},
{
place = (145, 0);
place = (145, 0);
type = Stem;
}
);
layerId = m01;
shapes = (
{
closed = 1;
nodes = (
(162,0,l),
(251,0,l),
(299,269,l),
(639,697,l),
(533,697,l),
(268,355,l),
(124,697,l),
(19,697,l),
(210,269,l)
);
},
{
closed = 1;
nodes = (
(210,-178,o),
(242,-150,o),
(248,-116,cs),
(254,-81,o),
(232,-54,o),
(198,-54,cs),
(163,-54,o),
(131,-81,o),
(125,-116,cs),
(119,-150,o),
(142,-178,o),
(176,-178,cs)
);
}
);
width = 658;
}
);
note = uni1EF4.ss03;
},
{
glyphname = Zdotaccent.ss03;
kernLeft = Z;
kernRight = Z;
lastChange = "2022-12-26 08:51:43 +0000";
layers = (
{
hints = (
{
horizontal = 1;
place = (-123, -41);
place = (-123, -41);
type = Stem;
},
{
horizontal = 1;
place = (492, -41);
place = (492, -41);
type = Stem;
},
{
horizontal = 1;
place = (662, 1);
place = (662, 1);
type = Stem;
},
{
place = (135, 0);
place = (135, 0);
type = Stem;
}
);
layerId = m01;
shapes = (
{
closed = 1;
nodes = (
(370,785,o),
(401,813,o),
(408,848,cs),
(414,882,o),
(391,909,o),
(357,909,cs),
(322,909,o),
(291,882,o),
(285,848,cs),
(278,813,o),
(302,785,o),
(336,785,cs)
);
},
{
closed = 1;
nodes = (
(594,697,l),
(63,697,l),
(49,615,l),
(463,615,l),
(-71,65,l),
(-83,0,l),
(469,0,l),
(484,82,l),
(52,82,l),
(582,629,l)
);
}
);
width = 640;
}
);
note = Zdotaccent.ss03;
},
{
glyphname = a;
kernLeft = a;
kernRight = a;
lastChange = "2022-12-26 08:51:43 +0000";
layers = (
{
hints = (
{
horizontal = 1;
place = (-132, -51);
place = (-132, -51);
type = Stem;
},
{
horizontal = 1;
place = (98, -56);
place = (98, -56);
type = Stem;
},
{
horizontal = 1;
place = (303, -47);
place = (303, -47);
type = Stem;
},
{
place = (-86, -37);
place = (-86, -37);
type = Stem;
},
{
place = (254, -37);
place = (254, -37);
type = Stem;
},
{
place = (258, -41);
place = (258, -41);
type = Stem;
},
{
horizontal = 1;
place = (-123, 21);
target = up;
type = BottomGhost;
}
);
layerId = m01;
shapes = (
{
closed = 1;
nodes = (
(147,502,o),
(78,473,o),
(14,411,cs),
(6,404,o),
(7,394,o),
(12,389,cs),
(54,347,l),
(102,399,o),
(154,426,o),
(212,426,cs),
(287,426,o),
(322,384,o),
(308,308,cs),
(305,288,l),
(196,288,ls),
(113,288,o),
(62,280,o),
(22,260,cs),
(-22,238,o),
(-51,198,o),
(-60,146,cs),
(-77,51,o),
(-20,-9,o),
(86,-9,cs),
(160,-9,o),
(224,21,o),
(268,74,c),
(269,0,l),
(308,0,l),
(351,63,l),
(394,308,ls),
(416,430,o),
(354,502,o),
(228,502,cs)
);
},
{
closed = 1;
nodes = (
(52,63,o),
(17,94,o),
(25,142,cs),
(30,167,o),
(42,186,o),
(60,199,cs),
(84,215,o),
(119,221,o),
(194,221,cs),
(293,221,l),
(292,216,ls),
(276,125,o),
(205,63,o),
(118,63,cs)
);
}
);
width = 533;
}
);
note = a;
unicode = 97;
},
{
glyphname = aacute;
kernLeft = a;
kernRight = a;
lastChange = "2022-12-26 08:51:43 +0000";
layers = (
{
hints = (
{
horizontal = 1;
place = (-132, -51);
place = (-132, -51);
type = Stem;
},
{
horizontal = 1;
place = (98, -56);
place = (98, -56);
type = Stem;
},
{
horizontal = 1;
place = (303, -47);
place = (303, -47);
type = Stem;
},
{
horizontal = 1;
place = (433, 18);
place = (433, 18);
type = Stem;
},
{
place = (-86, -37);
place = (-86, -37);
type = Stem;
},
{
place = (254, -37);
place = (254, -37);
type = Stem;
},
{
place = (258, -41);
place = (258, -41);
type = Stem;
},
{
horizontal = 1;
place = (-123, 21);
target = up;
type = BottomGhost;
}
);
layerId = m01;
shapes = (
{
closed = 1;
nodes = (
(431,697,l),
(339,697,l),
(205,556,l),
(269,556,l)
);
},
{
closed = 1;
nodes = (
(142,502,o),
(69,469,o),
(1,399,c),
(54,347,l),
(102,399,o),
(154,426,o),
(212,426,cs),
(287,426,o),
(322,384,o),
(308,308,cs),
(305,288,l),
(196,288,ls),
(113,288,o),
(62,280,o),
(22,260,cs),
(-22,238,o),
(-51,198,o),
(-60,146,cs),
(-77,51,o),
(-20,-9,o),
(86,-9,cs),
(160,-9,o),
(224,21,o),
(268,74,c),
(261,0,l),
(340,0,l),
(394,308,ls),
(416,430,o),
(354,502,o),
(228,502,cs)
);
},
{
closed = 1;
nodes = (
(52,63,o),
(17,94,o),
(25,142,cs),
(30,167,o),
(42,186,o),
(60,199,cs),
(84,215,o),
(119,221,o),
(194,221,cs),
(293,221,l),
(292,216,ls),
(276,125,o),
(205,63,o),
(118,63,cs)
);
}
);
width = 533;
}
);
note = aacute;
unicode = 225;
},
